<svg xmlns="http://www.w3.org/2000/svg" width="38" height="38" viewBox="0 0 38 38" fill="none"><g id="Vector"><path d="M37.4062 32.4839H36.4836C36.6975 32.1129 36.8115 31.6897 36.8139 31.2581V20.2258C36.8132 19.5758 36.5628 18.9527 36.1175 18.4931C35.6723 18.0335 35.0686 17.7749 34.4389 17.7742H20.7827C20.4697 17.7742 20.1599 17.8385 19.8713 17.9633C19.3919 17.8431 18.9009 17.7796 18.4077 17.7742H16.3295V17.3032C16.9387 16.8556 17.4555 16.2874 17.85 15.6317C18.2444 14.976 18.5086 14.2459 18.6272 13.4839H18.7044C19.3341 13.4831 19.9378 13.2246 20.383 12.765C20.8283 12.3054 21.0787 11.6822 21.0794 11.0323V8.27419C21.0794 6.07974 20.2349 3.97517 18.7317 2.42346C17.2285 0.871743 15.1897 0 13.0638 0C10.9379 0 8.89913 0.871743 7.3959 2.42346C5.89268 3.97517 5.04818 6.07974 5.04818 8.27419V11.0323C5.0489 11.6822 5.29936 12.3054 5.7446 12.765C6.18984 13.2246 6.79351 13.4831 7.42318 13.4839H7.50037C7.619 14.2459 7.88324 14.976 8.27771 15.6317C8.67219 16.2874 9.18904 16.8556 9.79818 17.3032V17.7742H7.72006C5.98846 17.7762 4.32836 18.4872 3.10393 19.7511C1.87951 21.015 1.19077 22.7287 1.18881 24.5161V30.6452C1.1911 31.3104 1.4051 31.9564 1.79788 32.4839H0.59375C0.436278 32.4839 0.285255 32.5484 0.173905 32.6634C0.0625556 32.7783 0 32.9342 0 33.0968V37.3871C0 37.5496 0.0625556 37.7055 0.173905 37.8205C0.285255 37.9354 0.436278 38 0.59375 38H37.4062C37.5637 38 37.7147 37.9354 37.8261 37.8205C37.9374 37.7055 38 37.5496 38 37.3871V33.0968C38 32.9342 37.9374 32.7783 37.8261 32.6634C37.7147 32.5484 37.5637 32.4839 37.4062 32.4839ZM34.4389 19C34.7538 19.0003 35.0556 19.1296 35.2783 19.3594C35.5009 19.5892 35.6261 19.9008 35.6264 20.2258V31.2581C35.6261 31.5831 35.5009 31.8947 35.2783 32.1245C35.0556 32.3543 34.7538 32.4836 34.4389 32.4839H19.5952V20.2258C19.5955 19.9008 19.7207 19.5892 19.9433 19.3594C20.166 19.1296 20.4678 19.0003 20.7827 19H34.4389ZM16.5852 32.4839C16.5065 31.8355 16.3019 31.2101 15.9838 30.6452H18.4077V32.4839H16.5852ZM12.4702 29.475C13.1987 29.6028 13.8707 29.9609 14.3936 30.4999C14.9165 31.0388 15.2644 31.7321 15.3893 32.4839H12.4702V29.475ZM18.7045 12.2581V9.80645C19.0195 9.80645 19.3215 9.9356 19.5442 10.1655C19.7669 10.3954 19.892 10.7072 19.892 11.0323C19.892 11.3574 19.7669 11.6692 19.5442 11.899C19.3215 12.1289 19.0195 12.2581 18.7045 12.2581ZM13.0639 1.22581C14.8742 1.22787 16.6098 1.97112 17.8899 3.29251C19.17 4.61389 19.8901 6.40548 19.892 8.27419V8.92173C19.5327 8.70086 19.1228 8.5831 18.7045 8.58065H18.4025L16.2866 5.75436C16.2338 5.68389 16.1669 5.62613 16.0903 5.58509C16.0137 5.54406 15.9294 5.52073 15.8433 5.51674C15.7571 5.51275 15.6711 5.52819 15.5913 5.56199C15.5115 5.59579 15.4398 5.64713 15.3812 5.71244C14.5675 6.61582 13.5824 7.33666 12.4872 7.8301C11.3921 8.32354 10.2102 8.57902 9.01526 8.58065H7.4233C7.0051 8.58312 6.59513 8.70087 6.2358 8.92173V8.27419C6.23781 6.40548 6.95785 4.6139 8.23793 3.29252C9.51802 1.97115 11.2536 1.22788 13.0639 1.22581ZM6.2358 11.0323C6.23611 10.7073 6.36133 10.3957 6.58396 10.1658C6.80659 9.93603 7.10845 9.80678 7.4233 9.80645V12.2581C7.10845 12.2577 6.80659 12.1285 6.58396 11.8987C6.36133 11.6689 6.23611 11.3573 6.2358 11.0323ZM8.6108 12.5645V9.80645H9.01526C11.5196 9.80281 13.9297 8.82 15.7603 7.05586L17.5171 9.40273V12.5645C17.5171 13.7837 17.0479 14.9529 16.2128 15.8149C15.3777 16.677 14.245 17.1613 13.064 17.1613C11.8829 17.1613 10.7503 16.677 9.91515 15.8149C9.08003 14.9529 8.6108 13.7837 8.6108 12.5645ZM13.0639 18.3871C13.7759 18.3864 14.4811 18.2457 15.142 17.9725V18.6935C15.142 19.2625 14.9231 19.8081 14.5334 20.2104C14.1437 20.6127 13.6151 20.8387 13.0639 20.8387C12.5128 20.8387 11.9842 20.6127 11.5945 20.2104C11.2047 19.8081 10.9858 19.2625 10.9858 18.6935V17.9725C11.6467 18.2457 12.352 18.3864 13.0639 18.3871ZM2.37643 30.6452V24.5161C2.378 23.0537 2.9415 21.6516 3.94331 20.6174C4.94512 19.5833 6.30341 19.0016 7.72018 19H9.81338C9.88708 19.8374 10.2614 20.616 10.8629 21.183C11.4643 21.75 12.2494 22.0644 13.064 22.0644C13.8785 22.0644 14.6636 21.75 15.265 21.183C15.8665 20.616 16.2408 19.8374 16.3145 19H18.4077C18.5127 19 18.62 19.0158 18.7261 19.0228C18.52 19.3882 18.4103 19.803 18.4077 20.2258V29.4194H15.0077C14.144 28.6298 13.0302 28.1938 11.8764 28.1935H5.93893C5.78145 28.1935 5.63043 28.2581 5.51908 28.3731C5.40773 28.488 5.34518 28.6439 5.34518 28.8065C5.34518 28.969 5.40773 29.1249 5.51908 29.2398C5.63043 29.3548 5.78145 29.4194 5.93893 29.4194H11.2827V32.4839H4.15767C3.68542 32.4833 3.23265 32.2894 2.89871 31.9447C2.56478 31.6 2.37694 31.1327 2.37643 30.6452ZM36.8125 36.7742H1.1875V33.7097H36.8125V36.7742Z" fill="#104CBA"></path><path d="M27.6108 28.8064C28.198 28.8064 28.7719 28.6267 29.2601 28.29C29.7484 27.9533 30.1289 27.4746 30.3536 26.9147C30.5783 26.3547 30.6371 25.7385 30.5225 25.1441C30.408 24.5496 30.1252 24.0036 29.71 23.575C29.2948 23.1464 28.7659 22.8545 28.19 22.7363C27.6141 22.6181 27.0172 22.6787 26.4747 22.9107C25.9322 23.1426 25.4686 23.5354 25.1424 24.0394C24.8162 24.5433 24.642 25.1358 24.642 25.7419C24.643 26.5544 24.9561 27.3333 25.5126 27.9078C26.0691 28.4823 26.8237 28.8055 27.6108 28.8064ZM27.6108 23.9032C27.9631 23.9032 28.3075 24.0111 28.6004 24.2131C28.8933 24.4151 29.1216 24.7023 29.2565 25.0383C29.3913 25.3743 29.4266 25.744 29.3578 26.1006C29.2891 26.4573 29.1194 26.785 28.8703 27.0421C28.6212 27.2992 28.3038 27.4744 27.9583 27.5453C27.6128 27.6163 27.2546 27.5798 26.9291 27.4407C26.6037 27.3015 26.3255 27.0658 26.1297 26.7635C25.934 26.4611 25.8295 26.1056 25.8295 25.7419C25.8301 25.2544 26.0179 24.7871 26.3518 24.4424C26.6858 24.0977 27.1385 23.9038 27.6108 23.9032Z" fill="#104CBA"></path></g></svg>