<svg xmlns="http://www.w3.org/2000/svg" width="74" height="80" viewBox="0 0 74 80" fill="none"><path d="M62.9802 51.1037C62.9787 49.7252 62.4304 48.4036 61.4557 47.4289C60.4809 46.4542 59.1594 45.9059 57.7809 45.9043H42.0466C44.2195 40.638 44.2274 34.7271 42.0686 29.4549C42.0497 29.4086 42.0281 29.3635 42.0038 29.3199C41.56 28.5215 40.9022 27.8627 40.1045 27.4177C39.3067 26.9728 38.4006 26.7592 37.4881 26.8012C36.5756 26.8431 35.6929 27.1389 34.9393 27.6551C34.1858 28.1714 33.5912 28.8877 33.2225 29.7235C33.1644 29.8555 33.1295 29.9965 33.1193 30.1404L32.7479 35.4133C32.1919 38.4436 30.5568 41.1699 28.1452 43.0873C27.1793 43.4264 25.4109 44.6258 20.7974 49.0156V48.8845C20.7967 48.1933 20.5219 47.5307 20.0331 47.042C19.5444 46.5533 18.8817 46.2784 18.1906 46.2778H5.06797C4.37684 46.2785 3.71423 46.5533 3.22553 47.042C2.73683 47.5307 2.46197 48.1934 2.46126 48.8845V75.0719C2.46176 75.7631 2.73653 76.426 3.22525 76.9148C3.71397 77.4037 4.37671 77.6787 5.06797 77.6794H18.1898C18.8809 77.6787 19.5436 77.4039 20.0323 76.9152C20.5211 76.4265 20.796 75.7638 20.7967 75.0727V74.9578C24.4051 75.7537 26.2884 76.6997 28.4851 78.7403C29.3487 79.5619 30.499 80.0138 31.691 79.9997H52.0307C53.0177 80 53.9844 79.7193 54.8177 79.1904C55.651 78.6614 56.3165 77.9061 56.7362 77.0128C57.1559 76.1195 57.3126 75.1251 57.1878 74.146C57.0631 73.1669 56.6621 72.2436 56.0318 71.4841C57.6551 70.5077 58.8099 68.7596 58.8099 66.9022C58.8112 65.7467 58.4255 64.624 57.7145 63.7132C59.3679 62.734 60.5541 60.9263 60.5541 59.0033C60.5554 57.9193 60.2159 56.8622 59.5837 55.9816C60.5798 55.6121 61.4391 54.9467 62.0462 54.0748C62.6533 53.2029 62.9792 52.1662 62.9802 51.1037ZM18.2967 75.0723C18.2956 75.1003 18.284 75.1269 18.2642 75.1467C18.2444 75.1665 18.2178 75.1781 18.1898 75.1791H5.06797C5.03999 75.1781 5.01343 75.1665 4.99363 75.1467C4.97383 75.1269 4.96226 75.1003 4.96125 75.0723V48.885C4.9623 48.857 4.97388 48.8304 4.99367 48.8107C5.01346 48.7909 5.04 48.7793 5.06797 48.7782H18.1898C18.2178 48.7793 18.2443 48.7909 18.2642 48.8106C18.284 48.8304 18.2956 48.857 18.2967 48.885V75.0723ZM57.7809 53.8029H53.4364C53.1048 53.8029 52.7869 53.9346 52.5525 54.169C52.3181 54.4034 52.1864 54.7214 52.1864 55.0529C52.1864 55.3844 52.3181 55.7024 52.5525 55.9368C52.7869 56.1712 53.1048 56.3029 53.4364 56.3029H55.3548C56.0704 56.3039 56.7564 56.5886 57.2624 57.0946C57.7684 57.6006 58.0532 58.2866 58.0542 59.0023C58.0542 60.4085 56.6645 61.8391 55.2382 61.9626C54.7131 61.7893 54.1636 61.7013 53.6106 61.7018C53.2791 61.7018 52.9611 61.8335 52.7267 62.0679C52.4923 62.3023 52.3606 62.6203 52.3606 62.9518C52.3606 63.2833 52.4923 63.6012 52.7267 63.8357C52.9611 64.0701 53.2791 64.2018 53.6106 64.2018C53.9267 64.2014 54.2403 64.2569 54.5371 64.3655C54.5701 64.3801 54.6035 64.3932 54.6379 64.4047C55.1322 64.6089 55.5549 64.955 55.8525 65.3994C56.15 65.8437 56.3092 66.3663 56.3098 66.9011C56.3098 68.2793 54.8648 69.6824 53.3936 69.7817C52.9493 69.6611 52.4909 69.6002 52.0306 69.6005C51.6991 69.6005 51.3811 69.7322 51.1467 69.9666C50.9123 70.201 50.7806 70.519 50.7806 70.8505C50.7806 71.182 50.9123 71.5 51.1467 71.7344C51.3811 71.9688 51.6991 72.1005 52.0306 72.1005C52.2924 72.1003 52.5527 72.1383 52.8036 72.2133C52.8331 72.2239 52.8632 72.2336 52.8939 72.2421C53.5006 72.4466 54.0149 72.8601 54.345 73.4088C54.675 73.9575 54.7992 74.6056 54.6955 75.2375C54.5918 75.8693 54.2668 76.4437 53.7787 76.8581C53.2906 77.2725 52.671 77.4999 52.0307 77.4997H31.691C31.4135 77.5059 31.1376 77.4568 30.8793 77.3554C30.621 77.2539 30.3855 77.1021 30.1865 76.9087C27.5318 74.4423 25.2113 73.3195 20.7967 72.401V52.4865L21.0184 52.2707C27.1537 46.3125 28.6566 45.5389 28.9757 45.445C29.161 45.4068 29.3352 45.3273 29.4854 45.2122C32.5066 42.8979 34.5525 39.5369 35.2207 35.7903C35.2284 35.7465 35.234 35.7022 35.2372 35.6578L35.5966 30.5571C35.7996 30.183 36.0982 29.8694 36.4618 29.6483C36.8254 29.4271 37.2412 29.3062 37.6667 29.298C38.0922 29.2897 38.5123 29.3944 38.8843 29.6013C39.2562 29.8082 39.5667 30.1099 39.7841 30.4758C40.8279 33.0564 41.2964 35.8337 41.1569 38.6139C41.0174 41.3941 40.2733 44.1105 38.9764 46.5737C38.8764 46.7642 38.8272 46.9773 38.8336 47.1924C38.8401 47.4075 38.902 47.6173 39.0133 47.8015C39.1246 47.9857 39.2815 48.138 39.469 48.2437C39.6564 48.3494 39.8679 48.405 40.0831 48.405H57.7809C58.4933 48.4104 59.1746 48.6972 59.6764 49.2028C60.1783 49.7085 60.4599 50.392 60.4599 51.1044C60.4599 51.8168 60.1783 52.5003 59.6764 53.006C59.1746 53.5116 58.4933 53.7984 57.7809 53.8038V53.8029ZM14.0593 52.8842V53.0349C14.0593 53.3665 13.9276 53.6844 13.6932 53.9188C13.4588 54.1532 13.1409 54.2849 12.8093 54.2849C12.4778 54.2849 12.1599 54.1532 11.9255 53.9188C11.691 53.6844 11.5594 53.3665 11.5594 53.0349V52.8842C11.5594 52.5526 11.691 52.2347 11.9255 52.0003C12.1599 51.7659 12.4778 51.6342 12.8093 51.6342C13.1409 51.6342 13.4588 51.7659 13.6932 52.0003C13.9276 52.2347 14.0593 52.5526 14.0593 52.8842ZM51.567 10.7159C51.4916 10.4839 51.35 10.279 51.1596 10.1265C50.9692 9.97397 50.7383 9.88051 50.4954 9.85762L41.5363 9.01388L37.9644 0.75391C37.8676 0.529997 37.7074 0.339307 37.5035 0.205344C37.2996 0.0713808 37.061 0 36.8171 0C36.5731 0 36.3345 0.0713808 36.1306 0.205344C35.9268 0.339307 35.7665 0.529997 35.6697 0.75391L32.0983 9.01372L23.1393 9.85747C22.8964 9.88036 22.6656 9.97382 22.4752 10.1263C22.2848 10.2788 22.1432 10.4837 22.0678 10.7157C21.9924 10.9477 21.9866 11.1967 22.051 11.432C22.1154 11.6672 22.2472 11.8785 22.4302 12.0398L29.1822 17.9885L27.2163 26.7697C27.163 27.0078 27.1806 27.2562 27.2668 27.4844C27.353 27.7126 27.5041 27.9106 27.7014 28.054C27.8988 28.1974 28.1338 28.2799 28.3774 28.2913C28.6211 28.3028 28.8628 28.2427 29.0727 28.1185L36.8171 23.5355L44.5611 28.1188C44.771 28.243 45.0127 28.3031 45.2564 28.2917C45.5 28.2802 45.735 28.1977 45.9324 28.0543C46.1297 27.9109 46.2808 27.7129 46.367 27.4847C46.4532 27.2565 46.4708 27.0081 46.4175 26.7701L44.4517 17.9888L51.2037 12.0401C51.3869 11.8789 51.5189 11.6677 51.5835 11.4324C51.648 11.197 51.6423 10.948 51.567 10.7159ZM42.2447 16.602C42.0766 16.75 41.9515 16.9406 41.8822 17.1536C41.813 17.3666 41.8023 17.5943 41.8513 17.8129L43.3472 24.4949L37.4546 21.0073C37.2618 20.8932 37.0419 20.8329 36.8178 20.8329C36.5938 20.8329 36.3739 20.8932 36.1811 21.0073L30.2885 24.4949L31.7836 17.8124C31.8326 17.5939 31.8219 17.3661 31.7527 17.1531C31.6834 16.9401 31.5583 16.7496 31.3902 16.6015L26.2526 12.075L33.0697 11.4328C33.2927 11.4117 33.506 11.3312 33.6872 11.1995C33.8684 11.0679 34.0108 10.8899 34.0997 10.6843L36.8171 4.39983L39.5344 10.6848C39.6233 10.8904 39.7658 11.0683 39.947 11.2C40.1282 11.3317 40.3414 11.4122 40.5644 11.4332L47.3817 12.0754L42.2447 16.602ZM73.5736 18.0406C73.4983 17.8085 73.3566 17.6036 73.1662 17.4511C72.9758 17.2986 72.7449 17.2052 72.5021 17.1823L66.1885 16.5876L63.6712 10.7668C63.5743 10.5429 63.4141 10.3522 63.2103 10.2183C63.0064 10.0843 62.7678 10.0129 62.5238 10.0129C62.2799 10.0129 62.0413 10.0843 61.8374 10.2183C61.6335 10.3522 61.4733 10.5429 61.3765 10.7668L58.8599 16.5876L52.5462 17.1823C52.3033 17.2051 52.0724 17.2986 51.882 17.4511C51.6916 17.6036 51.5499 17.8085 51.4745 18.0405C51.3992 18.2726 51.3933 18.5216 51.4578 18.7569C51.5222 18.9922 51.6541 19.2035 51.8372 19.3648L56.5954 23.5568L55.2101 29.7452C55.1568 29.9833 55.1744 30.2318 55.2606 30.46C55.3469 30.6882 55.498 30.8862 55.6954 31.0296C55.8929 31.1729 56.1279 31.2554 56.3716 31.2668C56.6153 31.2782 56.8571 31.218 57.067 31.0936L62.5243 27.8638L67.9811 31.0936C68.1911 31.2179 68.4328 31.278 68.6765 31.2666C68.9202 31.2552 69.1552 31.1727 69.3526 31.0293C69.55 30.8859 69.7011 30.6879 69.7873 30.4596C69.8735 30.2314 69.891 29.983 69.8377 29.7449L68.4522 23.5565L73.2103 19.3645C73.3933 19.2032 73.5252 18.992 73.5896 18.7567C73.654 18.5215 73.6482 18.2725 73.5728 18.0406H73.5736ZM66.2455 22.1701C66.0775 22.3181 65.9523 22.5087 65.8831 22.7217C65.8139 22.9347 65.8032 23.1624 65.8521 23.381L66.7676 27.47L63.1607 25.3358C62.9679 25.2217 62.748 25.1615 62.524 25.1615C62.3 25.1615 62.0801 25.2217 61.8873 25.3358L58.2815 27.47L59.1968 23.381C59.2457 23.1624 59.235 22.9347 59.1658 22.7217C59.0966 22.5087 58.9714 22.3181 58.8034 22.1701L55.6592 19.4002L59.831 19.0071C60.054 18.9861 60.2673 18.9056 60.4485 18.7739C60.6298 18.6422 60.7723 18.4643 60.8612 18.2587L62.524 14.4126L64.1868 18.2587C64.2757 18.4643 64.4182 18.6422 64.5994 18.7739C64.7806 18.9056 64.9939 18.9861 65.2169 19.0071L69.3888 19.4002L66.2455 22.1701ZM21.0895 17.1823L14.7759 16.5876L12.2576 10.7668C12.1608 10.5429 12.0006 10.3522 11.7967 10.2183C11.5929 10.0843 11.3542 10.0129 11.1103 10.0129C10.8663 10.0129 10.6277 10.0843 10.4239 10.2183C10.22 10.3522 10.0598 10.5429 9.96295 10.7668L7.4464 16.5876L1.13283 17.1823C0.889936 17.2051 0.659042 17.2986 0.468614 17.4511C0.278187 17.6036 0.136551 17.8085 0.0611671 18.0405C-0.0142164 18.2726 -0.0200514 18.5216 0.044381 18.7569C0.108813 18.9922 0.240697 19.2035 0.423772 19.3648L5.18188 23.5568L3.79641 29.7452C3.74319 29.9832 3.76078 30.2317 3.84702 30.4598C3.93325 30.688 4.08436 30.886 4.28172 31.0293C4.47908 31.1727 4.71407 31.2551 4.95772 31.2665C5.20138 31.278 5.44306 31.2179 5.65297 31.0936L11.1103 27.8638L16.5671 31.0936C16.7771 31.2179 17.0188 31.2779 17.2624 31.2665C17.5061 31.255 17.7411 31.1725 17.9384 31.0291C18.1358 30.8858 18.2869 30.6878 18.3731 30.4596C18.4593 30.2314 18.4768 29.9829 18.4235 29.7449L17.0381 23.5565L21.7963 19.3645C21.9794 19.2032 22.1113 18.9919 22.1757 18.7566C22.2402 18.5213 22.2343 18.2723 22.1589 18.0402C22.0836 17.8082 21.9419 17.6033 21.7515 17.4508C21.5611 17.2983 21.3302 17.2048 21.0873 17.182L21.0895 17.1823ZM14.8326 22.1701C14.6646 22.3181 14.5394 22.5087 14.4702 22.7217C14.401 22.9347 14.3903 23.1624 14.4392 23.381L15.3545 27.4699L11.747 25.3358C11.5542 25.2217 11.3343 25.1615 11.1103 25.1615C10.8863 25.1615 10.6664 25.2217 10.4736 25.3358L6.86765 27.47L7.78312 23.381C7.83205 23.1624 7.82134 22.9347 7.75213 22.7217C7.68292 22.5087 7.55774 22.3181 7.38968 22.1701L4.24563 19.4002L8.41749 19.0071C8.6405 18.9861 8.85378 18.9056 9.03501 18.7739C9.21623 18.6422 9.35874 18.4643 9.44764 18.2587L11.1103 14.4128L12.7731 18.2587C12.862 18.4643 13.0045 18.6422 13.1857 18.7739C13.3669 18.9055 13.5801 18.9861 13.8031 19.0071L17.9749 19.4002L14.8326 22.1701Z" fill="#104CBA"></path></svg>