<svg xmlns="http://www.w3.org/2000/svg" width="67" height="67" viewBox="0 0 67 67" fill="none"><path d="M8.93333 12.2833C9.5959 12.2833 10.2436 12.0869 10.7945 11.7188C11.3454 11.3507 11.7748 10.8275 12.0283 10.2153C12.2819 9.60319 12.3482 8.92962 12.219 8.27978C12.0897 7.62994 11.7706 7.03303 11.3021 6.56453C10.8336 6.09602 10.2367 5.77696 9.58689 5.6477C8.93705 5.51844 8.26348 5.58478 7.65134 5.83834C7.03921 6.09189 6.51601 6.52127 6.14791 7.07217C5.77981 7.62308 5.58333 8.27077 5.58333 8.93333C5.5843 9.82151 5.93756 10.673 6.5656 11.3011C7.19363 11.9291 8.04516 12.2824 8.93333 12.2833ZM8.93333 7.81667C9.15419 7.81667 9.37009 7.88216 9.55372 8.00486C9.73736 8.12756 9.88048 8.30196 9.965 8.506C10.0495 8.71005 10.0716 8.93457 10.0285 9.15118C9.98546 9.3678 9.8791 9.56677 9.72294 9.72294C9.56677 9.8791 9.3678 9.98546 9.15118 10.0285C8.93457 10.0716 8.71005 10.0495 8.506 9.965C8.30196 9.88048 8.12756 9.73736 8.00486 9.55372C7.88216 9.37009 7.81667 9.15419 7.81667 8.93333C7.81686 8.63724 7.93458 8.35332 8.14395 8.14395C8.35332 7.93458 8.63724 7.81686 8.93333 7.81667ZM17.8667 12.2833C18.5292 12.2833 19.1769 12.0869 19.7278 11.7188C20.2787 11.3507 20.7081 10.8275 20.9617 10.2153C21.2152 9.60319 21.2816 8.92962 21.1523 8.27978C21.023 7.62994 20.704 7.03303 20.2355 6.56453C19.767 6.09602 19.1701 5.77696 18.5202 5.6477C17.8704 5.51844 17.1968 5.58478 16.5847 5.83834C15.9725 6.09189 15.4493 6.52127 15.0812 7.07217C14.7131 7.62308 14.5167 8.27077 14.5167 8.93333C14.5176 9.82151 14.8709 10.673 15.4989 11.3011C16.127 11.9291 16.9785 12.2824 17.8667 12.2833ZM17.8667 7.81667C18.0875 7.81667 18.3034 7.88216 18.4871 8.00486C18.6707 8.12756 18.8138 8.30196 18.8983 8.506C18.9829 8.71005 19.005 8.93457 18.9619 9.15118C18.9188 9.3678 18.8124 9.56677 18.6563 9.72294C18.5001 9.8791 18.3011 9.98546 18.0845 10.0285C17.8679 10.0716 17.6434 10.0495 17.4393 9.965C17.2353 9.88048 17.0609 9.73736 16.9382 9.55372C16.8155 9.37009 16.75 9.15419 16.75 8.93333C16.7502 8.63724 16.8679 8.35332 17.0773 8.14395C17.2867 7.93458 17.5706 7.81686 17.8667 7.81667ZM5.58333 29.0333C5.58333 29.6959 5.77981 30.3436 6.14791 30.8945C6.51601 31.4454 7.03921 31.8748 7.65134 32.1283C8.26348 32.3819 8.93705 32.4482 9.58689 32.319C10.2367 32.1897 10.8336 31.8706 11.3021 31.4021C11.7706 30.9336 12.0897 30.3367 12.219 29.6869C12.3482 29.0371 12.2819 28.3635 12.0283 27.7513C11.7748 27.1392 11.3454 26.616 10.7945 26.2479C10.2436 25.8798 9.5959 25.6833 8.93333 25.6833C8.04516 25.6843 7.19363 26.0376 6.5656 26.6656C5.93756 27.2936 5.5843 28.1452 5.58333 29.0333ZM10.05 29.0333C10.05 29.2542 9.98451 29.4701 9.86181 29.6537C9.73911 29.8374 9.56471 29.9805 9.36066 30.065C9.15662 30.1495 8.93209 30.1716 8.71548 30.1285C8.49887 30.0855 8.2999 29.9791 8.14373 29.8229C7.98756 29.6668 7.88121 29.4678 7.83812 29.2512C7.79504 29.0346 7.81715 28.81 7.90167 28.606C7.98619 28.402 8.12931 28.2276 8.31295 28.1049C8.49658 27.9822 8.71248 27.9167 8.93333 27.9167C9.22943 27.9169 9.51334 28.0346 9.72272 28.2439C9.93209 28.4533 10.0498 28.7372 10.05 29.0333ZM5.58333 49.1333C5.58333 49.7959 5.77981 50.4436 6.14791 50.9945C6.51601 51.5454 7.03921 51.9748 7.65134 52.2283C8.26348 52.4819 8.93705 52.5482 9.58689 52.419C10.2367 52.2897 10.8336 51.9706 11.3021 51.5021C11.7706 51.0336 12.0897 50.4367 12.219 49.7869C12.3482 49.137 12.2819 48.4635 12.0283 47.8513C11.7748 47.2392 11.3454 46.716 10.7945 46.3479C10.2436 45.9798 9.5959 45.7833 8.93333 45.7833C8.04516 45.7843 7.19363 46.1376 6.5656 46.7656C5.93756 47.3936 5.5843 48.2452 5.58333 49.1333ZM10.05 49.1333C10.05 49.3542 9.98451 49.5701 9.86181 49.7537C9.73911 49.9374 9.56471 50.0805 9.36066 50.165C9.15662 50.2495 8.93209 50.2716 8.71548 50.2285C8.49887 50.1855 8.2999 50.0791 8.14373 49.9229C7.98756 49.7668 7.88121 49.5678 7.83812 49.3512C7.79504 49.1346 7.81715 48.91 7.90167 48.706C7.98619 48.502 8.12931 48.3276 8.31295 48.2049C8.49658 48.0822 8.71248 48.0167 8.93333 48.0167C9.22943 48.0169 9.51334 48.1346 9.72272 48.344C9.93209 48.5533 10.0498 48.8372 10.05 49.1333ZM24.5667 12.2833H49.1333C49.28 12.2834 49.4252 12.2546 49.5608 12.1985C49.6963 12.1424 49.8194 12.0602 49.9231 11.9565C50.0268 11.8527 50.1091 11.7296 50.1652 11.5941C50.2213 11.4586 50.2501 11.3133 50.25 11.1667V6.7C50.2501 6.55333 50.2213 6.40809 50.1652 6.27257C50.1091 6.13705 50.0268 6.01392 49.9231 5.91021C49.8194 5.8065 49.6963 5.72425 49.5608 5.66816C49.4252 5.61208 49.28 5.58325 49.1333 5.58333H24.5667C24.42 5.58325 24.2748 5.61208 24.1392 5.66816C24.0037 5.72425 23.8806 5.8065 23.7769 5.91021C23.6732 6.01392 23.5909 6.13705 23.5348 6.27257C23.4787 6.40809 23.4499 6.55333 23.45 6.7V11.1667C23.4499 11.3133 23.4787 11.4586 23.5348 11.5941C23.5909 11.7296 23.6732 11.8527 23.7769 11.9565C23.8806 12.0602 24.0037 12.1424 24.1392 12.1985C24.2748 12.2546 24.42 12.2834 24.5667 12.2833ZM25.6833 7.81667H48.0167V10.05H25.6833V7.81667ZM14.5167 29.0333C14.5167 29.6959 14.7131 30.3436 15.0812 30.8945C15.4493 31.4454 15.9725 31.8748 16.5847 32.1283C17.1968 32.3819 17.8704 32.4482 18.5202 32.319C19.1701 32.1897 19.767 31.8706 20.2355 31.4021C20.704 30.9336 21.023 30.3367 21.1523 29.6869C21.2816 29.0371 21.2152 28.3635 20.9617 27.7513C20.7081 27.1392 20.2787 26.616 19.7278 26.2479C19.1769 25.8798 18.5292 25.6833 17.8667 25.6833C16.9785 25.6843 16.127 26.0376 15.4989 26.6656C14.8709 27.2936 14.5176 28.1452 14.5167 29.0333ZM18.9833 29.0333C18.9833 29.2542 18.9178 29.4701 18.7951 29.6537C18.6724 29.8374 18.498 29.9805 18.294 30.065C18.09 30.1495 17.8654 30.1716 17.6488 30.1285C17.4322 30.0855 17.2332 29.9791 17.0771 29.8229C16.9209 29.6668 16.8145 29.4678 16.7715 29.2512C16.7284 29.0346 16.7505 28.81 16.835 28.606C16.9195 28.402 17.0626 28.2276 17.2463 28.1049C17.4299 27.9822 17.6458 27.9167 17.8667 27.9167C18.1628 27.9169 18.4467 28.0346 18.6561 28.2439C18.8654 28.4533 18.9831 28.7372 18.9833 29.0333ZM14.5167 49.1333C14.5167 49.7959 14.7131 50.4436 15.0812 50.9945C15.4493 51.5454 15.9725 51.9748 16.5847 52.2283C17.1968 52.4819 17.8704 52.5482 18.5202 52.419C19.1701 52.2897 19.767 51.9706 20.2355 51.5021C20.704 51.0336 21.023 50.4367 21.1523 49.7869C21.2816 49.137 21.2152 48.4635 20.9617 47.8513C20.7081 47.2392 20.2787 46.716 19.7278 46.3479C19.1769 45.9798 18.5292 45.7833 17.8667 45.7833C16.9785 45.7843 16.127 46.1376 15.4989 46.7656C14.8709 47.3936 14.5176 48.2452 14.5167 49.1333ZM18.9833 49.1333C18.9833 49.3542 18.9178 49.5701 18.7951 49.7537C18.6724 49.9374 18.498 50.0805 18.294 50.165C18.09 50.2495 17.8654 50.2716 17.6488 50.2285C17.4322 50.1855 17.2332 50.0791 17.0771 49.9229C16.9209 49.7668 16.8145 49.5678 16.7715 49.3512C16.7284 49.1346 16.7505 48.91 16.835 48.706C16.9195 48.502 17.0626 48.3276 17.2463 48.2049C17.4299 48.0822 17.6458 48.0167 17.8667 48.0167C18.1628 48.0169 18.4467 48.1346 18.6561 48.344C18.8654 48.5533 18.9831 48.8372 18.9833 49.1333ZM25.6833 48.0167V50.25H32.3833C32.6795 50.25 32.9635 50.3676 33.1729 50.5771C33.3824 50.7865 33.5 51.0705 33.5 51.3667C33.5 51.6628 33.3824 51.9469 33.1729 52.1563C32.9635 52.3657 32.6795 52.4833 32.3833 52.4833H24.5667C24.42 52.4834 24.2748 52.4546 24.1392 52.3985C24.0037 52.3424 23.8806 52.2602 23.7769 52.1565C23.6732 52.0527 23.5909 51.9296 23.5348 51.7941C23.4787 51.6586 23.4499 51.5133 23.45 51.3667V46.9C23.4499 46.7533 23.4787 46.6081 23.5348 46.4726C23.5909 46.3371 23.6732 46.2139 23.7769 46.1102C23.8806 46.0065 24.0037 45.9243 24.1392 45.8682C24.2748 45.8121 24.42 45.7832 24.5667 45.7833H32.3833C32.6795 45.7833 32.9635 45.901 33.1729 46.1104C33.3824 46.3198 33.5 46.6038 33.5 46.9C33.5 47.1962 33.3824 47.4802 33.1729 47.6896C32.9635 47.899 32.6795 48.0167 32.3833 48.0167H25.6833ZM48.0167 28.4903V27.9167H25.6833V30.15H43.55C43.8462 30.15 44.1302 30.2676 44.3396 30.4771C44.549 30.6865 44.6667 30.9705 44.6667 31.2667C44.6667 31.5628 44.549 31.8469 44.3396 32.0563C44.1302 32.2657 43.8462 32.3833 43.55 32.3833H24.5667C24.42 32.3834 24.2748 32.3546 24.1392 32.2985C24.0037 32.2424 23.8806 32.1602 23.7769 32.0565C23.6732 31.9527 23.5909 31.8296 23.5348 31.6941C23.4787 31.5586 23.4499 31.4133 23.45 31.2667V26.8C23.4499 26.6533 23.4787 26.5081 23.5348 26.3726C23.5909 26.2371 23.6732 26.1139 23.7769 26.0102C23.8806 25.9065 24.0037 25.8243 24.1392 25.7682C24.2748 25.7121 24.42 25.6832 24.5667 25.6833H49.1333C49.28 25.6832 49.4252 25.7121 49.5608 25.7682C49.6963 25.8243 49.8194 25.9065 49.9231 26.0102C50.0268 26.1139 50.1091 26.2371 50.1652 26.3726C50.2213 26.5081 50.2501 26.6533 50.25 26.8V28.4903C50.25 28.7864 50.1324 29.0705 49.9229 29.2799C49.7135 29.4893 49.4295 29.6069 49.1333 29.6069C48.8372 29.6069 48.5531 29.4893 48.3437 29.2799C48.1343 29.0705 48.0167 28.7864 48.0167 28.4903ZM33.5 55.8333H3.35C3.0539 55.8331 2.76999 55.7154 2.56062 55.506C2.35124 55.2967 2.23353 55.0128 2.23333 54.7167V43.55C2.23353 43.2539 2.35124 42.97 2.56062 42.7606C2.76999 42.5512 3.0539 42.4335 3.35 42.4333H32.3833C32.6795 42.4333 32.9635 42.3157 33.1729 42.1063C33.3824 41.8969 33.5 41.6128 33.5 41.3167C33.5 41.0205 33.3824 40.7365 33.1729 40.5271C32.9635 40.3176 32.6795 40.2 32.3833 40.2H5.58333V37.9667H32.3833C32.6795 37.9667 32.9635 37.849 33.1729 37.6396C33.3824 37.4302 33.5 37.1462 33.5 36.85C33.5 36.5538 33.3824 36.2698 33.1729 36.0604C32.9635 35.851 32.6795 35.7333 32.3833 35.7333H3.35C3.0539 35.7331 2.76999 35.6154 2.56062 35.406C2.35124 35.1967 2.23353 34.9128 2.23333 34.6167V23.45C2.23353 23.1539 2.35124 22.87 2.56062 22.6606C2.76999 22.4512 3.0539 22.3335 3.35 22.3333H52.4833C52.7794 22.3335 53.0633 22.4512 53.2727 22.6606C53.4821 22.87 53.5998 23.1539 53.6 23.45V29.0333C53.6 29.3295 53.7176 29.6135 53.9271 29.8229C54.1365 30.0324 54.4205 30.15 54.7167 30.15C55.0128 30.15 55.2969 30.0324 55.5063 29.8229C55.7157 29.6135 55.8333 29.3295 55.8333 29.0333V23.45C55.8324 22.5618 55.4791 21.7103 54.8511 21.0823C54.223 20.4542 53.3715 20.101 52.4833 20.1V17.8667C53.3715 17.8657 54.223 17.5124 54.8511 16.8844C55.4791 16.2564 55.8324 15.4048 55.8333 14.5167V3.35C55.8324 2.46182 55.4791 1.6103 54.8511 0.982263C54.223 0.354226 53.3715 0.000969485 52.4833 0H3.35C2.46182 0.000969485 1.6103 0.354226 0.982263 0.982263C0.354226 1.6103 0.000969485 2.46182 0 3.35V14.5167C0.000969485 15.4048 0.354226 16.2564 0.982263 16.8844C1.6103 17.5124 2.46182 17.8657 3.35 17.8667V20.1C2.46182 20.101 1.6103 20.4542 0.982263 21.0823C0.354226 21.7103 0.000969485 22.5618 0 23.45V34.6167C0.000969485 35.5048 0.354226 36.3564 0.982263 36.9844C1.6103 37.6124 2.46182 37.9657 3.35 37.9667V40.2C2.46182 40.201 1.6103 40.5542 0.982263 41.1823C0.354226 41.8103 0.000969485 42.6618 0 43.55V54.7167C0.000969485 55.6048 0.354226 56.4564 0.982263 57.0844C1.6103 57.7124 2.46182 58.0657 3.35 58.0667H33.5C33.7962 58.0667 34.0802 57.949 34.2896 57.7396C34.499 57.5302 34.6167 57.2462 34.6167 56.95C34.6167 56.6538 34.499 56.3698 34.2896 56.1604C34.0802 55.951 33.7962 55.8333 33.5 55.8333ZM2.23333 14.5167V3.35C2.23353 3.0539 2.35124 2.76999 2.56062 2.56062C2.76999 2.35124 3.0539 2.23353 3.35 2.23333H52.4833C52.7794 2.23353 53.0633 2.35124 53.2727 2.56062C53.4821 2.76999 53.5998 3.0539 53.6 3.35V14.5167C53.5998 14.8128 53.4821 15.0967 53.2727 15.3061C53.0633 15.5154 52.7794 15.6331 52.4833 15.6333H3.35C3.0539 15.6331 2.76999 15.5154 2.56062 15.3061C2.35124 15.0967 2.23353 14.8128 2.23333 14.5167ZM5.58333 17.8667H50.25V20.1H5.58333V17.8667ZM65.8833 35.7333C60.9537 35.6537 56.1476 34.1787 52.0221 31.4793C51.8311 31.3421 51.6018 31.2683 51.3667 31.2683C51.1315 31.2683 50.9023 31.3421 50.7113 31.4793C46.5857 34.1787 41.7796 35.6537 36.85 35.7333C36.7033 35.7332 36.5581 35.7621 36.4226 35.8182C36.2871 35.8743 36.1639 35.9565 36.0602 36.0602C35.9565 36.1639 35.8743 36.2871 35.8182 36.4226C35.7621 36.5581 35.7332 36.7033 35.7333 36.85V48.0167C35.7333 61.83 50.8694 66.8964 51.0221 66.9455C51.2461 67.0182 51.4873 67.0182 51.7113 66.9455C51.8639 66.8964 67 61.83 67 48.0167V36.85C67.0001 36.7033 66.9713 36.5581 66.9152 36.4226C66.8591 36.2871 66.7768 36.1639 66.6731 36.0602C66.5694 35.9565 66.4463 35.8743 66.3108 35.8182C66.1752 35.7621 66.03 35.7332 65.8833 35.7333ZM64.7667 48.0167C64.7667 59.0961 53.4997 63.8888 51.3667 64.6969C49.2337 63.8888 37.9667 59.0961 37.9667 48.0167V37.9416C42.7167 37.685 47.3254 36.235 51.3667 33.7257C55.408 36.235 60.0166 37.685 64.7667 37.9416V48.0167ZM49.1333 53.1376L58.3938 43.8771C58.6037 43.6699 58.887 43.5541 59.1819 43.5551C59.4768 43.556 59.7594 43.6736 59.9679 43.8821C60.1764 44.0906 60.294 44.3732 60.2949 44.6681C60.2958 44.963 60.18 45.2463 59.9728 45.4562L49.9228 55.5062C49.8192 55.6099 49.6961 55.6921 49.5606 55.7483C49.4251 55.8044 49.2799 55.8333 49.1333 55.8333C48.9867 55.8333 48.8415 55.8044 48.706 55.7483C48.5705 55.6921 48.4474 55.6099 48.3438 55.5062L42.7604 49.9228C42.5532 49.713 42.4375 49.4297 42.4384 49.1348C42.4393 48.8399 42.5569 48.5573 42.7654 48.3488C42.974 48.1402 43.2565 48.0227 43.5514 48.0218C43.8464 48.0208 44.1296 48.1366 44.3395 48.3438L49.1333 53.1376Z" fill="#104CBA"></path></svg>