<svg xmlns="http://www.w3.org/2000/svg" width="95" height="80" viewBox="0 0 95 80" fill="none"><g id="Vector"><path d="M53.4784 35.443C53.4784 31.9532 50.6391 29.114 47.1492 29.114C43.6592 29.114 40.8199 31.9532 40.8199 35.443C40.8199 38.3781 42.8283 40.8523 45.5427 41.5652L45.5748 48.2716C45.579 49.157 46.3004 49.8492 47.1875 49.8492H47.1954C48.0862 49.8492 48.8048 49.1534 48.8007 48.2653L48.7687 41.5614C51.4767 40.844 53.4784 38.3733 53.4784 35.443ZM47.1494 38.5562C45.4383 38.5562 44.0461 37.1596 44.0461 35.443C44.0461 33.7264 45.4381 32.3301 47.1494 32.3301C48.8604 32.3301 50.2526 33.7264 50.2526 35.443C50.2526 37.1596 48.8604 38.5562 47.1494 38.5562Z" fill="#104CBA"></path><path d="M88.3045 33.569C85.5251 33.569 83.1788 35.3769 82.4704 37.99H71.6134C72.2504 34.9749 72.7135 31.9598 73.0736 28.7437H80.9513C81.8421 28.7437 82.4633 28.0862 82.4633 27.1982V11.8414C85.0844 11.1393 86.9641 8.8002 86.9641 6.02895C86.9641 2.70452 84.2735 0 80.9348 0C77.5963 0 74.8426 2.70452 74.8426 6.02895C74.8426 8.79397 76.8179 11.1286 79.2373 11.8366V25.5276H73.4071C73.6415 23.1156 73.8284 20.5176 74.002 17.9566C74.0716 16.93 73.1439 16.1475 72.1447 16.3023C70.2293 16.6675 68.2925 16.9427 66.3386 16.9427C59.8484 16.9423 53.8848 14.0084 48.2041 8.06291C47.3964 7.37688 46.602 7.39156 45.8212 8.10694C39.7886 15.1624 31.4179 18.0955 22.2155 16.3017C21.2126 16.1061 20.2269 16.9298 20.2967 17.957C20.4735 20.5586 20.6596 23.1156 20.8868 25.5276H15.5249V11.8366C17.9443 11.1286 19.9406 8.79417 19.9406 6.02895C19.9406 2.70452 17.2161 0 13.8776 0C10.5392 0 7.83583 2.70452 7.83583 6.02895C7.83583 8.8004 9.67784 11.1393 12.2989 11.8414V27.198C12.2989 28.086 12.9869 28.7435 13.8776 28.7435H21.213C21.5695 31.9596 22.0242 34.9747 22.6514 37.9897H11.8888C11.1801 35.3767 8.83406 33.5688 6.0547 33.5688C2.71605 33.569 0 36.2738 0 39.5982C0 42.9224 2.71605 45.6269 6.0545 45.6269C8.83385 45.6269 11.1799 43.8191 11.8886 41.206H23.4206C24.2843 44.4291 25.5054 47.4187 26.8657 50.4523H13.8776C12.9869 50.4523 12.2989 51.11 12.2989 51.998V68.161C9.67784 68.8659 7.84046 71.2028 7.84046 73.9711C7.84046 77.2955 10.5478 80 13.8863 80C17.2249 80 19.9537 77.2955 19.9537 73.9711C19.9537 71.2028 18.146 68.8659 15.5249 68.161V53.6683H28.7121C32.843 60.1005 38.7483 64.6308 46.6083 67.553C46.9877 67.6663 47.3678 67.6673 47.7481 67.5558C55.5353 64.5855 61.3991 59.8995 65.5166 53.6683H79.2373V68.161C76.8179 68.8659 74.8462 71.2028 74.8462 73.9711C74.8462 77.2955 77.5875 80 80.9261 80C84.2648 80 86.9427 77.2955 86.9427 73.9711C86.9427 71.2028 85.0844 68.8659 82.4633 68.161V51.9982C82.4633 51.1102 81.8421 50.4525 80.9513 50.4525H67.3737C68.7603 47.4279 69.9781 44.4253 70.84 41.2062H82.4701C83.1788 43.8193 85.5249 45.6271 88.3043 45.6271C91.6429 45.6269 94.359 42.9224 94.359 39.598C94.359 36.2736 91.6429 33.569 88.3045 33.569ZM78.1316 6.02895C78.1316 4.47779 79.4005 3.21608 80.96 3.21608C82.5195 3.21608 83.7886 4.47779 83.7886 6.02895C83.7886 7.5801 82.5195 8.84181 80.96 8.84181C79.4005 8.84181 78.1316 7.5801 78.1316 6.02895ZM11.0404 6.02895C11.0404 4.47779 12.3094 3.21608 13.869 3.21608C15.4285 3.21608 16.6975 4.47779 16.6975 6.02895C16.6975 7.5801 15.4285 8.84181 13.869 8.84181C12.3094 8.84181 11.0404 7.5801 11.0404 6.02895ZM6.0545 42.4109C4.49496 42.4109 3.22595 41.1491 3.22595 39.5982C3.22595 38.047 4.49496 36.7853 6.0545 36.7853C7.61404 36.7853 8.88305 38.047 8.88305 39.5982C8.88325 41.1491 7.61425 42.4109 6.0545 42.4109ZM16.7062 73.9711C16.7062 75.5222 15.4372 76.7839 13.8776 76.7839C12.3181 76.7839 11.0493 75.5222 11.0493 73.9711C11.0493 72.4199 12.3181 71.1582 13.8776 71.1582C15.4372 71.1582 16.7062 72.4199 16.7062 73.9711ZM83.7799 73.9711C83.7799 75.5222 82.5109 76.7839 80.9513 76.7839C79.3918 76.7839 78.1228 75.5222 78.1228 73.9711C78.1228 72.4199 79.3918 71.1582 80.9513 71.1582C82.5109 71.1582 83.7799 72.4199 83.7799 73.9711ZM23.6575 19.7906C32.3605 20.9087 41.2524 18.2058 47.1109 11.5214C53.4513 17.6501 61.72 21.2617 70.6424 19.7783C69.1345 40.4434 66.0273 56.7986 47.1646 64.2915C28.2906 56.9749 25.1759 40.5612 23.6575 19.7906ZM88.3045 42.4109C86.7449 42.4109 85.4759 41.1491 85.4759 39.5982C85.4759 38.047 86.7449 36.7853 88.3045 36.7853C89.864 36.7853 91.133 38.047 91.133 39.5982C91.133 41.1491 89.864 42.4109 88.3045 42.4109Z" fill="#104CBA"></path></g></svg>