<svg xmlns="http://www.w3.org/2000/svg" width="59" height="60" viewBox="0 0 59 60" fill="none"><path d="M58.3141 23.8276C58.3202 23.7673 58.3211 23.7065 58.3174 23.6458C58.3386 23.2959 58.1959 22.9414 57.9014 22.7057L50.9303 17.1265V14.3728C50.9303 11.7843 48.8245 9.67852 46.2361 9.67852H41.6243L30.0549 0.419307C30.0545 0.418797 30.0542 0.418257 30.0539 0.417717C29.8286 0.136226 29.4947 -0.00618407 29.1601 0.000205944C28.8255 -0.00618407 28.4917 0.136196 28.2664 0.417717C28.266 0.418227 28.2657 0.418767 28.2653 0.419307L16.696 9.67852H12.0841C9.49571 9.67852 7.38991 11.7843 7.38991 14.3728V17.1266L0.418801 22.7057C0.12426 22.9414 -0.01836 23.2958 0.00285004 23.6457C-0.000869965 23.7065 -2.18279e-09 23.7672 0.00615001 23.8276C0.00219 23.866 0 23.9049 0 23.9443V54.7139C0 57.6287 2.50266 60 5.57881 60H52.7414C55.8175 60 58.3202 57.6286 58.3202 54.7139V23.9444C58.3202 23.9049 58.3181 23.866 58.3141 23.8276ZM50.9304 19.9864L55.5026 23.6457L50.9304 27.3051V19.9864ZM29.1601 2.56299L38.0508 9.67847H20.2695L29.1601 2.56299ZM9.62279 14.3727C9.62279 13.0156 10.727 11.9113 12.0841 11.9113H46.2361C47.5932 11.9113 48.6974 13.0156 48.6974 14.3727V17.6768C48.6974 17.6779 48.6974 17.679 48.6974 17.68V29.0921L29.1601 44.7286L9.62279 29.0922V14.3727ZM7.38991 19.9864V27.3051L2.81764 23.6457L7.38991 19.9864ZM2.2329 54.7139V26.0377L20.404 40.5807L2.55597 56.0216C2.34906 55.625 2.2329 55.1817 2.2329 54.7139ZM52.7414 57.7672H5.57884C5.10478 57.7672 4.65376 57.6762 4.24477 57.5133L22.1769 41.9995L28.2653 46.8724C28.2657 46.8728 28.266 46.8734 28.2664 46.8739C28.4869 47.1494 28.8113 47.2927 29.1388 47.2927C29.1459 47.2927 29.153 47.2919 29.1601 47.2918C29.1673 47.2919 29.1744 47.2927 29.1815 47.2927C29.509 47.2927 29.8334 47.1494 30.0539 46.8739C30.0543 46.8734 30.0546 46.8729 30.055 46.8724L36.1434 41.9995L54.0755 57.5133C53.6665 57.6762 53.2155 57.7672 52.7414 57.7672ZM56.0873 54.7139C56.0873 55.1817 55.9711 55.625 55.7642 56.0217L37.9162 40.5807L56.0873 26.0377V54.7139ZM17.6701 22.4752H40.768C41.3846 22.4752 41.8844 21.9753 41.8844 21.3587C41.8844 20.7421 41.3846 20.2423 40.768 20.2423H17.6701C17.0535 20.2423 16.5537 20.7421 16.5537 21.3587C16.5537 21.9753 17.0535 22.4752 17.6701 22.4752ZM41.8844 28.0759C41.8844 27.4593 41.3846 26.9595 40.768 26.9595H17.6701C17.0535 26.9595 16.5537 27.4593 16.5537 28.0759C16.5537 28.6925 17.0535 29.1924 17.6701 29.1924H40.768C41.3846 29.1924 41.8844 28.6925 41.8844 28.0759Z" fill="#104CBA"></path></svg>