<svg xmlns="http://www.w3.org/2000/svg" width="44" height="44" viewBox="0 0 44 44" fill="none"><g id="Vector"><path d="M18.3333 6.59025H19.8V8.05476H18.3333V6.59025Z" fill="#104CBA"></path><path d="M37.4 24.1643H38.8667V25.6288H37.4V24.1643Z" fill="#104CBA"></path><path d="M24.2 35.8803H25.6667V37.3448H24.2V35.8803Z" fill="#104CBA"></path><path d="M18.3333 38.077H19.8V39.5415H18.3333V38.077Z" fill="#104CBA"></path><path d="M6.6 21.2353H8.06667V22.6998H6.6V21.2353Z" fill="#104CBA"></path><path d="M24.2 6.59025H25.6667V8.05476H24.2V6.59025Z" fill="#104CBA"></path><path d="M35.9333 18.3063H37.4V19.7708H35.9333V18.3063Z" fill="#104CBA"></path><path d="M32.2667 10.9838H33.7333V12.4483H32.2667V10.9838Z" fill="#104CBA"></path><path d="M10.2667 10.9838H11.7333V12.4483H10.2667V10.9838Z" fill="#104CBA"></path><path d="M32.2667 31.4868H33.7333V32.9513H32.2667V31.4868Z" fill="#104CBA"></path><path d="M10.2667 31.4868H11.7333V32.9513H10.2667V31.4868Z" fill="#104CBA"></path><path d="M21.9135 21.2353C21.4006 21.2518 20.9097 21.4472 20.5261 21.7875C20.1425 22.1278 19.8903 22.5915 19.8135 23.0981C19.7366 23.6047 19.8399 24.1222 20.1053 24.5607C20.3708 24.9992 20.7817 25.331 21.2667 25.4984V27.0933H22.7333V25.4933C23.2302 25.3195 23.6479 24.9733 23.9104 24.5176C24.1729 24.062 24.2626 23.5273 24.1632 23.0111C24.0638 22.4949 23.7819 22.0315 23.369 21.7056C22.956 21.3796 22.4394 21.2127 21.9135 21.2353ZM22.7333 23.4035C22.7372 23.4996 22.722 23.5955 22.6887 23.6858C22.6554 23.776 22.6046 23.8589 22.5392 23.9295C22.4738 24.0002 22.3951 24.0573 22.3077 24.0975C22.2202 24.1378 22.1256 24.1605 22.0293 24.1643C21.9329 24.168 21.8367 24.1528 21.7463 24.1193C21.6558 24.0859 21.5728 24.035 21.5021 23.9695C21.3955 23.8712 21.3205 23.7436 21.2865 23.6028C21.2526 23.4619 21.2612 23.3142 21.3114 23.1782C21.3616 23.0423 21.451 22.9243 21.5683 22.8391C21.6857 22.754 21.8257 22.7055 21.9707 22.6998H22C22.1895 22.6996 22.3717 22.7727 22.5084 22.9038C22.6452 23.0348 22.7258 23.2144 22.7333 23.4035Z" fill="#104CBA"></path><path d="M25.6667 19.1732V18.3063C25.6667 17.3352 25.2804 16.404 24.5927 15.7174C23.9051 15.0307 22.9725 14.645 22 14.645C21.0275 14.645 20.0949 15.0307 19.4073 15.7174C18.7196 16.404 18.3333 17.3352 18.3333 18.3063V19.1732C17.9059 19.3242 17.5355 19.6032 17.273 19.9724C17.0105 20.3415 16.8685 20.7825 16.8667 21.2353V27.0933C16.8667 27.6759 17.0985 28.2346 17.511 28.6466C17.9236 29.0586 18.4832 29.29 19.0667 29.29H24.9333C25.5168 29.29 26.0764 29.0586 26.489 28.6466C26.9015 28.2346 27.1333 27.6759 27.1333 27.0933V21.2353C27.1315 20.7825 26.9895 20.3415 26.727 19.9724C26.4645 19.6032 26.0941 19.3242 25.6667 19.1732ZM19.8 18.3063C19.8 17.7236 20.0318 17.1649 20.4444 16.7529C20.8569 16.341 21.4165 16.1095 22 16.1095C22.5835 16.1095 23.1431 16.341 23.5556 16.7529C23.9682 17.1649 24.2 17.7236 24.2 18.3063V19.0385H19.8V18.3063ZM25.6667 27.0933C25.6667 27.2875 25.5894 27.4737 25.4519 27.611C25.3144 27.7484 25.1278 27.8255 24.9333 27.8255H19.0667C18.8722 27.8255 18.6856 27.7484 18.5481 27.611C18.4106 27.4737 18.3333 27.2875 18.3333 27.0933V21.2353C18.3333 21.0411 18.4106 20.8548 18.5481 20.7175C18.6856 20.5802 18.8722 20.503 19.0667 20.503H24.9333C25.1278 20.503 25.3144 20.5802 25.4519 20.7175C25.5894 20.8548 25.6667 21.0411 25.6667 21.2353V27.0933Z" fill="#104CBA"></path><path d="M41.8 28.5578C41.4733 28.559 41.1511 28.6341 40.8577 28.7774L39.171 27.0933H32.2667V25.6288H35.9333V24.1643H32.2667V22.6998H36.1064L40.2769 20.6172C40.6424 20.9668 41.1176 21.1796 41.6222 21.2195C42.1267 21.2594 42.6296 21.124 43.0457 20.8363C43.4618 20.5486 43.7655 20.1261 43.9055 19.6405C44.0455 19.1548 44.0132 18.6358 43.814 18.1712C43.6148 17.7066 43.261 17.325 42.8124 17.0909C42.3638 16.8569 41.848 16.7847 41.3523 16.8868C40.8566 16.9888 40.4114 17.2587 40.0921 17.6508C39.7728 18.0429 39.599 18.5331 39.6 19.0385C39.6034 19.1276 39.6125 19.2164 39.6271 19.3043L35.7603 21.2353H32.2667V19.7708H34.4667V18.3063H32.2667V16.8418H35.5036L37.9236 14.4253C38.2173 14.5688 38.5397 14.6439 38.8667 14.645C39.3018 14.645 39.7271 14.5162 40.0889 14.2748C40.4507 14.0334 40.7327 13.6903 40.8992 13.2889C41.0657 12.8875 41.1093 12.4458 41.0244 12.0197C40.9395 11.5936 40.73 11.2021 40.4223 10.8949C40.1146 10.5877 39.7226 10.3785 39.2959 10.2937C38.8691 10.209 38.4268 10.2525 38.0248 10.4187C37.6228 10.585 37.2792 10.8666 37.0374 11.2278C36.7957 11.5891 36.6667 12.0138 36.6667 12.4483C36.6679 12.7745 36.7431 13.0962 36.8867 13.3892L34.8964 15.3773H32.2667C32.2655 14.4066 31.8788 13.476 31.1914 12.7896C30.5041 12.1033 29.5721 11.7172 28.6 11.716V9.82241L32.791 5.63833C33.0845 5.78164 33.4066 5.85674 33.7333 5.858C34.1685 5.858 34.5938 5.72917 34.9556 5.48778C35.3174 5.2464 35.5994 4.90332 35.7659 4.50191C35.9324 4.10051 35.9759 3.65882 35.8911 3.23269C35.8062 2.80656 35.5966 2.41514 35.289 2.10792C34.9813 1.80069 34.5893 1.59147 34.1625 1.50671C33.7358 1.42195 33.2934 1.46545 32.8914 1.63172C32.4894 1.79799 32.1458 2.07955 31.9041 2.4408C31.6624 2.80206 31.5333 3.22678 31.5333 3.66125C31.5346 3.98746 31.6098 4.30915 31.7533 4.60219L27.1333 9.21537V11.716H25.6667V9.51926H24.2V11.716H22.7333V6.45552C23.2226 6.28279 23.635 5.94289 23.8976 5.49592C24.1602 5.04895 24.2561 4.52367 24.1683 4.01293C24.0806 3.50219 23.8148 3.03887 23.418 2.70486C23.0212 2.37085 22.519 2.18765 22 2.18765C21.481 2.18765 20.9788 2.37085 20.582 2.70486C20.1852 3.03887 19.9194 3.50219 19.8317 4.01293C19.7439 4.52367 19.8398 5.04895 20.1024 5.49592C20.365 5.94289 20.7774 6.28279 21.2667 6.45552V11.716H19.8V9.51926H18.3333V11.716H16.8667V6.2871L13.7133 3.13843C13.857 2.84516 13.9322 2.52321 13.9333 2.19675C13.9333 1.76228 13.8043 1.33756 13.5626 0.976303C13.3208 0.615049 12.9772 0.333486 12.5752 0.167219C12.1732 0.000951822 11.7309 -0.0425512 11.3041 0.0422109C10.8774 0.126973 10.4854 0.336193 10.1777 0.643415C9.87002 0.950636 9.66049 1.34206 9.57561 1.76819C9.49072 2.19432 9.53429 2.63601 9.7008 3.03741C9.86731 3.43882 10.1493 3.7819 10.5111 4.02328C10.8729 4.26467 11.2982 4.3935 11.7333 4.3935C12.06 4.39224 12.3822 4.31714 12.6757 4.17383L15.4 6.89341V11.716C14.4279 11.7172 13.4959 12.1033 12.8086 12.7896C12.1212 13.476 11.7345 14.4066 11.7333 15.3773H9.1036L7.11333 13.3892C7.25686 13.0962 7.33207 12.7745 7.33333 12.4483C7.33333 12.0138 7.20431 11.5891 6.96257 11.2278C6.72083 10.8666 6.37723 10.585 5.97524 10.4187C5.57324 10.2525 5.13089 10.209 4.70414 10.2937C4.27738 10.3785 3.88538 10.5877 3.5777 10.8949C3.27002 11.2021 3.06049 11.5936 2.97561 12.0197C2.89072 12.4458 2.93429 12.8875 3.1008 13.2889C3.26731 13.6903 3.54929 14.0334 3.91108 14.2748C4.27287 14.5162 4.69822 14.645 5.13333 14.645C5.46002 14.6437 5.78219 14.5686 6.07567 14.4253L8.49567 16.8418H11.7333V18.3063H7.06787L3.22667 21.5018C2.91187 21.3293 2.55906 21.2377 2.2 21.2353C1.76488 21.2353 1.33953 21.3641 0.977747 21.6055C0.615958 21.8469 0.333979 22.19 0.167466 22.5914C0.000953229 22.9928 -0.0426141 23.4344 0.0422734 23.8606C0.127161 24.2867 0.336691 24.6781 0.644366 24.9853C0.952042 25.2926 1.34404 25.5018 1.7708 25.5866C2.19756 25.6713 2.63991 25.6278 3.0419 25.4615C3.4439 25.2953 3.78749 25.0137 4.02923 24.6525C4.27097 24.2912 4.4 23.8665 4.4 23.432C4.4005 23.1381 4.34137 22.8472 4.2262 22.5767L7.5988 19.7708H11.7333V21.2353H9.53333V22.6998H11.7333V24.1643H5.13333V25.6288H11.7333V27.0933H7.67433L4.719 31.519C4.61361 31.5004 4.50698 31.4897 4.4 31.4868C3.88982 31.4821 3.39359 31.653 2.99477 31.9707C2.59595 32.2884 2.31886 32.7336 2.21011 33.2313C2.10137 33.7291 2.1676 34.249 2.39766 34.7037C2.62772 35.1585 3.00758 35.5202 3.47335 35.7281C3.93913 35.936 4.4624 35.9775 4.95517 35.8454C5.44793 35.7134 5.88013 35.4159 6.17907 35.0031C6.47801 34.5902 6.62545 34.0872 6.5966 33.5786C6.56775 33.0699 6.36437 32.5867 6.02067 32.2102L8.459 28.5578H11.7333C11.7345 29.5284 12.1212 30.459 12.8086 31.1454C13.4959 31.8317 14.4279 32.2179 15.4 32.219V37.0416L12.6757 39.7612C12.3822 39.6179 12.06 39.5428 11.7333 39.5415C11.2982 39.5415 10.8729 39.6704 10.5111 39.9117C10.1493 40.1531 9.86731 40.4962 9.7008 40.8976C9.53429 41.299 9.49072 41.7407 9.57561 42.1668C9.66049 42.593 9.87002 42.9844 10.1777 43.2916C10.4854 43.5988 10.8774 43.8081 11.3041 43.8928C11.7309 43.9776 12.1732 43.9341 12.5752 43.7678C12.9772 43.6015 13.3208 43.32 13.5626 42.9587C13.8043 42.5975 13.9333 42.1727 13.9333 41.7383C13.9321 41.4121 13.8569 41.0904 13.7133 40.7973L16.8667 37.6487V32.219H18.3333V36.6125H19.8V32.219H21.2667V38.4827L25.7209 41.2652C25.6012 41.7783 25.6673 42.317 25.9076 42.786C26.1478 43.255 26.5466 43.6239 27.0332 43.8272C27.5199 44.0306 28.0629 44.0552 28.5661 43.8969C29.0692 43.7385 29.4999 43.4073 29.7818 42.9621C30.0637 42.5168 30.1786 41.9863 30.106 41.4645C30.0335 40.9428 29.7782 40.4635 29.3855 40.1118C28.9928 39.76 28.488 39.5585 27.9607 39.543C27.4334 39.5275 26.9176 39.699 26.5049 40.027L22.7333 37.6714V32.219H24.2V34.4158H25.6667V32.219H27.1333V38.077H32.4016C32.5746 38.5656 32.915 38.9774 33.3626 39.2396C33.8103 39.5018 34.3363 39.5975 34.8478 39.5099C35.3593 39.4223 35.8233 39.1569 36.1578 38.7607C36.4923 38.3645 36.6758 37.863 36.6758 37.3448C36.6758 36.8266 36.4923 36.325 36.1578 35.9288C35.8233 35.5326 35.3593 35.2673 34.8478 35.1797C34.3363 35.092 33.8103 35.1878 33.3626 35.45C32.915 35.7122 32.5746 36.124 32.4016 36.6125H28.6V32.219C29.5721 32.2179 30.5041 31.8317 31.1914 31.1454C31.8788 30.459 32.2655 29.5284 32.2667 28.5578H38.5631L39.82 29.8136C39.6765 30.1066 39.6013 30.4283 39.6 30.7545C39.6 31.189 39.729 31.6137 39.9708 31.975C40.2125 32.3362 40.5561 32.6178 40.9581 32.784C41.3601 32.9503 41.8024 32.9938 42.2292 32.9091C42.656 32.8243 43.048 32.6151 43.3556 32.3079C43.6633 32.0006 43.8728 31.6092 43.9577 31.1831C44.0426 30.757 43.999 30.3153 43.8325 29.9139C43.666 29.5125 43.384 29.1694 43.0223 28.928C42.6605 28.6866 42.2351 28.5578 41.8 28.5578ZM41.8 18.3063C41.945 18.3063 42.0868 18.3492 42.2074 18.4297C42.328 18.5101 42.422 18.6245 42.4775 18.7583C42.533 18.8921 42.5475 19.0393 42.5192 19.1814C42.4909 19.3234 42.4211 19.4539 42.3185 19.5563C42.216 19.6587 42.0853 19.7284 41.9431 19.7567C41.8008 19.7849 41.6534 19.7704 41.5194 19.715C41.3854 19.6596 41.2708 19.5657 41.1903 19.4453C41.1097 19.3249 41.0667 19.1833 41.0667 19.0385C41.0667 18.8443 41.1439 18.6581 41.2815 18.5207C41.419 18.3834 41.6055 18.3063 41.8 18.3063ZM38.8667 11.716C39.0117 11.716 39.1535 11.759 39.2741 11.8394C39.3947 11.9199 39.4887 12.0342 39.5442 12.168C39.5997 12.3018 39.6142 12.4491 39.5859 12.5911C39.5576 12.7332 39.4878 12.8636 39.3852 12.966C39.2827 13.0684 39.152 13.1382 39.0097 13.1664C38.8675 13.1947 38.72 13.1802 38.586 13.1248C38.452 13.0693 38.3375 12.9755 38.2569 12.8551C38.1763 12.7347 38.1333 12.5931 38.1333 12.4483C38.1333 12.2541 38.2106 12.0678 38.3481 11.9305C38.4856 11.7932 38.6722 11.716 38.8667 11.716ZM33.7333 2.929C33.8784 2.929 34.0202 2.97195 34.1408 3.05241C34.2613 3.13287 34.3553 3.24723 34.4108 3.38103C34.4664 3.51483 34.4809 3.66207 34.4526 3.80411C34.4243 3.94615 34.3544 4.07662 34.2519 4.17903C34.1493 4.28144 34.0187 4.35118 33.8764 4.37943C33.7341 4.40769 33.5867 4.39319 33.4527 4.33776C33.3187 4.28234 33.2042 4.18849 33.1236 4.06807C33.043 3.94765 33 3.80608 33 3.66125C33 3.46705 33.0773 3.2808 33.2148 3.14347C33.3523 3.00615 33.5388 2.929 33.7333 2.929ZM22 3.66125C22.145 3.66125 22.2868 3.7042 22.4074 3.78466C22.528 3.86512 22.622 3.97948 22.6775 4.11328C22.733 4.24708 22.7475 4.39432 22.7192 4.53636C22.6909 4.6784 22.6211 4.80888 22.5185 4.91128C22.416 5.01369 22.2853 5.08343 22.1431 5.11168C22.0008 5.13994 21.8534 5.12544 21.7194 5.07001C21.5854 5.01459 21.4708 4.92074 21.3903 4.80032C21.3097 4.6799 21.2667 4.53833 21.2667 4.3935C21.2667 4.1993 21.3439 4.01305 21.4815 3.87572C21.619 3.7384 21.8055 3.66125 22 3.66125ZM11 2.19675C11 2.05193 11.043 1.91035 11.1236 1.78994C11.2042 1.66952 11.3187 1.57566 11.4527 1.52024C11.5867 1.46482 11.7341 1.45032 11.8764 1.47857C12.0187 1.50683 12.1493 1.57657 12.2519 1.67897C12.3544 1.78138 12.4243 1.91185 12.4526 2.0539C12.4809 2.19594 12.4664 2.34317 12.4108 2.47697C12.3553 2.61077 12.2613 2.72514 12.1408 2.8056C12.0202 2.88606 11.8784 2.929 11.7333 2.929C11.5388 2.929 11.3523 2.85185 11.2148 2.71453C11.0773 2.57721 11 2.39096 11 2.19675ZM4.4 12.4483C4.4 12.3034 4.44301 12.1619 4.52359 12.0414C4.60417 11.921 4.7187 11.8272 4.8527 11.7717C4.9867 11.7163 5.13415 11.7018 5.2764 11.7301C5.41865 11.7583 5.54932 11.8281 5.65188 11.9305C5.75444 12.0329 5.82428 12.1634 5.85258 12.3054C5.88087 12.4474 5.86635 12.5947 5.81085 12.7285C5.75534 12.8623 5.66135 12.9766 5.54075 13.0571C5.42016 13.1376 5.27837 13.1805 5.13333 13.1805C4.93884 13.1805 4.75232 13.1034 4.61479 12.966C4.47726 12.8287 4.4 12.6425 4.4 12.4483ZM2.2 24.1643C2.05496 24.1643 1.91318 24.1213 1.79258 24.0409C1.67199 23.9604 1.57799 23.846 1.52249 23.7122C1.46699 23.5784 1.45246 23.4312 1.48076 23.2892C1.50905 23.1471 1.5789 23.0166 1.68146 22.9142C1.78401 22.8118 1.91468 22.7421 2.05693 22.7138C2.19919 22.6856 2.34664 22.7001 2.48064 22.7555C2.61463 22.8109 2.72917 22.9048 2.80975 23.0252C2.89033 23.1456 2.93333 23.2872 2.93333 23.432C2.93333 23.6262 2.85607 23.8125 2.71855 23.9498C2.58102 24.0871 2.39449 24.1643 2.2 24.1643ZM4.4 34.4158C4.25496 34.4158 4.11318 34.3728 3.99258 34.2924C3.87199 34.2119 3.77799 34.0975 3.72249 33.9637C3.66699 33.8299 3.65246 33.6827 3.68076 33.5407C3.70905 33.3986 3.7789 33.2681 3.88146 33.1657C3.98401 33.0633 4.11468 32.9936 4.25694 32.9653C4.39919 32.9371 4.54664 32.9516 4.68064 33.007C4.81464 33.0624 4.92917 33.1563 5.00975 33.2767C5.09033 33.3971 5.13333 33.5387 5.13333 33.6835C5.13333 33.8777 5.05607 34.064 4.91855 34.2013C4.78102 34.3386 4.59449 34.4158 4.4 34.4158ZM11.7333 42.4705C11.5883 42.4705 11.4465 42.4276 11.3259 42.3471C11.2053 42.2667 11.1113 42.1523 11.0558 42.0185C11.0003 41.8847 10.9858 41.7375 11.0141 41.5954C11.0424 41.4534 11.1122 41.3229 11.2148 41.2205C11.3173 41.1181 11.448 41.0483 11.5903 41.0201C11.7325 40.9918 11.88 41.0063 12.014 41.0618C12.148 41.1172 12.2625 41.211 12.3431 41.3315C12.4237 41.4519 12.4667 41.5934 12.4667 41.7383C12.4667 41.9325 12.3894 42.1187 12.2519 42.2561C12.1144 42.3934 11.9278 42.4705 11.7333 42.4705ZM27.8667 41.006C28.0117 41.006 28.1535 41.049 28.2741 41.1294C28.3947 41.2099 28.4887 41.3243 28.5442 41.4581C28.5997 41.5919 28.6142 41.7391 28.5859 41.8811C28.5576 42.0232 28.4878 42.1536 28.3852 42.2561C28.2827 42.3585 28.152 42.4282 28.0097 42.4565C27.8675 42.4847 27.72 42.4702 27.586 42.4148C27.452 42.3594 27.3375 42.2655 27.2569 42.1451C27.1763 42.0247 27.1333 41.8831 27.1333 41.7383C27.1333 41.5441 27.2106 41.3578 27.3481 41.2205C27.4856 41.0832 27.6722 41.006 27.8667 41.006ZM34.4667 36.6125C34.6117 36.6125 34.7535 36.6555 34.8741 36.7359C34.9947 36.8164 35.0887 36.9307 35.1442 37.0645C35.1997 37.1984 35.2142 37.3456 35.1859 37.4876C35.1576 37.6297 35.0878 37.7601 34.9852 37.8625C34.8827 37.965 34.752 38.0347 34.6097 38.063C34.4675 38.0912 34.32 38.0767 34.186 38.0213C34.052 37.9659 33.9375 37.872 33.8569 37.7516C33.7763 37.6312 33.7333 37.4896 33.7333 37.3448C33.7333 37.1506 33.8106 36.9643 33.9481 36.827C34.0856 36.6897 34.2722 36.6125 34.4667 36.6125ZM30.8 28.5578C30.8 29.1404 30.5682 29.6991 30.1556 30.1111C29.7431 30.5231 29.1835 30.7545 28.6 30.7545H15.4C14.8165 30.7545 14.2569 30.5231 13.8444 30.1111C13.4318 29.6991 13.2 29.1404 13.2 28.5578V15.3773C13.2 14.7946 13.4318 14.2359 13.8444 13.8239C14.2569 13.412 14.8165 13.1805 15.4 13.1805H28.6C29.1835 13.1805 29.7431 13.412 30.1556 13.8239C30.5682 14.2359 30.8 14.7946 30.8 15.3773V28.5578ZM41.8 31.4868C41.655 31.4868 41.5132 31.4438 41.3926 31.3634C41.272 31.2829 41.178 31.1685 41.1225 31.0347C41.067 30.9009 41.0525 30.7537 41.0808 30.6117C41.1091 30.4696 41.1789 30.3391 41.2815 30.2367C41.384 30.1343 41.5147 30.0646 41.6569 30.0363C41.7992 30.0081 41.9466 30.0226 42.0806 30.078C42.2146 30.1334 42.3292 30.2273 42.4097 30.3477C42.4903 30.4681 42.5333 30.6097 42.5333 30.7545C42.5333 30.9487 42.4561 31.135 42.3185 31.2723C42.181 31.4096 41.9945 31.4868 41.8 31.4868Z" fill="#104CBA"></path></g></svg>