<svg xmlns="http://www.w3.org/2000/svg" width="80" height="80" viewBox="0 0 80 80" fill="none"><path d="M10.6667 14.6667C11.4578 14.6667 12.2312 14.4321 12.8889 13.9925C13.5467 13.553 14.0594 12.9283 14.3622 12.1974C14.6649 11.4665 14.7441 10.6622 14.5898 9.88631C14.4355 9.11038 14.0545 8.39765 13.4951 7.83824C12.9357 7.27883 12.223 6.89787 11.447 6.74353C10.6711 6.58919 9.86684 6.6684 9.13593 6.97115C8.40503 7.2739 7.78031 7.78659 7.34079 8.44439C6.90126 9.10218 6.66667 9.87554 6.66667 10.6667C6.66782 11.7272 7.08962 12.7439 7.83952 13.4938C8.58941 14.2437 9.60616 14.6655 10.6667 14.6667ZM10.6667 9.33333C10.9304 9.33333 11.1882 9.41153 11.4074 9.55804C11.6267 9.70455 11.7976 9.91279 11.8985 10.1564C11.9994 10.4001 12.0258 10.6681 11.9744 10.9268C11.9229 11.1854 11.7959 11.423 11.6095 11.6095C11.423 11.7959 11.1854 11.9229 10.9268 11.9744C10.6681 12.0258 10.4001 11.9994 10.1564 11.8985C9.91279 11.7976 9.70455 11.6267 9.55804 11.4074C9.41153 11.1882 9.33333 10.9304 9.33333 10.6667C9.33357 10.3131 9.47412 9.97412 9.72412 9.72412C9.97412 9.47412 10.3131 9.33357 10.6667 9.33333ZM21.3333 14.6667C22.1245 14.6667 22.8978 14.4321 23.5556 13.9925C24.2134 13.553 24.7261 12.9283 25.0289 12.1974C25.3316 11.4665 25.4108 10.6622 25.2565 9.88631C25.1021 9.11038 24.7212 8.39765 24.1618 7.83824C23.6024 7.27883 22.8896 6.89787 22.1137 6.74353C21.3378 6.58919 20.5335 6.6684 19.8026 6.97115C19.0717 7.2739 18.447 7.78659 18.0075 8.44439C17.5679 9.10218 17.3333 9.87554 17.3333 10.6667C17.3345 11.7272 17.7563 12.7439 18.5062 13.4938C19.2561 14.2437 20.2728 14.6655 21.3333 14.6667ZM21.3333 9.33333C21.597 9.33333 21.8548 9.41153 22.0741 9.55804C22.2934 9.70455 22.4643 9.91279 22.5652 10.1564C22.6661 10.4001 22.6925 10.6681 22.641 10.9268C22.5896 11.1854 22.4626 11.423 22.2761 11.6095C22.0897 11.7959 21.8521 11.9229 21.5935 11.9744C21.3348 12.0258 21.0667 11.9994 20.8231 11.8985C20.5795 11.7976 20.3712 11.6267 20.2247 11.4074C20.0782 11.1882 20 10.9304 20 10.6667C20.0002 10.3131 20.1408 9.97412 20.3908 9.72412C20.6408 9.47412 20.9798 9.33357 21.3333 9.33333ZM6.66667 34.6667C6.66667 35.4578 6.90126 36.2312 7.34079 36.8889C7.78031 37.5467 8.40503 38.0594 9.13593 38.3622C9.86684 38.6649 10.6711 38.7442 11.447 38.5898C12.223 38.4355 12.9357 38.0545 13.4951 37.4951C14.0545 36.9357 14.4355 36.223 14.5898 35.447C14.7441 34.6711 14.6649 33.8668 14.3622 33.1359C14.0594 32.405 13.5467 31.7803 12.8889 31.3408C12.2312 30.9013 11.4578 30.6667 10.6667 30.6667C9.60616 30.6678 8.58941 31.0896 7.83952 31.8395C7.08962 32.5894 6.66782 33.6062 6.66667 34.6667ZM12 34.6667C12 34.9304 11.9218 35.1882 11.7753 35.4074C11.6288 35.6267 11.4205 35.7976 11.1769 35.8985C10.9333 35.9994 10.6652 36.0258 10.4065 35.9744C10.1479 35.9229 9.91033 35.7959 9.72386 35.6095C9.53739 35.423 9.4104 35.1854 9.35895 34.9268C9.30751 34.6681 9.33391 34.4001 9.43483 34.1564C9.53574 33.9128 9.70664 33.7045 9.92591 33.558C10.1452 33.4115 10.403 33.3333 10.6667 33.3333C11.0202 33.3336 11.3592 33.4741 11.6092 33.7241C11.8592 33.9741 11.9998 34.3131 12 34.6667ZM6.66667 58.6667C6.66667 59.4578 6.90126 60.2312 7.34079 60.8889C7.78031 61.5467 8.40503 62.0594 9.13593 62.3622C9.86684 62.6649 10.6711 62.7442 11.447 62.5898C12.223 62.4355 12.9357 62.0545 13.4951 61.4951C14.0545 60.9357 14.4355 60.223 14.5898 59.447C14.7441 58.6711 14.6649 57.8668 14.3622 57.1359C14.0594 56.405 13.5467 55.7803 12.8889 55.3408C12.2312 54.9013 11.4578 54.6667 10.6667 54.6667C9.60616 54.6678 8.58941 55.0896 7.83952 55.8395C7.08962 56.5894 6.66782 57.6062 6.66667 58.6667ZM12 58.6667C12 58.9304 11.9218 59.1882 11.7753 59.4074C11.6288 59.6267 11.4205 59.7976 11.1769 59.8985C10.9333 59.9994 10.6652 60.0258 10.4065 59.9744C10.1479 59.9229 9.91033 59.7959 9.72386 59.6095C9.53739 59.423 9.4104 59.1854 9.35895 58.9268C9.30751 58.6681 9.33391 58.4001 9.43483 58.1564C9.53574 57.9128 9.70664 57.7045 9.92591 57.558C10.1452 57.4115 10.403 57.3333 10.6667 57.3333C11.0202 57.3336 11.3592 57.4741 11.6092 57.7241C11.8592 57.9741 11.9998 58.3131 12 58.6667ZM29.3333 14.6667H58.6667C58.8418 14.6668 59.0152 14.6323 59.177 14.5654C59.3388 14.4984 59.4859 14.4002 59.6097 14.2764C59.7335 14.1525 59.8317 14.0055 59.8987 13.8437C59.9657 13.6819 60.0001 13.5085 60 13.3333V8C60.0001 7.82488 59.9657 7.65145 59.8987 7.48964C59.8317 7.32783 59.7335 7.1808 59.6097 7.05697C59.4859 6.93314 59.3388 6.83493 59.177 6.76796C59.0152 6.70099 58.8418 6.66657 58.6667 6.66667H29.3333C29.1582 6.66657 28.9848 6.70099 28.823 6.76796C28.6612 6.83493 28.5141 6.93314 28.3903 7.05697C28.2665 7.1808 28.1683 7.32783 28.1013 7.48964C28.0343 7.65145 27.9999 7.82488 28 8V13.3333C27.9999 13.5085 28.0343 13.6819 28.1013 13.8437C28.1683 14.0055 28.2665 14.1525 28.3903 14.2764C28.5141 14.4002 28.6612 14.4984 28.823 14.5654C28.9848 14.6323 29.1582 14.6668 29.3333 14.6667ZM30.6667 9.33333H57.3333V12H30.6667V9.33333ZM17.3333 34.6667C17.3333 35.4578 17.5679 36.2312 18.0075 36.8889C18.447 37.5467 19.0717 38.0594 19.8026 38.3622C20.5335 38.6649 21.3378 38.7442 22.1137 38.5898C22.8896 38.4355 23.6024 38.0545 24.1618 37.4951C24.7212 36.9357 25.1021 36.223 25.2565 35.447C25.4108 34.6711 25.3316 33.8668 25.0289 33.1359C24.7261 32.405 24.2134 31.7803 23.5556 31.3408C22.8978 30.9013 22.1245 30.6667 21.3333 30.6667C20.2728 30.6678 19.2561 31.0896 18.5062 31.8395C17.7563 32.5894 17.3345 33.6062 17.3333 34.6667ZM22.6667 34.6667C22.6667 34.9304 22.5885 35.1882 22.442 35.4074C22.2955 35.6267 22.0872 35.7976 21.8436 35.8985C21.5999 35.9994 21.3319 36.0258 21.0732 35.9744C20.8146 35.9229 20.577 35.7959 20.3905 35.6095C20.2041 35.423 20.0771 35.1854 20.0256 34.9268C19.9742 34.6681 20.0006 34.4001 20.1015 34.1564C20.2024 33.9128 20.3733 33.7045 20.5926 33.558C20.8118 33.4115 21.0696 33.3333 21.3333 33.3333C21.6869 33.3336 22.0259 33.4741 22.2759 33.7241C22.5259 33.9741 22.6664 34.3131 22.6667 34.6667ZM17.3333 58.6667C17.3333 59.4578 17.5679 60.2312 18.0075 60.8889C18.447 61.5467 19.0717 62.0594 19.8026 62.3622C20.5335 62.6649 21.3378 62.7442 22.1137 62.5898C22.8896 62.4355 23.6024 62.0545 24.1618 61.4951C24.7212 60.9357 25.1021 60.223 25.2565 59.447C25.4108 58.6711 25.3316 57.8668 25.0289 57.1359C24.7261 56.405 24.2134 55.7803 23.5556 55.3408C22.8978 54.9013 22.1245 54.6667 21.3333 54.6667C20.2728 54.6678 19.2561 55.0896 18.5062 55.8395C17.7563 56.5894 17.3345 57.6062 17.3333 58.6667ZM22.6667 58.6667C22.6667 58.9304 22.5885 59.1882 22.442 59.4074C22.2955 59.6267 22.0872 59.7976 21.8436 59.8985C21.5999 59.9994 21.3319 60.0258 21.0732 59.9744C20.8146 59.9229 20.577 59.7959 20.3905 59.6095C20.2041 59.423 20.0771 59.1854 20.0256 58.9268C19.9742 58.6681 20.0006 58.4001 20.1015 58.1564C20.2024 57.9128 20.3733 57.7045 20.5926 57.558C20.8118 57.4115 21.0696 57.3333 21.3333 57.3333C21.6869 57.3336 22.0259 57.4741 22.2759 57.7241C22.5259 57.9741 22.6664 58.3131 22.6667 58.6667ZM30.6667 57.3333V60H38.6667C39.0203 60 39.3594 60.1405 39.6095 60.3905C39.8595 60.6406 40 60.9797 40 61.3333C40 61.687 39.8595 62.0261 39.6095 62.2761C39.3594 62.5262 39.0203 62.6667 38.6667 62.6667H29.3333C29.1582 62.6668 28.9848 62.6323 28.823 62.5654C28.6612 62.4984 28.5141 62.4002 28.3903 62.2764C28.2665 62.1525 28.1683 62.0055 28.1013 61.8437C28.0343 61.6819 27.9999 61.5085 28 61.3333V56C27.9999 55.8249 28.0343 55.6515 28.1013 55.4896C28.1683 55.3278 28.2665 55.1808 28.3903 55.057C28.5141 54.9331 28.6612 54.8349 28.823 54.768C28.9848 54.701 29.1582 54.6666 29.3333 54.6667H38.6667C39.0203 54.6667 39.3594 54.8071 39.6095 55.0572C39.8595 55.3072 40 55.6464 40 56C40 56.3536 39.8595 56.6928 39.6095 56.9428C39.3594 57.1929 39.0203 57.3333 38.6667 57.3333H30.6667ZM57.3333 34.0182V33.3333H30.6667V36H52C52.3536 36 52.6928 36.1405 52.9428 36.3905C53.1929 36.6406 53.3333 36.9797 53.3333 37.3333C53.3333 37.687 53.1929 38.0261 52.9428 38.2761C52.6928 38.5262 52.3536 38.6667 52 38.6667H29.3333C29.1582 38.6668 28.9848 38.6323 28.823 38.5654C28.6612 38.4984 28.5141 38.4002 28.3903 38.2764C28.2665 38.1525 28.1683 38.0055 28.1013 37.8437C28.0343 37.6819 27.9999 37.5085 28 37.3333V32C27.9999 31.8249 28.0343 31.6515 28.1013 31.4896C28.1683 31.3278 28.2665 31.1808 28.3903 31.057C28.5141 30.9331 28.6612 30.8349 28.823 30.768C28.9848 30.701 29.1582 30.6666 29.3333 30.6667H58.6667C58.8418 30.6666 59.0152 30.701 59.177 30.768C59.3388 30.8349 59.4859 30.9331 59.6097 31.057C59.7335 31.1808 59.8317 31.3278 59.8987 31.4896C59.9657 31.6515 60.0001 31.8249 60 32V34.0182C60 34.3718 59.8595 34.711 59.6095 34.961C59.3594 35.2111 59.0203 35.3516 58.6667 35.3516C58.313 35.3516 57.9739 35.2111 57.7239 34.961C57.4738 34.711 57.3333 34.3718 57.3333 34.0182ZM40 66.6667H4C3.64645 66.6664 3.30745 66.5259 3.05745 66.2759C2.80746 66.0259 2.6669 65.6869 2.66667 65.3333V52C2.6669 51.6465 2.80746 51.3075 3.05745 51.0575C3.30745 50.8075 3.64645 50.6669 4 50.6667H38.6667C39.0203 50.6667 39.3594 50.5262 39.6095 50.2761C39.8595 50.0261 40 49.687 40 49.3333C40 48.9797 39.8595 48.6406 39.6095 48.3905C39.3594 48.1405 39.0203 48 38.6667 48H6.66667V45.3333H38.6667C39.0203 45.3333 39.3594 45.1929 39.6095 44.9428C39.8595 44.6928 40 44.3536 40 44C40 43.6464 39.8595 43.3072 39.6095 43.0572C39.3594 42.8071 39.0203 42.6667 38.6667 42.6667H4C3.64645 42.6664 3.30745 42.5259 3.05745 42.2759C2.80746 42.0259 2.6669 41.6869 2.66667 41.3333V28C2.6669 27.6465 2.80746 27.3074 3.05745 27.0575C3.30745 26.8075 3.64645 26.6669 4 26.6667H62.6667C63.0202 26.6669 63.3592 26.8075 63.6092 27.0575C63.8592 27.3074 63.9998 27.6465 64 28V34.6667C64 35.0203 64.1405 35.3594 64.3905 35.6095C64.6406 35.8595 64.9797 36 65.3333 36C65.687 36 66.0261 35.8595 66.2761 35.6095C66.5262 35.3594 66.6667 35.0203 66.6667 34.6667V28C66.6655 26.9395 66.2437 25.9227 65.4938 25.1729C64.7439 24.423 63.7272 24.0012 62.6667 24V21.3333C63.7272 21.3322 64.7439 20.9104 65.4938 20.1605C66.2437 19.4106 66.6655 18.3938 66.6667 17.3333V4C66.6655 2.93949 66.2437 1.92275 65.4938 1.17285C64.7439 0.422957 63.7272 0.00115759 62.6667 0H4C2.93949 0.00115759 1.92275 0.422957 1.17285 1.17285C0.422957 1.92275 0.00115759 2.93949 0 4V17.3333C0.00115759 18.3938 0.422957 19.4106 1.17285 20.1605C1.92275 20.9104 2.93949 21.3322 4 21.3333V24C2.93949 24.0012 1.92275 24.423 1.17285 25.1729C0.422957 25.9227 0.00115759 26.9395 0 28V41.3333C0.00115759 42.3938 0.422957 43.4106 1.17285 44.1605C1.92275 44.9104 2.93949 45.3322 4 45.3333V48C2.93949 48.0012 1.92275 48.423 1.17285 49.1729C0.422957 49.9227 0.00115759 50.9395 0 52V65.3333C0.00115759 66.3938 0.422957 67.4106 1.17285 68.1605C1.92275 68.9104 2.93949 69.3322 4 69.3333H40C40.3536 69.3333 40.6928 69.1929 40.9428 68.9428C41.1929 68.6928 41.3333 68.3536 41.3333 68C41.3333 67.6464 41.1929 67.3072 40.9428 67.0572C40.6928 66.8071 40.3536 66.6667 40 66.6667ZM2.66667 17.3333V4C2.6669 3.64645 2.80746 3.30745 3.05745 3.05745C3.30745 2.80746 3.64645 2.6669 4 2.66667H62.6667C63.0202 2.6669 63.3592 2.80746 63.6092 3.05745C63.8592 3.30745 63.9998 3.64645 64 4V17.3333C63.9998 17.6869 63.8592 18.0259 63.6092 18.2759C63.3592 18.5259 63.0202 18.6664 62.6667 18.6667H4C3.64645 18.6664 3.30745 18.5259 3.05745 18.2759C2.80746 18.0259 2.6669 17.6869 2.66667 17.3333ZM6.66667 21.3333H60V24H6.66667V21.3333ZM78.6667 42.6667C72.7806 42.5716 67.0419 40.8104 62.1159 37.5872C61.8878 37.4234 61.6141 37.3353 61.3333 37.3353C61.0525 37.3353 60.7788 37.4234 60.5508 37.5872C55.6247 40.8104 49.8861 42.5716 44 42.6667C43.8249 42.6666 43.6515 42.701 43.4896 42.768C43.3278 42.8349 43.1808 42.9331 43.057 43.057C42.9331 43.1808 42.8349 43.3278 42.768 43.4896C42.701 43.6515 42.6666 43.8249 42.6667 44V57.3333C42.6667 73.8268 60.7396 79.8763 60.9219 79.9349C61.1893 80.0217 61.4774 80.0217 61.7448 79.9349C61.9271 79.8763 80 73.8268 80 57.3333V44C80.0001 43.8249 79.9657 43.6515 79.8987 43.4896C79.8317 43.3278 79.7335 43.1808 79.6097 43.057C79.4859 42.9331 79.3388 42.8349 79.177 42.768C79.0152 42.701 78.8418 42.6666 78.6667 42.6667ZM77.3333 57.3333C77.3333 70.5625 63.8802 76.2852 61.3333 77.25C58.7865 76.2852 45.3333 70.5625 45.3333 57.3333V45.3034C51.005 44.997 56.5079 43.2657 61.3333 40.2695C66.1588 43.2657 71.6617 44.997 77.3333 45.3034V57.3333ZM58.6667 63.4479L69.724 52.3906C69.9746 52.1432 70.3128 52.0049 70.665 52.0061C71.0171 52.0072 71.3545 52.1475 71.6035 52.3965C71.8524 52.6455 71.9928 52.9829 71.9939 53.3351C71.995 53.6872 71.8568 54.0255 71.6093 54.276L59.6093 66.276C59.4856 66.3998 59.3386 66.4981 59.1768 66.5651C59.0151 66.6321 58.8417 66.6666 58.6666 66.6666C58.4915 66.6666 58.3182 66.6321 58.1564 66.5651C57.9947 66.4981 57.8477 66.3998 57.7239 66.276L51.0573 59.6093C50.8098 59.3588 50.6716 59.0205 50.6727 58.6684C50.6738 58.3162 50.8142 57.9789 51.0632 57.7299C51.3122 57.4809 51.6496 57.3405 52.0017 57.3394C52.3539 57.3383 52.6921 57.4766 52.9427 57.724L58.6667 63.4479Z" fill="#104CBA"></path></svg>