<svg xmlns="http://www.w3.org/2000/svg" width="67" height="68" viewBox="0 0 67 68" fill="none"><g clip-path="url(#clip0_916_25)"><path d="M66.4029 48.5039C65.8071 47.4669 64.8276 46.7098 63.6789 46.3984C62.5301 46.0868 61.3057 46.2463 60.2734 46.8419L49.3278 53.2073C48.7301 52.3053 47.8292 51.6509 46.7907 51.3644L30.0413 46.8532C28.7523 46.5029 27.3956 46.4912 26.1009 46.8193L20.2071 48.3004V46.3557C20.2071 46.0559 20.0889 45.7683 19.8783 45.5562C19.6678 45.3442 19.3823 45.2251 19.0845 45.2251H10.1036C9.80587 45.2251 9.52028 45.3442 9.30973 45.5562C9.09919 45.7683 8.98093 46.0559 8.98093 46.3557V47.4863H1.12262C0.824881 47.4863 0.539339 47.6054 0.328808 47.8175C0.118275 48.0296 0 48.3171 0 48.617V64.4457C0 64.7455 0.118275 65.0331 0.328808 65.2452C0.539339 65.4573 0.824881 65.5764 1.12262 65.5764H8.98093V66.707C8.98093 67.0068 9.09919 67.2944 9.30973 67.5065C9.52028 67.7185 9.80587 67.8376 10.1036 67.8376H19.0845C19.3823 67.8376 19.6678 67.7185 19.8783 67.5065C20.0889 67.2944 20.2071 67.0068 20.2071 66.707V65.1467L21.6553 65.8703C22.7471 66.4176 23.9496 66.704 25.1691 66.707H41.9747C43.3549 66.71 44.7109 66.3432 45.9039 65.6442L64.7639 54.6771C65.7912 54.0747 66.5401 53.0875 66.8472 51.9309C67.1544 50.7743 66.9946 49.5423 66.4029 48.5039ZM8.98093 63.3151H2.24524V49.7476H8.98093V63.3151ZM17.9619 65.5764H11.2262V47.4863H17.9619V65.5764ZM63.6412 52.7211L44.7813 63.6882C43.9284 64.1853 42.9601 64.4466 41.9747 64.4457H25.1691C24.2958 64.4475 23.4343 64.2422 22.6545 63.8465L20.2071 62.6141V50.6295L26.6397 49.0127C27.5654 48.777 28.5357 48.7848 29.4575 49.0353L46.207 53.5578C46.6379 53.6705 47.0256 53.9102 47.3203 54.2462C47.6151 54.5823 47.8035 54.9993 47.8614 55.4439C47.9193 55.8885 47.844 56.3403 47.6453 56.7416C47.4466 57.1428 47.1333 57.4751 46.7458 57.6959C46.4928 57.8462 46.2123 57.9437 45.9211 57.9826C45.6298 58.0214 45.3339 58.0008 45.0507 57.922L31.6578 54.304C31.3691 54.226 31.0613 54.2668 30.8023 54.4174C30.5434 54.5679 30.3544 54.8159 30.277 55.1068C30.1996 55.3976 30.2401 55.7076 30.3896 55.9684C30.539 56.2292 30.7852 56.4195 31.0741 56.4974L44.4669 60.1041C44.8477 60.2074 45.2402 60.2606 45.6345 60.2624C46.4199 60.2636 47.1913 60.0527 47.8685 59.6519C48.3815 59.3567 48.8314 58.9619 49.1917 58.4903C49.5521 58.0186 49.8158 57.4796 49.9678 56.9045C50.0923 56.4061 50.134 55.8902 50.0912 55.3781L61.396 48.8092C61.9119 48.5208 62.5188 48.4457 63.0885 48.5997C63.6584 48.7537 64.1464 49.1248 64.4496 49.6345C64.7477 50.152 64.83 50.7675 64.6785 51.346C64.527 51.9245 64.154 52.4191 63.6412 52.7211Z" fill="#104CBA"></path><path d="M14.594 64.4456C14.8918 64.4456 15.1773 64.3265 15.3879 64.1144C15.5984 63.9024 15.7167 63.6148 15.7167 63.315V62.1843C15.7167 61.8845 15.5984 61.5969 15.3879 61.3849C15.1773 61.1728 14.8918 61.0537 14.594 61.0537C14.2963 61.0537 14.0108 61.1728 13.8002 61.3849C13.5897 61.5969 13.4714 61.8845 13.4714 62.1843V63.315C13.4714 63.6148 13.5897 63.9024 13.8002 64.1144C14.0108 64.3265 14.2963 64.4456 14.594 64.4456Z" fill="#104CBA"></path><path d="M49.3953 16.9593H45.1855L44.9834 16.4845L47.9696 13.4883C48.1799 13.2748 48.298 12.9863 48.298 12.6856C48.298 12.3848 48.1799 12.0963 47.9696 11.8828L43.2096 7.08898C42.9977 6.87716 42.7112 6.75829 42.4126 6.75829C42.114 6.75829 41.8275 6.87716 41.6155 7.08898L38.6406 10.0964L38.1691 9.89293V5.65309C38.1691 5.35323 38.0508 5.06565 37.8403 4.85362C37.6298 4.64158 37.3442 4.52246 37.0465 4.52246H30.3108C30.0131 4.52246 29.7275 4.64158 29.5169 4.85362C29.3065 5.06565 29.1881 5.35323 29.1881 5.65309V9.89293L28.7167 10.0964L25.7417 7.08898C25.5298 6.87716 25.2432 6.75829 24.9447 6.75829C24.646 6.75829 24.3596 6.87716 24.1476 7.08898L19.3877 11.8828C19.1774 12.0963 19.0593 12.3848 19.0593 12.6856C19.0593 12.9863 19.1774 13.2748 19.3877 13.4883L22.3739 16.4845L22.1718 16.9593H17.9619C17.6642 16.9593 17.3787 17.0784 17.1682 17.2905C16.9576 17.5025 16.8394 17.7901 16.8394 18.09V24.8737C16.8394 25.1735 16.9576 25.4611 17.1682 25.6732C17.3787 25.8852 17.6642 26.0043 17.9619 26.0043H22.1718L22.3739 26.4792L19.3877 29.4754C19.1809 29.6909 19.0643 29.9784 19.0622 30.2781C19.0665 30.5774 19.1828 30.864 19.3877 31.0808L24.1476 35.8747C24.3617 36.083 24.647 36.2003 24.9447 36.2026C25.2418 36.1982 25.5265 36.0811 25.7417 35.8747L28.7167 32.8672L29.1881 33.0707V37.3106C29.1881 37.6104 29.3065 37.898 29.5169 38.1101C29.7275 38.3221 30.0131 38.4412 30.3108 38.4412H37.0465C37.3442 38.4412 37.6298 38.3221 37.8403 38.1101C38.0508 37.898 38.1691 37.6104 38.1691 37.3106V33.0707L38.6406 32.8672L41.6155 35.8747C41.8326 36.0764 42.1172 36.1884 42.4126 36.1884C42.708 36.1884 42.9926 36.0764 43.2096 35.8747L47.9696 31.0808C48.1745 30.864 48.2907 30.5774 48.2951 30.2781C48.2929 29.9784 48.1763 29.6909 47.9696 29.4754L44.9834 26.4792L45.1855 26.0043H49.3953C49.6931 26.0043 49.9786 25.8852 50.1891 25.6732C50.3997 25.4611 50.5179 25.1735 50.5179 24.8737V18.09C50.5179 17.7901 50.3997 17.5025 50.1891 17.2905C49.9786 17.0784 49.6931 16.9593 49.3953 16.9593ZM48.2727 23.7431H44.3884C44.1517 23.7433 43.9211 23.8188 43.7296 23.9589C43.538 24.099 43.3953 24.2965 43.3219 24.5232C43.1483 25.0913 42.9189 25.6404 42.6371 26.1626C42.5227 26.3782 42.4795 26.6248 42.5138 26.8668C42.5481 27.1088 42.6581 27.3335 42.828 27.5081L45.5896 30.2781L42.4126 33.4778L39.6622 30.6964C39.4888 30.5254 39.2658 30.4145 39.0255 30.38C38.7852 30.3454 38.5403 30.389 38.3263 30.5042C37.8078 30.7881 37.2625 31.0191 36.6985 31.1939C36.4734 31.2679 36.2773 31.4115 36.1382 31.6044C35.9991 31.7973 35.9241 32.0296 35.9239 32.268V36.18H31.4334V32.268C31.4332 32.0296 31.3583 31.7973 31.2191 31.6044C31.08 31.4115 30.8839 31.2679 30.6588 31.1939C30.0948 31.0191 29.5495 30.7881 29.031 30.5042C28.8169 30.389 28.5721 30.3454 28.3318 30.38C28.0915 30.4145 27.8685 30.5254 27.6951 30.6964L24.9447 33.4778L21.7676 30.2781L24.5293 27.5081C24.6991 27.3335 24.8092 27.1088 24.8435 26.8668C24.8778 26.6248 24.8346 26.3782 24.7201 26.1626C24.4383 25.6404 24.2089 25.0913 24.0353 24.5232C23.962 24.2965 23.8193 24.099 23.6277 23.9589C23.4362 23.8188 23.2056 23.7433 22.9689 23.7431H19.0846V19.2206H22.9689C23.2056 19.2204 23.4362 19.1449 23.6277 19.0048C23.8193 18.8647 23.962 18.6672 24.0353 18.4405C24.2089 17.8724 24.4383 17.3232 24.7201 16.801C24.8346 16.5855 24.8778 16.3388 24.8435 16.0969C24.8092 15.8548 24.6991 15.6302 24.5293 15.4556L21.7676 12.6856L24.9447 9.4859L27.6951 12.2672C27.8685 12.4383 28.0915 12.5491 28.3318 12.5836C28.5721 12.6182 28.8169 12.5747 29.031 12.4594C29.5495 12.1756 30.0948 11.9446 30.6588 11.7698C30.8839 11.6958 31.08 11.5522 31.2191 11.3593C31.3583 11.1663 31.4332 10.9341 31.4334 10.6957V6.78371H35.9239V10.6957C35.9241 10.9341 35.9991 11.1663 36.1382 11.3593C36.2773 11.5522 36.4734 11.6958 36.6985 11.7698C37.2625 11.9446 37.8078 12.1756 38.3263 12.4594C38.5403 12.5747 38.7852 12.6182 39.0255 12.5836C39.2658 12.5491 39.4888 12.4383 39.6622 12.2672L42.4126 9.4859L45.5896 12.6856L42.828 15.4556C42.6581 15.6302 42.5481 15.8548 42.5138 16.0969C42.4795 16.3388 42.5227 16.5855 42.6371 16.801C42.9189 17.3232 43.1483 17.8724 43.3219 18.4405C43.3953 18.6672 43.538 18.8647 43.7296 19.0048C43.9211 19.1449 44.1517 19.2204 44.3884 19.2206H48.2727V23.7431Z" fill="#104CBA"></path><path d="M40.4143 21.482C40.4143 20.1403 40.0193 18.8287 39.2791 17.7132C38.539 16.5975 37.487 15.728 36.2562 15.2147C35.0254 14.7012 33.6711 14.5669 32.3645 14.8286C31.0579 15.0904 29.8577 15.7364 28.9157 16.6851C27.9737 17.6339 27.3322 18.8426 27.0723 20.1586C26.8124 21.4745 26.9457 22.8385 27.4556 24.078C27.9654 25.3176 28.8287 26.3771 29.9365 27.1225C31.0441 27.8679 32.3464 28.2658 33.6786 28.2658C35.4645 28.264 37.1767 27.5487 38.4395 26.2769C39.7023 25.005 40.4125 23.2806 40.4143 21.482ZM29.1881 21.482C29.1881 20.5876 29.4515 19.7131 29.9449 18.9694C30.4383 18.2257 31.1396 17.6461 31.9602 17.3038C32.7807 16.9614 33.6836 16.8719 34.5546 17.0464C35.4257 17.2209 36.2258 17.6516 36.8538 18.2841C37.4818 18.9166 37.9095 19.7224 38.0827 20.5997C38.256 21.477 38.1671 22.3863 37.8272 23.2127C37.4874 24.0391 36.9118 24.7454 36.1733 25.2423C35.4349 25.7393 34.5667 26.0045 33.6786 26.0045C32.4877 26.0045 31.3455 25.5281 30.5034 24.6799C29.6612 23.8318 29.1881 22.6815 29.1881 21.482Z" fill="#104CBA"></path><path d="M59.4987 23.7431H57.2535C57.2535 17.446 54.7697 11.4069 50.3485 6.9542C45.9274 2.5015 39.9309 0 33.6785 0C27.4261 0 21.4296 2.5015 17.0085 6.9542C12.5873 11.4069 10.1035 17.446 10.1035 23.7431H7.85827C6.07185 23.7431 4.35859 24.4578 3.09541 25.73C1.83221 27.0023 1.12256 28.7277 1.12256 30.5269C1.12256 32.3261 1.83221 34.0515 3.09541 35.3237C4.35859 36.5959 6.07185 37.3106 7.85827 37.3106H13.4714C13.7691 37.3106 14.0546 37.1915 14.2652 36.9795C14.4757 36.7674 14.594 36.4798 14.594 36.18V24.8738C14.594 24.5739 14.4757 24.2863 14.2652 24.0743C14.0546 23.8622 13.7691 23.7431 13.4714 23.7431H12.3487C12.3487 18.0458 14.596 12.5818 18.5961 8.55314C22.5962 4.52451 28.0215 2.26125 33.6785 2.26125C39.3355 2.26125 44.7608 4.52451 48.761 8.55314C52.761 12.5818 55.0083 18.0458 55.0083 23.7431H53.8856C53.5879 23.7431 53.3024 23.8622 53.0918 24.0743C52.8813 24.2863 52.763 24.5739 52.763 24.8738V36.18C52.763 36.4798 52.8813 36.7674 53.0918 36.9795C53.3024 37.1915 53.5879 37.3106 53.8856 37.3106H55.0083V40.7025C55.0083 41.0023 54.8899 41.2899 54.6795 41.502C54.4689 41.714 54.1833 41.8331 53.8856 41.8331H45.8253C45.5922 41.1743 45.1633 40.6037 44.5968 40.1991C44.0304 39.7945 43.3539 39.5755 42.6594 39.5719H40.4142C39.521 39.5719 38.6644 39.9292 38.0327 40.5653C37.4012 41.2014 37.0463 42.0642 37.0463 42.9638C37.0463 43.8633 37.4012 44.7261 38.0327 45.3622C38.6644 45.9983 39.521 46.3556 40.4142 46.3556H42.6594C43.3539 46.352 44.0304 46.133 44.5968 45.7284C45.1633 45.3238 45.5922 44.7532 45.8253 44.0944H53.8856C54.7781 44.0917 55.6331 43.7335 56.2641 43.0979C56.8952 42.4624 57.2509 41.6012 57.2535 40.7025V37.3106H59.4987C61.2852 37.3106 62.9984 36.5959 64.2616 35.3237C65.5248 34.0515 66.2345 32.3261 66.2345 30.5269C66.2345 28.7277 65.5248 27.0023 64.2616 25.73C62.9984 24.4578 61.2852 23.7431 59.4987 23.7431ZM7.85827 35.0494C6.66732 35.0494 5.52515 34.5729 4.68302 33.7248C3.8409 32.8766 3.3678 31.7263 3.3678 30.5269C3.3678 29.3274 3.8409 28.1771 4.68302 27.329C5.52515 26.4808 6.66732 26.0044 7.85827 26.0044V35.0494ZM12.3487 35.0494H10.1035V26.0044H12.3487V35.0494ZM42.6594 44.0944H40.4142C40.1164 44.0944 39.8309 43.9753 39.6204 43.7632C39.4098 43.5512 39.2916 43.2636 39.2916 42.9638C39.2916 42.6639 39.4098 42.3763 39.6204 42.1643C39.8309 41.9522 40.1164 41.8331 40.4142 41.8331H42.6594C42.9572 41.8331 43.2427 41.9522 43.4533 42.1643C43.6638 42.3763 43.7821 42.6639 43.7821 42.9638C43.7821 43.2636 43.6638 43.5512 43.4533 43.7632C43.2427 43.9753 42.9572 44.0944 42.6594 44.0944ZM57.2535 35.0494H55.0083V26.0044H57.2535V35.0494ZM59.4987 35.0494V26.0044C60.6897 26.0044 61.8318 26.4808 62.674 27.329C63.5161 28.1771 63.9892 29.3274 63.9892 30.5269C63.9892 31.7263 63.5161 32.8766 62.674 33.7248C61.8318 34.5729 60.6897 35.0494 59.4987 35.0494Z" fill="#104CBA"></path></g><defs><clipPath id="clip0_916_25"><rect width="67" height="67.8375" fill="white"></rect></clipPath></defs></svg>