<svg xmlns="http://www.w3.org/2000/svg" width="81" height="80" viewBox="0 0 81 80" fill="none"><g id="Vector"><path d="M59.2899 46.0043C54.0947 46.0043 49.4453 49.2952 47.7205 54.1932C47.2605 55.4997 47.0274 56.8701 47.0274 58.2668C47.0274 65.0285 52.5285 70.5292 59.2899 70.5292C66.0514 70.5292 71.5524 65.0283 71.5524 58.2668C71.5524 51.5054 66.0516 46.0043 59.2899 46.0043ZM59.2899 68.1646C53.8322 68.1646 49.392 63.7244 49.392 58.2668C49.392 57.1384 49.5801 56.0321 49.951 54.9787C51.343 51.0252 55.0962 48.3689 59.2899 48.3689C64.7475 48.3689 69.1877 52.8091 69.1877 58.2668C69.1877 63.7244 64.7475 68.1646 59.2899 68.1646Z" fill="#104CBA"></path><path d="M79.5957 73.5222L73.4387 67.214C75.0769 64.6242 76.0267 61.5573 76.0267 58.2722C76.0267 56.6106 75.7834 54.9836 75.3154 53.4278L77.7365 53.1374C78.2568 53.075 78.6741 52.6773 78.7611 52.16L80.6644 40.8681C80.7508 40.3562 80.4932 39.8478 80.0294 39.6148L73.8173 36.4934C73.6414 34.6603 73.3118 32.8313 72.8344 31.0397L77.6293 25.9248C77.9855 25.5448 78.0511 24.976 77.7907 24.5246L72.0927 14.6505C71.8323 14.1991 71.3073 13.9713 70.8 14.0904L63.9363 15.6965C63.2463 15.0175 62.5189 14.3617 61.7714 13.7447C61.1209 13.2073 60.4404 12.6874 59.7486 12.1989C59.7248 12.182 59.7007 12.1651 59.6769 12.1483L60.0636 5.14769C60.0925 4.62731 59.7772 4.14949 59.2879 3.9712L48.5792 0.0714329C48.0897 -0.106861 47.5414 0.0564568 47.229 0.473737L43.0034 6.11845C41.1637 5.97011 39.3038 5.97594 37.4573 6.13484L33.2595 0.528124C32.9472 0.111001 32.3994 -0.0526319 31.9093 0.12582L21.2004 4.02543C20.7111 4.20372 20.396 4.68154 20.4247 5.20191L20.8137 12.2441C19.3081 13.3148 17.8868 14.5148 16.5754 15.8225L9.75779 14.2273C9.2505 14.1079 8.72555 14.336 8.46512 14.7874L2.76697 24.6613C2.50654 25.1127 2.57212 25.6813 2.92839 26.0615L7.75573 31.2111C7.28926 33.0016 6.97004 34.8327 6.80357 36.6715L0.650142 39.7733C0.187934 40.0064 -0.0691816 40.5134 0.0162608 41.0242L1.90246 52.3137C1.989 52.8316 2.40644 53.2304 2.92745 53.2929L9.93356 54.1333C10.7268 55.8068 11.659 57.4157 12.713 58.931L9.95894 65.3703C9.75416 65.8494 9.88674 66.4064 10.2857 66.7412L19.0157 74.0702C19.415 74.4055 19.9861 74.4395 20.4218 74.1542L26.3323 70.2899C28.0164 71.0603 29.7626 71.6926 31.5386 72.1748L33.5677 78.8838C33.7185 79.3826 34.1781 79.7239 34.6989 79.7239H46.0951C46.6159 79.7239 47.0754 79.3827 47.2263 78.8838L49.2703 72.126C49.4029 72.0892 49.534 72.0484 49.6665 72.0101C52.3874 73.9191 55.6982 75.0412 59.2664 75.0412C62.521 75.0412 65.5611 74.1074 68.1352 72.4948L74.2546 78.8795C75.6583 80.3653 78.2048 80.3756 79.617 78.8977C81.0883 77.4805 81.076 74.9288 79.5957 73.5222ZM44.8695 58.2723C44.8695 56.6305 45.1432 55.0205 45.6828 53.4872C47.7076 47.7339 53.1663 43.8687 59.2664 43.8687C62.1516 43.8687 64.9346 44.719 67.315 46.3279C67.8557 46.6935 68.5907 46.5511 68.9559 46.0099C69.3212 45.4689 69.179 44.7338 68.6381 44.3682C67.1586 43.3683 65.5452 42.6227 63.8522 42.142C63.9338 41.3409 63.9776 40.5322 63.9776 39.7258C63.9776 26.7294 53.4094 16.156 40.4193 16.156C37.6955 16.156 35.0255 16.6173 32.4834 17.5272C31.8689 17.7471 31.5489 18.4239 31.7688 19.0388C31.9887 19.6538 32.6652 19.974 33.2797 19.7539C35.5655 18.9357 37.9676 18.521 40.4194 18.521C52.1061 18.521 61.614 28.0336 61.614 39.726C61.614 40.3704 61.5814 41.0161 61.5235 41.6576C60.7798 41.5573 60.0264 41.504 59.2664 41.504C57.489 41.504 55.7582 41.7861 54.1254 42.3138C54.2844 41.4657 54.3653 40.6012 54.3653 39.726C54.3653 32.0325 48.1093 25.7733 40.4194 25.7733C32.7296 25.7733 26.4736 32.0325 26.4736 39.726C26.4736 42.7139 27.404 45.5633 29.1644 47.9661C29.5524 48.4963 30.2952 48.6044 30.8162 48.2207C31.3425 47.8348 31.4567 47.0948 31.0708 46.5681C29.6096 44.5735 28.8373 42.2076 28.8373 39.726C28.8373 33.3364 34.033 28.1381 40.4194 28.1381C46.8059 28.1381 52.0016 33.3364 52.0016 39.726C52.0016 41.0166 51.7904 42.2784 51.3772 43.4842C48.3996 45.0756 45.9248 47.5506 44.3479 50.6282C43.0913 51.0818 41.7723 51.3138 40.4196 51.3138C38.4633 51.3138 36.5302 50.8171 34.8298 49.8777C34.2583 49.5619 33.5393 49.7692 33.2239 50.3412C32.9084 50.9128 33.1157 51.6323 33.687 51.9479C35.7365 53.0802 38.0646 53.6788 40.4196 53.6788C41.3713 53.6788 42.3093 53.5813 43.2274 53.3934C42.7488 54.9697 42.506 56.6075 42.506 58.2726C42.506 59.1346 42.5716 59.9816 42.6975 60.809C41.9424 60.8895 41.1804 60.9308 40.4196 60.9308C28.7329 60.9308 19.225 51.4182 19.225 39.7258C19.225 32.6486 22.7354 26.0637 28.6155 22.1111C29.1573 21.7468 29.3014 21.0124 28.9374 20.4702C28.5732 19.9283 27.8389 19.784 27.2973 20.1482C20.7627 24.5407 16.8613 31.8594 16.8613 39.7258C16.8613 52.7222 27.4295 63.2956 40.4196 63.2956C41.3563 63.2956 42.2956 63.2392 43.2238 63.1293C44.0531 65.8663 45.5644 68.3091 47.5592 70.2596C47.3923 70.4037 47.2648 70.5924 47.1987 70.8106L45.2183 77.3589H35.5765L33.6094 70.8554C33.489 70.457 33.168 70.1515 32.7646 70.0506C30.7039 69.5356 28.6804 68.8032 26.7504 67.8737C26.3776 67.6943 25.9381 67.7228 25.5913 67.9494L19.8633 71.6943L12.4773 65.4936L15.147 59.2514C15.3106 58.8687 15.2611 58.4281 15.0164 58.0913C13.7649 56.3677 12.6852 54.5042 11.8075 52.5527C11.6374 52.1745 11.2817 51.9132 10.8703 51.8638L4.08786 51.0502L2.49125 41.4933L8.46039 38.4845C8.83243 38.2968 9.07835 37.9271 9.10751 37.5111C9.25649 35.3845 9.62616 33.2626 10.2066 31.2048C10.3193 30.8058 10.2148 30.3771 9.93136 30.0746L5.25252 25.0838L10.0735 16.7297L16.6837 18.2763C17.0893 18.3717 17.5148 18.2456 17.804 17.9453C19.2874 16.4048 20.9332 15.015 22.6954 13.815C23.0379 13.5817 23.2334 13.186 23.2104 12.7722L22.8333 5.94725L31.8937 2.64795L35.9635 8.08394C36.2132 8.41735 36.6199 8.59517 37.0344 8.55088C39.1634 8.32419 41.3169 8.31788 43.4352 8.5318C43.8469 8.5731 44.2513 8.39591 44.4997 8.06423L48.5953 2.59387L57.6555 5.89333L57.2804 12.6814C57.2574 13.0979 57.4553 13.4957 57.8013 13.7282C59.5738 14.9204 61.2286 16.2976 62.719 17.8244C63.0079 18.1203 63.4306 18.2437 63.8333 18.1494L70.4844 16.593L75.3053 24.9471L70.6563 29.9066C70.3712 30.2107 70.2674 30.6423 70.3826 31.043C70.9763 33.1039 71.3582 35.2232 71.5179 37.3423C71.5491 37.7564 71.7951 38.1237 72.166 38.31L78.1887 41.3361L76.5775 50.8946L74.4433 51.1507C74.0123 50.2341 73.4981 49.3516 72.8986 48.5146C72.5182 47.9836 71.7798 47.8622 71.2493 48.2421C70.7188 48.6225 70.597 49.3613 70.9771 49.8922C72.7343 52.3453 73.663 55.2431 73.663 58.272C73.663 66.2144 67.2047 72.6758 59.2663 72.6758C51.3279 72.6758 44.8695 66.2145 44.8695 58.2723ZM72.0172 69.1426L73.4246 70.5845L71.4189 72.504L70.0619 71.088C70.7654 70.4939 71.4196 69.8431 72.0172 69.1426ZM77.9425 77.2281C77.4183 77.776 76.4791 77.7757 75.9508 77.2325L73.0548 74.2109L75.0761 72.2767L77.9119 75.1822C78.487 75.7081 78.5047 76.6873 77.9425 77.2281Z" fill="#104CBA"></path></g></svg>