<svg xmlns="http://www.w3.org/2000/svg" width="60" height="60" viewBox="0 0 60 60" fill="none"><g id="Vector"><path d="M59.0319 0H35.8062C35.2711 0 34.8385 0.433546 34.8385 0.967736V31.9353C34.8385 32.4695 35.2711 32.903 35.8062 32.903H59.0319C59.5671 32.903 59.9997 32.4695 59.9997 31.9353V0.967736C59.9997 0.433546 59.5671 0 59.0319 0ZM58.0642 30.9676H36.774V1.93547H58.0642V30.9676Z" fill="#104CBA"></path><path d="M57.0964 35.8062H31.9353C30.3347 35.8062 29.0321 37.1088 29.0321 38.7095V57.0964C29.0321 58.6971 30.3347 59.9997 31.9353 59.9997H57.0964C58.6971 59.9997 59.9997 58.6971 59.9997 57.0964V38.7095C59.9997 37.1088 58.6971 35.8062 57.0964 35.8062ZM58.0642 57.0964C58.0642 57.6297 57.6306 58.0642 57.0964 58.0642H31.9353C31.4011 58.0642 30.9676 57.6297 30.9676 57.0964V38.7095C30.9676 38.1762 31.4011 37.7417 31.9353 37.7417H57.0964C57.6306 37.7417 58.0642 38.1762 58.0642 38.7095V57.0964Z" fill="#104CBA"></path><path d="M54.1932 53.2255H52.2578C52.2578 52.6913 51.8252 52.2578 51.29 52.2578C50.7549 52.2578 50.3223 52.6913 50.3223 53.2255H34.8385C33.5572 53.2255 33.5582 55.161 34.8385 55.161H50.3223C50.3223 55.6952 50.7549 56.1287 51.29 56.1287C51.8252 56.1287 52.2578 55.6952 52.2578 55.161H54.1932C55.4745 55.161 55.4736 53.2255 54.1932 53.2255Z" fill="#104CBA"></path><path d="M30.9676 29.0321V5.80642C30.9676 4.20578 29.665 2.90321 28.0644 2.90321H2.90321C1.30257 2.90321 0 4.20578 0 5.80642V29.0321C0 30.6327 1.30257 31.9353 2.90321 31.9353H28.0644C29.665 31.9353 30.9676 30.6327 30.9676 29.0321ZM29.0321 29.0321C29.0321 29.5653 28.5985 29.9998 28.0644 29.9998H2.90321C2.36902 29.9998 1.93547 29.5653 1.93547 29.0321V5.80642C1.93547 5.2732 2.36902 4.83868 2.90321 4.83868H28.0644C28.5985 4.83868 29.0321 5.2732 29.0321 5.80642V29.0321Z" fill="#104CBA"></path><path d="M19.3547 15.4838C21.4896 15.4838 23.2257 13.7477 23.2257 11.6128C23.2257 9.47801 21.4896 7.74189 19.3547 7.74189C17.2199 7.74189 15.4838 9.47801 15.4838 11.6128C15.4838 13.7477 17.2199 15.4838 19.3547 15.4838ZM19.3547 9.67736C20.4221 9.67736 21.2902 10.5454 21.2902 11.6128C21.2902 12.6802 20.4221 13.5483 19.3547 13.5483C18.2873 13.5483 17.4193 12.6802 17.4193 11.6128C17.4193 10.5454 18.2873 9.67736 19.3547 9.67736Z" fill="#104CBA"></path><path d="M22.9421 18.6705C22.5637 18.2922 21.9521 18.2922 21.5737 18.6705L18.387 21.8573L12.297 15.7673C11.9186 15.3889 11.307 15.3889 10.9286 15.7673L4.15449 22.5415C3.24869 23.4473 4.61804 24.8147 5.52287 23.9099L11.6128 17.8199L17.7028 23.9099C18.0812 24.2882 18.6928 24.2882 19.0712 23.9099L22.2579 20.7231L25.4447 23.9099C26.3369 24.8021 27.7305 23.4579 26.8131 22.5415L22.9421 18.6705Z" fill="#104CBA"></path><path d="M40.6449 6.77415H50.3223C51.6036 6.77415 51.6026 4.83868 50.3223 4.83868H40.6449C39.3636 4.83868 39.3646 6.77415 40.6449 6.77415Z" fill="#104CBA"></path><path d="M40.6449 15.4838H54.1932C55.4745 15.4838 55.4736 13.5483 54.1932 13.5483H40.6449C39.3636 13.5483 39.3646 15.4838 40.6449 15.4838Z" fill="#104CBA"></path><path d="M40.6449 24.1934H54.1932C55.4745 24.1934 55.4736 22.2579 54.1932 22.2579H40.6449C39.3636 22.2579 39.3646 24.1934 40.6449 24.1934Z" fill="#104CBA"></path><path d="M40.6449 28.0644H45.4836C46.7649 28.0644 46.7639 26.1289 45.4836 26.1289H40.6449C39.3636 26.1289 39.3646 28.0644 40.6449 28.0644Z" fill="#104CBA"></path><path d="M40.6449 11.6128H42.5804C43.8617 11.6128 43.8607 9.67736 42.5804 9.67736H40.6449C39.3636 9.67736 39.3646 11.6128 40.6449 11.6128Z" fill="#104CBA"></path><path d="M47.4191 11.6128H54.1932C55.4745 11.6128 55.4736 9.67736 54.1932 9.67736H47.4191C46.1378 9.67736 46.1388 11.6128 47.4191 11.6128Z" fill="#104CBA"></path><path d="M40.6449 20.3225H47.4191C48.7004 20.3225 48.6994 18.387 47.4191 18.387H40.6449C39.3636 18.387 39.3646 20.3225 40.6449 20.3225Z" fill="#104CBA"></path><path d="M54.1932 18.387H52.2578C50.9765 18.387 50.9774 20.3225 52.2578 20.3225H54.1932C55.4745 20.3225 55.4736 18.387 54.1932 18.387Z" fill="#104CBA"></path><path d="M13.5483 34.8385C6.07738 34.8385 0 39.6143 0 45.4836C0 47.873 1.02774 50.2004 2.90321 52.0778V59.0319C2.90321 59.899 3.95127 60.32 4.55513 59.7161L8.81221 55.459C10.3064 55.9042 11.8974 56.1287 13.5483 56.1287C21.0192 56.1287 27.0966 51.3529 27.0966 45.4836C27.0966 39.6143 21.0192 34.8385 13.5483 34.8385ZM13.5483 54.1932C11.8944 54.1932 10.317 53.9407 8.85769 53.4423C8.51027 53.3223 8.12124 53.4113 7.86092 53.6736L4.83868 56.6958V51.6674C4.83868 51.3984 4.72739 51.142 4.53094 50.9591C2.83256 49.3797 1.93547 47.4859 1.93547 45.4836C1.93547 40.6817 7.1448 36.774 13.5483 36.774C19.9518 36.774 25.1611 40.6817 25.1611 45.4836C25.1611 50.2855 19.9518 54.1932 13.5483 54.1932Z" fill="#104CBA"></path><path d="M13.5483 46.9352C14.35 46.9352 14.9999 46.2853 14.9999 45.4836C14.9999 44.6819 14.35 44.032 13.5483 44.032C12.7466 44.032 12.0967 44.6819 12.0967 45.4836C12.0967 46.2853 12.7466 46.9352 13.5483 46.9352Z" fill="#104CBA"></path><path d="M20.3225 46.9352C21.1242 46.9352 21.7741 46.2853 21.7741 45.4836C21.7741 44.6819 21.1242 44.032 20.3225 44.032C19.5208 44.032 18.8709 44.6819 18.8709 45.4836C18.8709 46.2853 19.5208 46.9352 20.3225 46.9352Z" fill="#104CBA"></path><path d="M6.77415 46.9352C7.57585 46.9352 8.22576 46.2853 8.22576 45.4836C8.22576 44.6819 7.57585 44.032 6.77415 44.032C5.97246 44.032 5.32255 44.6819 5.32255 45.4836C5.32255 46.2853 5.97246 46.9352 6.77415 46.9352Z" fill="#104CBA"></path><path d="M42.8339 51.0133L49.2665 47.3068C50.6678 46.5007 50.6678 44.4714 49.2665 43.6643L42.8349 39.9598C41.4375 39.1507 39.6772 40.1659 39.6772 41.7801V49.191C39.6772 50.8265 41.453 51.8058 42.8339 51.0133ZM41.6127 41.7801C41.6127 41.6552 41.754 41.5701 41.8681 41.6369L48.3007 45.3423C48.411 45.4062 48.411 45.5659 48.3007 45.6297L41.8691 49.3352C41.7549 49.3991 41.6127 49.3207 41.6127 49.192V41.7801Z" fill="#104CBA"></path></g></svg>