<svg xmlns="http://www.w3.org/2000/svg" width="45" height="45" viewBox="0 0 45 45" fill="none"><g id="Vector"><path d="M42.8226 10.2041H31.0783C31.2983 8.9535 31.2415 7.66992 30.9118 6.44355C30.5822 5.21718 29.9878 4.07775 29.1702 3.10528C28.3527 2.13282 27.332 1.35091 26.1796 0.814448C25.0273 0.27799 23.7714 0 22.5 0C21.2286 0 19.9727 0.27799 18.8204 0.814448C17.668 1.35091 16.6473 2.13282 15.8298 3.10528C15.0122 4.07775 14.4178 5.21718 14.0882 6.44355C13.7585 7.66992 13.7017 8.9535 13.9217 10.2041H2.17742C1.59993 10.2041 1.0461 10.4333 0.637751 10.8411C0.229406 11.249 0 11.8021 0 12.3789V15.2785C0 15.8553 0.229406 16.4085 0.637751 16.8163C1.0461 17.2242 1.59993 17.4533 2.17742 17.4533V38.4758C2.17742 39.0526 2.40683 39.6057 2.81517 40.0135C3.22352 40.4214 3.77735 40.6505 4.35484 40.6505H5.86452C6.03806 41.8574 6.64142 42.9613 7.56395 43.7599C8.48648 44.5584 9.66633 44.998 10.8871 44.998C12.1079 44.998 13.2877 44.5584 14.2102 43.7599C15.1328 42.9613 15.7361 41.8574 15.9097 40.6505H31.2097V44.2751C31.2097 44.4673 31.2861 44.6517 31.4223 44.7877C31.5584 44.9236 31.743 45 31.9355 45H37.7419C37.9344 45 38.119 44.9236 38.2552 44.7877C38.3913 44.6517 38.4677 44.4673 38.4677 44.2751V40.6505H40.6452C41.2226 40.6505 41.7765 40.4214 42.1848 40.0135C42.5932 39.6057 42.8226 39.0526 42.8226 38.4758V17.4533C43.4001 17.4533 43.9539 17.2242 44.3622 16.8163C44.7706 16.4085 45 15.8553 45 15.2785V12.3789C45 11.8021 44.7706 11.249 44.3622 10.8411C43.9539 10.4333 43.4001 10.2041 42.8226 10.2041ZM22.5 1.50518C23.9355 1.50518 25.3388 1.93033 26.5324 2.72688C27.7259 3.52342 28.6562 4.65558 29.2056 5.98019C29.7549 7.30479 29.8987 8.76235 29.6186 10.1685C29.3386 11.5747 28.6473 12.8664 27.6322 13.8802C26.6172 14.894 25.3239 15.5845 23.916 15.8642C22.5081 16.1439 21.0487 16.0003 19.7225 15.4516C18.3962 14.903 17.2627 13.9738 16.4651 12.7817C15.6676 11.5896 15.2419 10.1881 15.2419 8.75431C15.244 6.83237 16.0094 4.98975 17.3701 3.63073C18.7308 2.27171 20.5757 1.50729 22.5 1.50518ZM1.45161 15.2785V12.3789C1.45161 12.1866 1.52808 12.0022 1.6642 11.8663C1.80031 11.7303 1.98492 11.654 2.17742 11.654H14.2984C14.9308 13.4322 16.1228 14.9582 17.6959 16.0035H2.17742C1.98492 16.0035 1.80031 15.9271 1.6642 15.7911C1.52808 15.6552 1.45161 15.4708 1.45161 15.2785ZM3.62903 38.4758V36.301H7.3379C6.54073 37.0793 6.02284 38.0986 5.86452 39.2007H4.35484C4.16234 39.2007 3.97773 39.1243 3.84162 38.9884C3.7055 38.8524 3.62903 38.668 3.62903 38.4758ZM21.0484 34.8512H7.98387V20.3529H21.0484V34.8512ZM10.8871 43.5502C10.1693 43.5502 9.46771 43.3376 8.87091 42.9393C8.27412 42.541 7.80898 41.975 7.53431 41.3127C7.25963 40.6504 7.18777 39.9216 7.3278 39.2185C7.46782 38.5154 7.81345 37.8695 8.32098 37.3626C8.82851 36.8557 9.47514 36.5105 10.1791 36.3707C10.8831 36.2308 11.6127 36.3026 12.2759 36.5769C12.939 36.8513 13.5058 37.3158 13.9045 37.9119C14.3033 38.508 14.5161 39.2087 14.5161 39.9256C14.515 40.8865 14.1323 41.8078 13.4519 42.4873C12.7716 43.1668 11.8492 43.549 10.8871 43.5502ZM37.0161 43.5502H32.6613V40.6505H37.0161V43.5502ZM40.6452 39.2007H15.9097C15.7514 38.0986 15.2335 37.0793 14.4363 36.301H41.371V38.4758C41.371 38.668 41.2945 38.8524 41.1584 38.9884C41.0223 39.1243 40.8377 39.2007 40.6452 39.2007ZM41.371 34.8512H22.5V19.628C22.5 19.4358 22.4235 19.2514 22.2874 19.1154C22.1513 18.9795 21.9667 18.9031 21.7742 18.9031H7.25806C7.06557 18.9031 6.88096 18.9795 6.74484 19.1154C6.60873 19.2514 6.53226 19.4358 6.53226 19.628V34.8512H3.62903V17.4533H41.371V34.8512ZM43.5484 15.2785C43.5484 15.4708 43.4719 15.6552 43.3358 15.7911C43.1997 15.9271 43.0151 16.0035 42.8226 16.0035H27.3041C28.8772 14.9582 30.0692 13.4322 30.7016 11.654H42.8226C43.0151 11.654 43.1997 11.7303 43.3358 11.8663C43.4719 12.0022 43.5484 12.1866 43.5484 12.3789V15.2785Z" fill="#104CBA"></path><path d="M10.1613 27.6021H18.871C19.0635 27.6021 19.2481 27.5257 19.3842 27.3897C19.5203 27.2538 19.5968 27.0694 19.5968 26.8772V22.5277C19.5968 22.3354 19.5203 22.151 19.3842 22.0151C19.2481 21.8791 19.0635 21.8028 18.871 21.8028H10.1613C9.96879 21.8028 9.78418 21.8791 9.64807 22.0151C9.51195 22.151 9.43548 22.3354 9.43548 22.5277V26.8772C9.43548 27.0694 9.51195 27.2538 9.64807 27.3897C9.78418 27.5257 9.96879 27.6021 10.1613 27.6021ZM10.8871 23.2526H18.1452V26.1522H10.8871V23.2526Z" fill="#104CBA"></path><path d="M26.8548 31.2266H29.0323V32.6765C29.0323 32.8687 29.1087 33.0531 29.2448 33.1891C29.381 33.325 29.5656 33.4014 29.7581 33.4014H37.0161C37.2086 33.4014 37.3932 33.325 37.5294 33.1891C37.6655 33.0531 37.7419 32.8687 37.7419 32.6765V19.628C37.7419 19.4358 37.6655 19.2514 37.5294 19.1154C37.3932 18.9795 37.2086 18.9031 37.0161 18.9031H29.7581C29.5656 18.9031 29.381 18.9795 29.2448 19.1154C29.1087 19.2514 29.0323 19.4358 29.0323 19.628V21.0778H26.8548C26.6623 21.0778 26.4777 21.1542 26.3416 21.2902C26.2055 21.4261 26.129 21.6105 26.129 21.8028V24.7024C26.129 24.8947 26.2055 25.0791 26.3416 25.215C26.4777 25.351 26.6623 25.4273 26.8548 25.4273H29.0323V26.8772H26.8548C26.6623 26.8772 26.4777 26.9535 26.3416 27.0895C26.2055 27.2254 26.129 27.4098 26.129 27.6021V30.5017C26.129 30.694 26.2055 30.8784 26.3416 31.0143C26.4777 31.1503 26.6623 31.2266 26.8548 31.2266ZM30.4839 20.3529H36.2903V31.9516H30.4839V20.3529ZM27.5806 23.9775V22.5277H29.0323V23.9775H27.5806ZM27.5806 28.327H29.0323V29.7768H27.5806V28.327Z" fill="#104CBA"></path><path d="M18.1452 10.9291H21.7742V13.8287C21.7742 13.9843 21.8242 14.1358 21.9171 14.2607C22.0099 14.3857 22.1405 14.4775 22.2896 14.5226C22.4387 14.5678 22.5983 14.5638 22.745 14.5112C22.8916 14.4587 23.0174 14.3605 23.1039 14.231L27.4587 7.70681C27.5316 7.59764 27.5735 7.47074 27.5799 7.33966C27.5863 7.20857 27.5569 7.07821 27.4949 6.9625C27.4329 6.84678 27.3406 6.75004 27.2279 6.6826C27.1152 6.61516 26.9862 6.57955 26.8548 6.57957H23.2258V3.67992C23.2258 3.52432 23.1758 3.37285 23.0829 3.24788C22.9901 3.12292 22.8595 3.03109 22.7104 2.98598C22.5613 2.94087 22.4017 2.94486 22.255 2.99738C22.1084 3.04989 21.9826 3.14814 21.8961 3.27759L17.5413 9.80181C17.4684 9.91099 17.4265 10.0379 17.4201 10.169C17.4137 10.3001 17.4431 10.4304 17.5051 10.5461C17.5671 10.6618 17.6594 10.7586 17.7721 10.826C17.8848 10.8935 18.0138 10.9291 18.1452 10.9291ZM21.7742 6.07213V7.30449C21.7742 7.49675 21.8507 7.68113 21.9868 7.81708C22.1229 7.95302 22.3075 8.0294 22.5 8.0294H25.4983L23.2258 11.4365V10.2041C23.2258 10.0119 23.1493 9.8275 23.0132 9.69155C22.8771 9.5556 22.6925 9.47923 22.5 9.47923H19.5017L21.7742 6.07213Z" fill="#104CBA"></path><path d="M31.9355 22.5277H34.8387V23.9775H31.9355V22.5277Z" fill="#104CBA"></path><path d="M31.9355 28.327H34.8387V29.7768H31.9355V28.327Z" fill="#104CBA"></path><path d="M10.8871 37.7509C10.4564 37.7509 10.0355 37.8784 9.67739 38.1174C9.31931 38.3563 9.04023 38.696 8.87542 39.0934C8.71062 39.4907 8.6675 39.928 8.75152 40.3499C8.83553 40.7717 9.04291 41.1592 9.34743 41.4634C9.65195 41.7675 10.0399 41.9746 10.4623 42.0586C10.8847 42.1425 11.3225 42.0994 11.7204 41.9348C12.1182 41.7702 12.4583 41.4915 12.6976 41.1338C12.9368 40.7762 13.0645 40.3557 13.0645 39.9256C13.0645 39.3488 12.8351 38.7957 12.4268 38.3878C12.0184 37.98 11.4646 37.7509 10.8871 37.7509ZM10.8871 40.6505C10.7435 40.6505 10.6032 40.608 10.4839 40.5283C10.3645 40.4487 10.2715 40.3355 10.2165 40.203C10.1616 40.0706 10.1472 39.9248 10.1752 39.7842C10.2032 39.6436 10.2724 39.5144 10.3739 39.413C10.4754 39.3116 10.6047 39.2426 10.7455 39.2146C10.8863 39.1866 11.0322 39.201 11.1649 39.2559C11.2975 39.3107 11.4108 39.4037 11.4906 39.5229C11.5703 39.6421 11.6129 39.7822 11.6129 39.9256C11.6129 40.1179 11.5364 40.3022 11.4003 40.4382C11.2642 40.5741 11.0796 40.6505 10.8871 40.6505Z" fill="#104CBA"></path></g></svg>