<svg xmlns="http://www.w3.org/2000/svg" width="43" height="45" viewBox="0 0 43 45" fill="none"><g id="icon" clip-path="url(#clip0_342_6395)"><g id="Group"><path id="Vector" d="M10.7928 4.34668C9.34001 4.34668 8.15808 5.59692 8.15808 7.13369C8.15808 8.67046 9.34001 9.92079 10.7928 9.92079C12.2456 9.92079 13.4276 8.67046 13.4276 7.13369C13.4276 5.59692 12.2456 4.34668 10.7928 4.34668ZM10.7928 8.60243C10.0272 8.60243 9.40441 7.9436 9.40441 7.13369C9.40441 6.32387 10.0272 5.66504 10.7928 5.66504C11.5585 5.66504 12.1813 6.32387 12.1813 7.13369C12.1812 7.9436 11.5584 8.60243 10.7928 8.60243Z" fill="white"></path><path id="Vector_2" d="M13.4274 19.618V17.0695C13.4274 16.7053 13.1485 16.4102 12.8042 16.4102H6.45678C6.11255 16.4102 5.83362 16.7053 5.83362 17.0695V19.618C5.83362 19.9822 6.11255 20.2773 6.45678 20.2773H12.8043C13.1485 20.2773 13.4274 19.9822 13.4274 19.618ZM12.1811 18.9587H7.07994V17.7288H12.1811V18.9587H12.1811Z" fill="white"></path><path id="Vector_3" d="M39.6965 5.47189H35.741C35.0521 5.47189 34.4513 5.87742 34.14 6.47446H17.5367V6.05654C17.5367 5.7448 17.3303 5.47576 17.0419 5.41151L15.5234 5.07331C15.5207 5.06628 15.5179 5.05925 15.5151 5.05222L16.3629 3.67726C16.5239 3.41613 16.4899 3.07143 16.2815 2.85108L14.8415 1.32776C14.6331 1.10733 14.3073 1.0713 14.0604 1.24172L12.7605 2.13855C12.7538 2.13565 12.7473 2.13275 12.7406 2.12977L12.4209 0.523389C12.3602 0.21832 12.1058 0 11.8111 0H9.77453C9.47982 0 9.22548 0.21832 9.16475 0.523389L8.84502 2.12977C8.83838 2.13267 8.83181 2.13557 8.82516 2.13855L7.52533 1.24172C7.27848 1.07139 6.9526 1.10751 6.74422 1.32776L5.30413 2.851C5.09575 3.07151 5.06185 3.41622 5.22279 3.67726L6.07062 5.0523C6.06788 5.05934 6.06514 5.06628 6.06231 5.07331L4.54371 5.41151C4.25531 5.47567 4.04892 5.7448 4.04892 6.05654V6.47446H4.03238C2.37917 6.47446 1.03406 7.89724 1.03406 9.64608V30.1512C1.03406 31.9 2.37909 33.3229 4.03238 33.3229H6.39325C6.69453 35.6197 8.60157 37.3635 10.7926 37.3635C11.4387 37.3635 12.0523 37.2157 12.6067 36.9524L11.1973 42.786C10.6376 45.1021 14.126 45.8889 14.6637 43.6649L17.1625 33.323H19.1913V43.2255C19.1913 44.1906 19.9566 45.0001 20.8689 45.0001C21.7814 45.0001 22.5465 44.1906 22.5465 43.2255V33.3229H24.5755L27.0742 43.6647C27.6113 45.8882 31.1005 45.1027 30.5406 42.7859L28.2544 33.3229H37.7057C39.3589 33.3229 40.704 31.9001 40.704 30.1512V15.9082C40.704 15.5441 40.4251 15.249 40.0808 15.249C39.7366 15.249 39.4577 15.5441 39.4577 15.9082V30.1512C39.4577 31.1731 38.6717 32.0045 37.7057 32.0045L15.1916 32.0046C14.8876 29.7242 13.0313 27.9639 10.7927 27.9639C8.60157 27.9639 6.69461 29.7074 6.39334 32.0045H4.03238C3.06631 32.0045 2.28038 31.1731 2.28038 30.1512V11.0056H5.12466C5.13671 11.1565 5.19686 11.3029 5.30413 11.4164L6.74422 12.9396C6.95252 13.1599 7.27823 13.196 7.52525 13.0257L8.82508 12.1288C8.83173 12.1317 8.83838 12.1346 8.84502 12.1376L9.16475 13.744C9.2254 14.0491 9.47982 14.2674 9.77453 14.2674H11.8111C12.1058 14.2674 12.3602 14.0491 12.4209 13.744L12.7406 12.1376C12.7473 12.1347 12.7539 12.1318 12.7606 12.1288L14.0604 13.0257C14.3074 13.1961 14.6333 13.16 14.8415 12.9396L16.2815 11.4164C16.3888 11.3029 16.4488 11.1565 16.4609 11.0056H33.6908L27.8815 17.1506L24.8976 13.9952C24.4331 13.5018 23.6615 13.502 23.1964 13.9942L21.2592 16.0432C21.0158 16.3006 21.0158 16.718 21.2592 16.9754C21.5025 17.2327 21.8971 17.2329 22.1404 16.9755L24.0465 14.9593L27.0313 18.1158C27.496 18.6071 28.2673 18.6086 28.7317 18.1158L37.2124 9.14484C37.3906 8.95623 37.4439 8.67278 37.3474 8.42643C37.251 8.18007 37.0237 8.01949 36.7717 8.01949H35.7408C34.9913 8.01949 34.9921 6.79025 35.7408 6.79025H39.6964C40.0077 6.79025 40.261 7.05779 40.261 7.38659V11.5708C40.261 11.9065 39.9967 12.1859 39.6795 12.1859C39.359 12.1859 39.0981 11.91 39.0981 11.5708V10.4813C39.0981 10.2147 38.9463 9.97427 38.7134 9.87231C38.4805 9.7701 38.2125 9.82661 38.0343 10.0151L27.8819 20.7534L24.8968 17.5966C24.4287 17.1016 23.6663 17.1013 23.1963 17.5967L18.082 23.0075C17.5584 23.5622 16.7295 22.6996 17.2604 22.1376L20.0636 19.1726C20.307 18.915 20.307 18.4977 20.0636 18.2403C19.8202 17.983 19.4257 17.9829 19.1824 18.2403L16.3791 21.2054C15.653 21.9736 15.6829 23.2552 16.4326 23.9916C17.1425 24.6888 18.2792 24.6647 18.9638 23.9393L24.0466 18.5619L27.0314 21.7183C27.4941 22.2094 28.2684 22.2112 28.7317 21.7192L37.9016 12.0201C38.0935 12.8704 38.8179 13.5045 39.6796 13.5045C40.6752 13.5045 41.5075 12.6243 41.5075 11.571V7.38659C41.5075 6.33076 40.6951 5.47189 39.6965 5.47189ZM13.4562 43.3382C13.318 43.9102 12.2477 43.7621 12.4049 43.1125L14.2021 35.6736C14.7209 35.0172 15.0733 34.2095 15.1916 33.3229H15.8761L13.4562 43.3382ZM21.3003 43.2254C21.3003 43.8124 20.4376 43.8134 20.4376 43.2254V33.3229H21.3003V43.2254ZM29.3332 43.1124C29.4899 43.7606 28.42 43.9096 28.2819 43.3382L25.862 33.3229H26.968L29.3332 43.1124ZM10.0712 29.3684C10.3068 29.3113 10.5496 29.2823 10.7927 29.2823C12.5553 29.2823 13.9893 30.7985 13.9899 32.6625L13.9898 32.6637L13.9899 32.6648C13.9893 34.5288 12.5552 36.0451 10.7927 36.0451C9.04369 36.0451 7.59604 34.5122 7.59604 32.6636C7.59604 31.0787 8.61412 29.7236 10.0712 29.3684ZM2.28038 9.64608C2.28038 8.62418 3.06631 7.79282 4.03238 7.79282H4.04892V8.21083C4.04892 8.52258 4.25531 8.79161 4.54371 8.85586L6.06231 9.19406C6.06505 9.20109 6.0678 9.20804 6.07062 9.21507L5.77948 9.68722H2.28038V9.64608ZM14.3177 11.6291L13.1536 10.8258C12.7308 10.5344 11.6943 10.9944 11.5917 11.5105L11.3054 12.9488H10.2802L9.99397 11.5105C9.89011 10.9881 8.84959 10.5378 8.43207 10.8258L7.26792 11.6291L6.5429 10.8622L7.30224 9.63079C7.57768 9.18369 7.14296 8.08717 6.65507 7.97862L5.29524 7.67584V6.59145L6.65507 6.28866C7.14902 6.1788 7.57435 5.07814 7.30224 4.63649L6.5429 3.40506L7.26792 2.63813L8.43207 3.44136C8.85474 3.7328 9.89135 3.27287 9.99397 2.75678L10.2803 1.31836H11.3055L11.5918 2.75678C11.6956 3.2792 12.7361 3.72929 13.1537 3.44136L14.3178 2.63813L15.0427 3.40506L14.2834 4.63649C14.0078 5.08351 14.4428 6.18021 14.9307 6.28866L16.2904 6.59145V7.67593L14.9307 7.97871C14.4369 8.08849 14.0111 9.18932 14.2834 9.63088L15.0427 10.8623L14.3177 11.6291ZM35.3166 9.28573L34.9372 9.68713H15.8062L15.5151 9.21507C15.5178 9.20804 15.5206 9.20101 15.5234 9.19397L17.0419 8.85577C17.3303 8.79161 17.5367 8.52249 17.5367 8.21074V7.79273H33.9509C34.0902 8.51985 34.634 9.11496 35.3166 9.28573Z" fill="white"></path><path id="Vector_4" d="M36.287 27.5996H24.4766C24.1323 27.5996 23.8534 27.8947 23.8534 28.2589C23.8534 28.6231 24.1323 28.9182 24.4766 28.9182H36.287C36.6312 28.9182 36.9101 28.6231 36.9101 28.2589C36.9101 27.8947 36.6311 27.5996 36.287 27.5996Z" fill="white"></path><path id="Vector_5" d="M36.2871 24.707H29.2851C28.9409 24.707 28.662 25.0021 28.662 25.3663C28.662 25.7305 28.9409 26.0256 29.2851 26.0256H36.2871C36.6313 26.0256 36.9102 25.7305 36.9102 25.3663C36.9102 25.0021 36.6312 24.707 36.2871 24.707Z" fill="white"></path><path id="Vector_6" d="M6.45678 21.4619C6.11255 21.4619 5.83362 21.757 5.83362 22.1212C5.83362 22.4854 6.11255 22.7805 6.45678 22.7805H10.7927C11.1369 22.7805 11.4158 22.4854 11.4158 22.1212C11.4158 21.757 11.1369 21.4619 10.7927 21.4619H6.45678Z" fill="white"></path><path id="Vector_7" d="M10.793 34.212C11.1372 34.212 11.4161 33.9169 11.4161 33.5527V31.7745C11.4161 31.4103 11.1372 31.1152 10.793 31.1152C10.4487 31.1152 10.1698 31.4103 10.1698 31.7745V33.5527C10.1698 33.9168 10.4487 34.212 10.793 34.212Z" fill="white"></path></g></g><defs><clipPath id="clip0_342_6395"><rect width="42.5412" height="45" fill="white"></rect></clipPath></defs></svg>