<svg xmlns="http://www.w3.org/2000/svg" width="80" height="81" viewBox="0 0 80 81" fill="none"><path d="M79.287 57.915C78.5756 56.6768 77.4061 55.7728 76.0345 55.4009C74.6628 55.0289 73.2008 55.2194 71.9682 55.9305L58.8989 63.531C58.1852 62.454 57.1095 61.6726 55.8695 61.3305L35.8702 55.944C34.3311 55.5257 32.7112 55.5118 31.1652 55.9035L24.1279 57.672V55.35C24.1279 54.992 23.9867 54.6486 23.7353 54.3954C23.4839 54.1422 23.143 54 22.7875 54H12.064C11.7085 54 11.3675 54.1422 11.1161 54.3954C10.8647 54.6486 10.7235 54.992 10.7235 55.35V56.7H1.34044C0.984933 56.7 0.643987 56.8422 0.392606 57.0954C0.141224 57.3486 0 57.692 0 58.05V76.95C0 77.308 0.141224 77.6514 0.392606 77.9046C0.643987 78.1578 0.984933 78.3 1.34044 78.3H10.7235V79.65C10.7235 80.008 10.8647 80.3514 11.1161 80.6046C11.3675 80.8578 11.7085 81 12.064 81H22.7875C23.143 81 23.4839 80.8578 23.7353 80.6046C23.9867 80.3514 24.1279 80.008 24.1279 79.65V77.787L25.8571 78.651C27.1607 79.3045 28.5965 79.6464 30.0527 79.65H50.1191C51.767 79.6536 53.3862 79.2156 54.8106 78.381L77.33 65.286C78.5566 64.5667 79.4509 63.3879 79.8176 62.0069C80.1843 60.6259 79.9935 59.1549 79.287 57.915ZM10.7235 75.6H2.68088V59.4H10.7235V75.6ZM21.447 78.3H13.4044V56.7H21.447V78.3ZM75.9895 62.9505L53.4702 76.0455C52.4518 76.6391 51.2957 76.9511 50.1191 76.95H30.0527C29.0099 76.9521 27.9813 76.707 27.0501 76.2345L24.1279 74.763V60.453L31.8086 58.5225C32.9139 58.2411 34.0725 58.2504 35.1731 58.5495L55.1725 63.9495C55.687 64.0841 56.15 64.3703 56.5019 64.7715C56.8539 65.1728 57.0788 65.6707 57.1479 66.2016C57.2171 66.7324 57.1272 67.2719 56.8899 67.751C56.6526 68.2301 56.2786 68.6269 55.8159 68.8905C55.5138 69.07 55.1789 69.1864 54.8312 69.2328C54.4834 69.2792 54.13 69.2546 53.7919 69.1605L37.8004 64.8405C37.4556 64.7474 37.0881 64.7961 36.7789 64.9759C36.4697 65.1556 36.2441 65.4517 36.1517 65.799C36.0592 66.1463 36.1076 66.5164 36.2861 66.8278C36.4645 67.1392 36.7585 67.3664 37.1034 67.4595L53.0948 71.766C53.5495 71.8893 54.0181 71.9528 54.4889 71.955C55.4268 71.9564 56.3478 71.7046 57.1564 71.226C57.769 70.8736 58.3061 70.4021 58.7364 69.839C59.1667 69.2758 59.4816 68.6322 59.663 67.9455C59.8117 67.3504 59.8615 66.7345 59.8104 66.123L73.3087 58.2795C73.9246 57.9352 74.6493 57.8455 75.3296 58.0294C76.01 58.2133 76.5927 58.6564 76.9547 59.265C77.3107 59.8829 77.409 60.6178 77.2281 61.3085C77.0472 61.9993 76.6018 62.5898 75.9895 62.9505Z" fill="#104CBA"></path><path d="M17.4257 76.95C17.7812 76.95 18.1222 76.8078 18.3736 76.5546C18.6249 76.3014 18.7662 75.958 18.7662 75.6V74.25C18.7662 73.892 18.6249 73.5486 18.3736 73.2954C18.1222 73.0422 17.7812 72.9 17.4257 72.9C17.0702 72.9 16.7293 73.0422 16.4779 73.2954C16.2265 73.5486 16.0853 73.892 16.0853 74.25V75.6C16.0853 75.958 16.2265 76.3014 16.4779 76.5546C16.7293 76.8078 17.0702 76.95 17.4257 76.95Z" fill="#104CBA"></path><path d="M58.9794 20.25H53.9527L53.7114 19.683L57.277 16.1055C57.5281 15.8506 57.6691 15.5061 57.6691 15.147C57.6691 14.7879 57.5281 14.4434 57.277 14.1885L51.5935 8.4645C51.3405 8.21158 50.9984 8.06965 50.6418 8.06965C50.2853 8.06965 49.9432 8.21158 49.6901 8.4645L46.1379 12.0555L45.575 11.8125V6.75C45.575 6.39196 45.4337 6.04858 45.1824 5.79541C44.931 5.54223 44.59 5.4 44.2345 5.4H36.1919C35.8364 5.4 35.4954 5.54223 35.244 5.79541C34.9927 6.04858 34.8514 6.39196 34.8514 6.75V11.8125L34.2885 12.0555L30.7363 8.4645C30.4832 8.21158 30.1411 8.06965 29.7846 8.06965C29.428 8.06965 29.086 8.21158 28.8329 8.4645L23.1494 14.1885C22.8983 14.4434 22.7573 14.7879 22.7573 15.147C22.7573 15.5061 22.8983 15.8506 23.1494 16.1055L26.715 19.683L26.4737 20.25H21.447C21.0915 20.25 20.7506 20.3922 20.4992 20.6454C20.2478 20.8986 20.1066 21.242 20.1066 21.6V29.7C20.1066 30.058 20.2478 30.4014 20.4992 30.6546C20.7506 30.9078 21.0915 31.05 21.447 31.05H26.4737L26.715 31.617L23.1494 35.1945C22.9025 35.4519 22.7633 35.7951 22.7607 36.153C22.7659 36.5104 22.9047 36.8526 23.1494 37.1115L28.8329 42.8355C29.0885 43.0842 29.4292 43.2243 29.7846 43.227C30.1394 43.2218 30.4793 43.082 30.7363 42.8355L34.2885 39.2445L34.8514 39.4875V44.55C34.8514 44.908 34.9927 45.2514 35.244 45.5046C35.4954 45.7578 35.8364 45.9 36.1919 45.9H44.2345C44.59 45.9 44.931 45.7578 45.1824 45.5046C45.4337 45.2514 45.575 44.908 45.575 44.55V39.4875L46.1379 39.2445L49.6901 42.8355C49.9493 43.0764 50.2891 43.2101 50.6418 43.2101C50.9945 43.2101 51.3343 43.0764 51.5935 42.8355L57.277 37.1115C57.5217 36.8526 57.6605 36.5104 57.6657 36.153C57.6631 35.7951 57.5239 35.4519 57.277 35.1945L53.7114 31.617L53.9527 31.05H58.9794C59.3349 31.05 59.6758 30.9078 59.9272 30.6546C60.1786 30.4014 60.3198 30.058 60.3198 29.7V21.6C60.3198 21.242 60.1786 20.8986 59.9272 20.6454C59.6758 20.3922 59.3349 20.25 58.9794 20.25ZM57.6389 28.35H53.001C52.7183 28.3502 52.443 28.4404 52.2143 28.6077C51.9856 28.775 51.8152 29.0108 51.7276 29.2815C51.5203 29.9598 51.2464 30.6155 50.9099 31.239C50.7733 31.4964 50.7217 31.7909 50.7626 32.0798C50.8036 32.3688 50.935 32.637 51.1378 32.8455L54.4353 36.153L50.6418 39.9735L47.3578 36.6525C47.1507 36.4483 46.8844 36.3159 46.5975 36.2747C46.3106 36.2334 46.0182 36.2854 45.7626 36.423C45.1435 36.7619 44.4924 37.0378 43.819 37.2465C43.5502 37.3348 43.3161 37.5063 43.15 37.7366C42.9839 37.967 42.8943 38.2443 42.8941 38.529V43.2H37.5323V38.529C37.5321 38.2443 37.4426 37.967 37.2764 37.7366C37.1103 37.5063 36.8762 37.3348 36.6074 37.2465C35.934 37.0378 35.2829 36.7619 34.6638 36.423C34.4082 36.2854 34.1158 36.2334 33.8289 36.2747C33.542 36.3159 33.2757 36.4483 33.0687 36.6525L29.7846 39.9735L25.9911 36.153L29.2886 32.8455C29.4914 32.637 29.6228 32.3688 29.6638 32.0798C29.7048 31.7909 29.6532 31.4964 29.5165 31.239C29.18 30.6155 28.9061 29.9598 28.6988 29.2815C28.6112 29.0108 28.4409 28.775 28.2121 28.6077C27.9834 28.4404 27.7081 28.3502 27.4254 28.35H22.7875V22.95H27.4254C27.7081 22.9498 27.9834 22.8596 28.2121 22.6923C28.4409 22.525 28.6112 22.2892 28.6988 22.0185C28.9061 21.3402 29.18 20.6845 29.5165 20.061C29.6532 19.8036 29.7048 19.5091 29.6638 19.2202C29.6228 18.9312 29.4914 18.663 29.2886 18.4545L25.9911 15.147L29.7846 11.3265L33.0687 14.6475C33.2757 14.8517 33.542 14.9841 33.8289 15.0253C34.1158 15.0666 34.4082 15.0146 34.6638 14.877C35.2829 14.5381 35.934 14.2622 36.6074 14.0535C36.8762 13.9652 37.1103 13.7937 37.2764 13.5634C37.4426 13.333 37.5321 13.0557 37.5323 12.771V8.1H42.8941V12.771C42.8943 13.0557 42.9839 13.333 43.15 13.5634C43.3161 13.7937 43.5502 13.9652 43.819 14.0535C44.4924 14.2622 45.1435 14.5381 45.7626 14.877C46.0182 15.0146 46.3106 15.0666 46.5975 15.0253C46.8844 14.9841 47.1507 14.8517 47.3578 14.6475L50.6418 11.3265L54.4353 15.147L51.1378 18.4545C50.935 18.663 50.8036 18.9312 50.7626 19.2202C50.7217 19.5091 50.7733 19.8036 50.9099 20.061C51.2464 20.6845 51.5203 21.3402 51.7276 22.0185C51.8152 22.2892 51.9856 22.525 52.2143 22.6923C52.443 22.8596 52.7183 22.9498 53.001 22.95H57.6389V28.35Z" fill="#104CBA"></path><path d="M48.2558 25.65C48.2558 24.048 47.7842 22.4819 46.9004 21.1499C46.0167 19.8178 44.7606 18.7796 43.291 18.1666C41.8214 17.5535 40.2043 17.3931 38.6442 17.7056C37.084 18.0182 35.651 18.7896 34.5262 19.9224C33.4014 21.0552 32.6354 22.4985 32.3251 24.0698C32.0148 25.641 32.174 27.2697 32.7828 28.7497C33.3915 30.2298 34.4223 31.4949 35.745 32.3849C37.0676 33.2749 38.6225 33.75 40.2132 33.75C42.3456 33.7479 44.39 32.8938 45.8979 31.3752C47.4057 29.8566 48.2537 27.7976 48.2558 25.65ZM34.8514 25.65C34.8514 24.582 35.1659 23.5379 35.7551 22.6499C36.3442 21.7619 37.1816 21.0698 38.1614 20.6611C39.1411 20.2523 40.2192 20.1454 41.2592 20.3538C42.2993 20.5621 43.2547 21.0764 44.0045 21.8316C44.7544 22.5868 45.2651 23.549 45.4719 24.5965C45.6788 25.644 45.5726 26.7298 45.1668 27.7165C44.761 28.7032 44.0738 29.5466 43.192 30.1399C42.3103 30.7333 41.2737 31.05 40.2132 31.05C38.7912 31.05 37.4274 30.4811 36.4219 29.4684C35.4163 28.4557 34.8514 27.0822 34.8514 25.65Z" fill="#104CBA"></path><path d="M71.0433 28.35H68.3624C68.3624 20.8311 65.3967 13.6202 60.1177 8.30352C54.8387 2.98687 47.6788 0 40.2132 0C32.7476 0 25.5877 2.98687 20.3087 8.30352C15.0297 13.6202 12.064 20.8311 12.064 28.35H9.38308C7.25004 28.35 5.20436 29.2034 3.69608 30.7224C2.18779 32.2415 1.34044 34.3017 1.34044 36.45C1.34044 38.5983 2.18779 40.6585 3.69608 42.1776C5.20436 43.6966 7.25004 44.55 9.38308 44.55H16.0853C16.4408 44.55 16.7817 44.4078 17.0331 44.1546C17.2845 43.9014 17.4257 43.558 17.4257 43.2V29.7C17.4257 29.342 17.2845 28.9986 17.0331 28.7454C16.7817 28.4922 16.4408 28.35 16.0853 28.35H14.7448C14.7448 21.5472 17.4281 15.023 22.2044 10.2127C26.9806 5.4024 33.4586 2.7 40.2132 2.7C46.9678 2.7 53.4458 5.4024 58.2221 10.2127C62.9983 15.023 65.6816 21.5472 65.6816 28.35H64.3411C63.9856 28.35 63.6447 28.4922 63.3933 28.7454C63.1419 28.9986 63.0007 29.342 63.0007 29.7V43.2C63.0007 43.558 63.1419 43.9014 63.3933 44.1546C63.6447 44.4078 63.9856 44.55 64.3411 44.55H65.6816V48.6C65.6816 48.958 65.5403 49.3014 65.289 49.5546C65.0376 49.8078 64.6966 49.95 64.3411 49.95H54.7168C54.4385 49.1633 53.9264 48.482 53.25 47.9989C52.5737 47.5158 51.7659 47.2543 50.9367 47.25H48.2558C47.1893 47.25 46.1665 47.6767 45.4123 48.4362C44.6582 49.1957 44.2345 50.2259 44.2345 51.3C44.2345 52.3741 44.6582 53.4043 45.4123 54.1638C46.1665 54.9233 47.1893 55.35 48.2558 55.35H50.9367C51.7659 55.3457 52.5737 55.0842 53.25 54.6011C53.9264 54.118 54.4385 53.4367 54.7168 52.65H64.3411C65.4067 52.6468 66.4277 52.2191 67.1811 51.4602C67.9346 50.7014 68.3593 49.6731 68.3624 48.6V44.55H71.0433C73.1764 44.55 75.222 43.6966 76.7303 42.1776C78.2386 40.6585 79.086 38.5983 79.086 36.45C79.086 34.3017 78.2386 32.2415 76.7303 30.7224C75.222 29.2034 73.1764 28.35 71.0433 28.35ZM9.38308 41.85C7.96105 41.85 6.59727 41.2811 5.59174 40.2684C4.58622 39.2557 4.02132 37.8822 4.02132 36.45C4.02132 35.0178 4.58622 33.6443 5.59174 32.6316C6.59727 31.6189 7.96105 31.05 9.38308 31.05V41.85ZM14.7448 41.85H12.064V31.05H14.7448V41.85ZM50.9367 52.65H48.2558C47.9003 52.65 47.5594 52.5078 47.308 52.2546C47.0566 52.0014 46.9154 51.658 46.9154 51.3C46.9154 50.942 47.0566 50.5986 47.308 50.3454C47.5594 50.0922 47.9003 49.95 48.2558 49.95H50.9367C51.2922 49.95 51.6332 50.0922 51.8846 50.3454C52.1359 50.5986 52.2772 50.942 52.2772 51.3C52.2772 51.658 52.1359 52.0014 51.8846 52.2546C51.6332 52.5078 51.2922 52.65 50.9367 52.65ZM68.3624 41.85H65.6816V31.05H68.3624V41.85ZM71.0433 41.85V31.05C72.4654 31.05 73.8291 31.6189 74.8347 32.6316C75.8402 33.6443 76.4051 35.0178 76.4051 36.45C76.4051 37.8822 75.8402 39.2557 74.8347 40.2684C73.8291 41.2811 72.4654 41.85 71.0433 41.85Z" fill="#104CBA"></path></svg>