<svg xmlns="http://www.w3.org/2000/svg" width="67" height="67" viewBox="0 0 67 67" fill="none"><g clip-path="url(#clip0_916_31)"><path d="M57.0226 42.7993C57.0213 41.6449 56.5248 40.538 55.6423 39.7217C54.7597 38.9054 53.5632 38.4462 52.3151 38.4449H38.0692C40.0366 34.0343 40.0437 29.0839 38.0891 24.6685C38.072 24.6297 38.0525 24.5919 38.0305 24.5554C37.6286 23.8868 37.0331 23.335 36.3108 22.9623C35.5885 22.5897 34.7681 22.4108 33.9419 22.446C33.1157 22.4811 32.3165 22.7288 31.6342 23.1611C30.952 23.5935 30.4137 24.1934 30.0798 24.8934C30.0272 25.004 29.9956 25.1221 29.9864 25.2426L29.6501 29.6586C29.1467 32.1965 27.6663 34.4798 25.4828 36.0856C24.6083 36.3696 23.0072 37.3741 18.8301 41.0506V40.9408C18.8294 40.3619 18.5806 39.807 18.1381 39.3977C17.6956 38.9884 17.0956 38.7582 16.4699 38.7577H4.58857C3.96281 38.7582 3.36288 38.9884 2.92041 39.3977C2.47794 39.807 2.22908 40.362 2.22844 40.9408V62.8727C2.22889 63.4516 2.47767 64.0068 2.92016 64.4161C3.36265 64.8256 3.9627 65.0559 4.58857 65.0565H16.4691C17.0949 65.0559 17.6949 64.8258 18.1374 64.4165C18.5799 64.0072 18.8288 63.4522 18.8294 62.8734V62.7772C22.0965 63.4437 23.8017 64.236 25.7906 65.945C26.5725 66.6331 27.614 67.0116 28.6932 66.9998H47.1089C48.0025 67 48.8778 66.7649 49.6322 66.322C50.3867 65.8789 50.9893 65.2464 51.3693 64.4982C51.7493 63.7501 51.8911 62.9173 51.7781 62.0973C51.6652 61.2773 51.3022 60.504 50.7315 59.8679C52.2012 59.0502 53.2468 57.5862 53.2468 56.0306C53.248 55.0629 52.8988 54.1226 52.255 53.3598C53.752 52.5397 54.826 51.0258 54.826 49.4153C54.8272 48.5074 54.5198 47.6221 53.9474 46.8846C54.8493 46.5751 55.6273 46.0179 56.177 45.2876C56.7266 44.5574 57.0217 43.6892 57.0226 42.7993ZM16.5659 62.8731C16.5649 62.8965 16.5544 62.9188 16.5365 62.9354C16.5186 62.9519 16.4945 62.9617 16.4691 62.9625H4.58857C4.56323 62.9617 4.53919 62.9519 4.52126 62.9354C4.50333 62.9188 4.49286 62.8965 4.49194 62.8731V40.9412C4.49289 40.9177 4.50338 40.8955 4.5213 40.879C4.53921 40.8624 4.56324 40.8527 4.58857 40.8517H16.4691C16.4945 40.8527 16.5185 40.8624 16.5365 40.8789C16.5544 40.8955 16.5649 40.9177 16.5659 40.9412V62.8731ZM52.3151 45.0599H48.3816C48.0814 45.0599 47.7935 45.1702 47.5813 45.3665C47.3691 45.5628 47.2498 45.8292 47.2498 46.1068C47.2498 46.3844 47.3691 46.6508 47.5813 46.8471C47.7935 47.0434 48.0814 47.1537 48.3816 47.1537H50.1185C50.7664 47.1545 51.3875 47.393 51.8457 47.8167C52.3038 48.2405 52.5617 48.815 52.5626 49.4144C52.5626 50.5921 51.3043 51.7902 50.013 51.8937C49.5375 51.7485 49.04 51.6748 48.5393 51.6753C48.2392 51.6753 47.9513 51.7856 47.739 51.9819C47.5268 52.1782 47.4076 52.4445 47.4076 52.7221C47.4076 52.9998 47.5268 53.266 47.739 53.4624C47.9513 53.6587 48.2392 53.769 48.5393 53.769C48.8255 53.7687 49.1095 53.8152 49.3782 53.9061C49.4081 53.9183 49.4383 53.9293 49.4694 53.9389C49.917 54.11 50.2997 54.3998 50.5692 54.772C50.8385 55.1441 50.9826 55.5818 50.9832 56.0297C50.9832 57.1839 49.6749 58.359 48.3429 58.4422C47.9406 58.3412 47.5255 58.2902 47.1088 58.2904C46.8086 58.2904 46.5207 58.4007 46.3085 58.597C46.0963 58.7933 45.977 59.0597 45.977 59.3373C45.977 59.6149 46.0963 59.8813 46.3085 60.0776C46.5207 60.2739 46.8086 60.3842 47.1088 60.3842C47.3458 60.384 47.5815 60.4158 47.8087 60.4786C47.8354 60.4875 47.8626 60.4956 47.8904 60.5028C48.4397 60.674 48.9054 61.0203 49.2043 61.4799C49.503 61.9394 49.6155 62.4822 49.5216 63.0114C49.4277 63.5405 49.1335 64.0216 48.6915 64.3687C48.2496 64.7157 47.6886 64.9062 47.1089 64.906H28.6932C28.442 64.9112 28.1921 64.8701 27.9583 64.7852C27.7244 64.7001 27.5112 64.573 27.331 64.411C24.9274 62.3454 22.8264 61.4051 18.8294 60.6358V43.9574L19.0302 43.7767C24.5851 38.7867 25.9458 38.1388 26.2348 38.0602C26.4025 38.0282 26.5602 37.9616 26.6962 37.8652C29.4316 35.927 31.284 33.1122 31.889 29.9744C31.896 29.9377 31.9011 29.9006 31.904 29.8634L32.2294 25.5916C32.4131 25.2783 32.6835 25.0156 33.0127 24.8305C33.3419 24.6452 33.7184 24.5439 34.1036 24.5371C34.4889 24.5301 34.8692 24.6178 35.2061 24.7911C35.5428 24.9644 35.8239 25.217 36.0207 25.5235C36.9658 27.6847 37.39 30.0107 37.2637 32.3391C37.1374 34.6676 36.4637 36.9425 35.2894 39.0055C35.1989 39.165 35.1544 39.3435 35.1601 39.5236C35.166 39.7038 35.2221 39.8795 35.3229 40.0338C35.4236 40.188 35.5657 40.3156 35.7354 40.4041C35.9051 40.4926 36.0966 40.5392 36.2915 40.5392H52.3151C52.9601 40.5437 53.577 40.7839 54.0313 41.2073C54.4858 41.6309 54.7407 42.2033 54.7407 42.7999C54.7407 43.3966 54.4858 43.969 54.0313 44.3925C53.577 44.816 52.9601 45.0554 52.3151 45.0599ZM12.7294 44.2905V44.4167C12.7294 44.6944 12.6101 44.9607 12.3979 45.157C12.1857 45.3533 11.8978 45.4636 11.5976 45.4636C11.2975 45.4636 11.0096 45.3533 10.7974 45.157C10.5851 44.9607 10.4659 44.6944 10.4659 44.4167V44.2905C10.4659 44.0128 10.5851 43.7466 10.7974 43.5503C11.0096 43.3539 11.2975 43.2436 11.5976 43.2436C11.8978 43.2436 12.1857 43.3539 12.3979 43.5503C12.6101 43.7466 12.7294 44.0128 12.7294 44.2905ZM46.689 8.97457C46.6208 8.78027 46.4926 8.60866 46.3202 8.48094C46.1478 8.3532 45.9387 8.27493 45.7188 8.25576L37.6072 7.54912L34.3732 0.6314C34.2855 0.443873 34.1405 0.28417 33.9559 0.171976C33.7713 0.0597814 33.5552 0 33.3344 0C33.1135 0 32.8975 0.0597814 32.7128 0.171976C32.5283 0.28417 32.3832 0.443873 32.2955 0.6314L29.062 7.54899L20.9504 8.25563C20.7305 8.2748 20.5216 8.35307 20.3492 8.48078C20.1768 8.6085 20.0486 8.7801 19.9803 8.9744C19.912 9.1687 19.9068 9.37724 19.9651 9.5743C20.0234 9.77128 20.1427 9.94824 20.3084 10.0833L26.4217 15.0654L24.6418 22.4196C24.5935 22.619 24.6095 22.8271 24.6875 23.0182C24.7656 23.2093 24.9024 23.3751 25.081 23.4952C25.2597 23.6153 25.4725 23.6844 25.693 23.694C25.9137 23.7036 26.1325 23.6533 26.3226 23.5492L33.3344 19.711L40.3459 23.5495C40.5359 23.6535 40.7547 23.7038 40.9754 23.6943C41.1959 23.6847 41.4087 23.6156 41.5874 23.4955C41.7661 23.3754 41.9029 23.2096 41.9809 23.0184C42.059 22.8273 42.0749 22.6193 42.0267 22.42L40.2468 15.0656L46.3601 10.0836C46.526 9.94858 46.6455 9.7717 46.704 9.57464C46.7624 9.37749 46.7572 9.16895 46.689 8.97457ZM38.2486 13.9042C38.0964 14.0281 37.9831 14.1878 37.9204 14.3661C37.8577 14.5445 37.848 14.7352 37.8924 14.9183L39.2468 20.5145L33.9116 17.5936C33.737 17.4981 33.5379 17.4476 33.335 17.4476C33.1322 17.4476 32.9331 17.4981 32.7586 17.5936L27.4234 20.5145L28.777 14.9179C28.8214 14.7349 28.8117 14.5441 28.7491 14.3657C28.6863 14.1873 28.5731 14.0278 28.4209 13.9038L23.7692 10.1128L29.9415 9.57497C30.1434 9.5573 30.3365 9.48988 30.5006 9.37958C30.6646 9.26937 30.7936 9.12029 30.8741 8.9481L33.3344 3.68486L35.7947 8.94852C35.8751 9.12071 36.0042 9.2697 36.1682 9.38C36.3323 9.4903 36.5253 9.55772 36.7272 9.57531L42.8996 10.1131L38.2486 13.9042ZM66.6139 15.109C66.5458 14.9146 66.4175 14.743 66.2451 14.6153C66.0727 14.4876 65.8636 14.4094 65.6438 14.3902L59.9274 13.8921L57.6482 9.0172C57.5605 8.82968 57.4155 8.66997 57.2309 8.55783C57.0463 8.4456 56.8303 8.3858 56.6094 8.3858C56.3886 8.3858 56.1725 8.4456 55.9879 8.55783C55.8033 8.66997 55.6583 8.82968 55.5706 9.0172L53.2921 13.8921L47.5756 14.3902C47.3557 14.4093 47.1466 14.4876 46.9742 14.6153C46.8019 14.743 46.6736 14.9146 46.6053 15.1089C46.5371 15.3033 46.5318 15.5118 46.5902 15.7089C46.6485 15.906 46.7679 16.0829 46.9337 16.218L51.2418 19.7288L49.9875 24.9116C49.9393 25.111 49.9552 25.3191 50.0332 25.5103C50.1114 25.7014 50.2482 25.8672 50.4269 25.9873C50.6057 26.1073 50.8185 26.1764 51.0391 26.1859C51.2598 26.1955 51.4787 26.1451 51.6688 26.0409L56.6098 23.3359L61.5505 26.0409C61.7406 26.145 61.9594 26.1953 62.1801 26.1858C62.4007 26.1762 62.6135 26.1071 62.7922 25.987C62.9709 25.8669 63.1077 25.7011 63.1858 25.5099C63.2638 25.3188 63.2797 25.1108 63.2314 24.9114L61.977 19.7286L66.285 16.2178C66.4507 16.0827 66.5701 15.9058 66.6284 15.7087C66.6867 15.5118 66.6822 15.3032 66.6139 15.109ZM59.979 18.5675C59.8269 18.6914 59.7136 18.851 59.6509 19.0294C59.5883 19.2078 59.5786 19.3985 59.6228 19.5816L60.4517 23.0061L57.186 21.2187C57.0115 21.1232 56.8124 21.0728 56.6096 21.0728C56.4068 21.0728 56.2077 21.1232 56.0331 21.2187L52.7684 23.0061L53.5971 19.5816C53.6414 19.3985 53.6317 19.2078 53.569 19.0294C53.5064 18.851 53.393 18.6914 53.2409 18.5675L50.3941 16.2477L54.1713 15.9184C54.3732 15.9009 54.5663 15.8334 54.7304 15.7231C54.8945 15.6128 55.0236 15.4639 55.1041 15.2917L56.6096 12.0706L58.1151 15.2917C58.1956 15.4639 58.3246 15.6128 58.4886 15.7231C58.6527 15.8334 58.8458 15.9009 59.0477 15.9184L62.825 16.2477L59.979 18.5675ZM19.0945 14.3902L13.3782 13.8921L11.0981 9.0172C11.0105 8.82968 10.8654 8.66997 10.6808 8.55783C10.4963 8.4456 10.2802 8.3858 10.0593 8.3858C9.83841 8.3858 9.62238 8.4456 9.43785 8.55783C9.25324 8.66997 9.1082 8.82968 9.02051 9.0172L6.74201 13.8921L1.02567 14.3902C0.805753 14.4093 0.5967 14.4876 0.424286 14.6153C0.251872 14.743 0.123634 14.9146 0.055381 15.1089C-0.0128716 15.3033 -0.0181547 15.5118 0.0401828 15.7089C0.0985199 15.906 0.217928 16.0829 0.383685 16.218L4.6917 19.7288L3.43729 24.9116C3.3891 25.1109 3.40503 25.3191 3.48311 25.5101C3.56119 25.7012 3.698 25.867 3.87669 25.987C4.05538 26.1071 4.26814 26.1761 4.48875 26.1857C4.70936 26.1953 4.92818 26.145 5.11823 26.0409L10.0593 23.3359L14.9999 26.0409C15.1901 26.145 15.4089 26.1952 15.6295 26.1857C15.8501 26.1761 16.0629 26.107 16.2415 25.9869C16.4203 25.8669 16.5571 25.701 16.6351 25.5099C16.7131 25.3188 16.729 25.1107 16.6807 24.9114L15.4264 19.7286L19.7345 16.2178C19.9003 16.0827 20.0197 15.9057 20.078 15.7087C20.1364 15.5116 20.1311 15.3031 20.0628 15.1087C19.9946 14.9144 19.8663 14.7428 19.6939 14.615C19.5215 14.4873 19.3125 14.409 19.0926 14.3899L19.0945 14.3902ZM13.4295 18.5675C13.2774 18.6914 13.1641 18.851 13.1014 19.0294C13.0387 19.2078 13.0291 19.3985 13.0733 19.5816L13.902 23.006L10.6358 21.2187C10.4612 21.1232 10.2621 21.0728 10.0593 21.0728C9.85651 21.0728 9.65742 21.1232 9.48285 21.2187L6.21801 23.0061L7.04688 19.5816C7.09118 19.3985 7.08148 19.2078 7.01882 19.0294C6.95616 18.851 6.84282 18.6914 6.69066 18.5675L3.84402 16.2477L7.62124 15.9184C7.82315 15.9009 8.01626 15.8334 8.18035 15.7231C8.34442 15.6128 8.47345 15.4639 8.55394 15.2917L10.0593 12.0707L11.5648 15.2917C11.6453 15.4639 11.7743 15.6128 11.9384 15.7231C12.1025 15.8334 12.2955 15.9009 12.4974 15.9184L16.2746 16.2477L13.4295 18.5675Z" fill="#104CBA"></path></g><defs><clipPath id="clip0_916_31"><rect width="67" height="67" fill="white"></rect></clipPath></defs></svg>