<svg xmlns="http://www.w3.org/2000/svg" width="80" height="80" viewBox="0 0 80 80" fill="none"><g id="Vector"><path d="M40 0C35.5817 0 32 3.58167 32 8C32 12.4183 35.5817 16 40 16C44.4165 15.9957 47.9957 12.4165 48 8C48 3.58167 44.4183 0 40 0ZM40 13.3333C37.0545 13.3333 34.6667 10.9455 34.6667 8C34.6667 5.0545 37.0545 2.66667 40 2.66667C42.9455 2.66667 45.3333 5.0545 45.3333 8C45.3333 10.9455 42.9455 13.3333 40 13.3333Z" fill="#104CBA"></path><path d="M45.3333 17.3333H45.0187L44.7373 17.4733C41.7538 18.9588 38.2462 18.9588 35.2627 17.4733L34.9813 17.3333H34.6667C30.9867 17.3377 28.0043 20.32 28 24V32C28 34.2092 29.7908 36 32 36H48C50.2092 36 52 34.2092 52 32V24C51.9957 20.32 49.0133 17.3377 45.3333 17.3333ZM49.3333 32C49.3333 32.7363 48.7363 33.3333 48 33.3333H32C31.2637 33.3333 30.6667 32.7363 30.6667 32V24C30.667 21.9013 32.2892 20.1597 34.3827 20.0107C37.9452 21.664 42.055 21.664 45.6173 20.0107C47.7107 20.1597 49.333 21.9013 49.3333 24V32Z" fill="#104CBA"></path><path d="M68 44C63.5817 44 60 47.5817 60 52C60 56.4183 63.5817 60 68 60C72.4183 60 76 56.4183 76 52C75.9957 47.5835 72.4165 44.0043 68 44ZM68 57.3333C65.0545 57.3333 62.6667 54.9455 62.6667 52C62.6667 49.0545 65.0545 46.6667 68 46.6667C70.9455 46.6667 73.3333 49.0545 73.3333 52C73.3333 54.9455 70.9455 57.3333 68 57.3333Z" fill="#104CBA"></path><path d="M73.3333 61.3333H73.0187L72.7373 61.4667C69.7538 62.952 66.2462 62.952 63.2627 61.4667L62.9813 61.3333H62.6667C58.9867 61.3377 56.0043 64.32 56 68V76C56 78.2092 57.7908 80 60 80H76C78.2092 80 80 78.2092 80 76V68C79.9957 64.32 77.0133 61.3377 73.3333 61.3333ZM77.3333 76C77.3333 76.7363 76.7363 77.3333 76 77.3333H60C59.2637 77.3333 58.6667 76.7363 58.6667 76V68C58.667 65.9013 60.2892 64.1597 62.3827 64.0107C65.9452 65.664 70.0548 65.664 73.6173 64.0107C75.7108 64.1597 77.333 65.9013 77.3333 68V76Z" fill="#104CBA"></path><path d="M12 44C7.58167 44 4 47.5817 4 52C4 56.4183 7.58167 60 12 60C16.4183 60 20 56.4183 20 52C19.9957 47.5835 16.4165 44.0043 12 44ZM12 57.3333C9.0545 57.3333 6.66667 54.9455 6.66667 52C6.66667 49.0545 9.0545 46.6667 12 46.6667C14.9455 46.6667 17.3333 49.0545 17.3333 52C17.3333 54.9455 14.9455 57.3333 12 57.3333Z" fill="#104CBA"></path><path d="M17.3333 61.3333H17.0187L16.7373 61.4667C13.7538 62.952 10.2462 62.952 7.26267 61.4667L6.98133 61.3333H6.66667C2.98667 61.3377 0.00433333 64.32 0 68V76C0 78.2092 1.79083 80 4 80H20C22.2092 80 24 78.2092 24 76V68C23.9957 64.32 21.0133 61.3377 17.3333 61.3333ZM21.3333 76C21.3333 76.7363 20.7363 77.3333 20 77.3333H4C3.26367 77.3333 2.66667 76.7363 2.66667 76V68C2.667 65.9013 4.28917 64.1597 6.38267 64.0107C9.94517 65.664 14.0548 65.664 17.6173 64.0107C19.7108 64.1597 21.333 65.9013 21.3333 68V76Z" fill="#104CBA"></path><path d="M53.2287 67.7127C53.228 67.7112 53.2273 67.7097 53.2267 67.708C52.938 67.0305 52.1548 66.7153 51.4775 67.004C45.4567 69.5273 38.77 69.9877 32.4602 68.3133L33.7082 67.9467C34.4152 67.7397 34.8205 66.999 34.6135 66.292C34.4065 65.585 33.6658 65.1797 32.9588 65.3867L27.6255 66.9507C27.6055 66.9507 27.5908 66.9733 27.5722 66.98C27.4487 67.026 27.3327 67.0903 27.2282 67.1707C27.1818 67.1957 27.1373 67.2237 27.0948 67.2547C26.9542 67.3802 26.8427 67.5348 26.7682 67.708C26.6958 67.8823 26.6613 68.07 26.6668 68.2587C26.6993 68.4392 26.7438 68.6173 26.8002 68.792C26.8082 68.8107 26.8002 68.832 26.8148 68.8507L29.4815 73.9533C29.8225 74.6065 30.6283 74.8597 31.2815 74.5187C31.9347 74.1777 32.1878 73.3718 31.8468 72.7187L30.7615 70.644C37.9305 72.799 45.6273 72.3802 52.5202 69.46C53.1982 69.1732 53.5155 68.3908 53.2287 67.7127Z" fill="#104CBA"></path><path d="M75.6093 35.0573C75.0887 34.5368 74.2447 34.5368 73.724 35.0573L71.8373 36.944C70.7333 25.2657 63.3188 15.1313 52.5227 10.544C51.8452 10.2553 51.062 10.5705 50.7733 11.248C50.4847 11.9255 50.7998 12.7087 51.4773 12.9973C61.1623 17.1135 67.8947 26.1088 69.1133 36.5613L67.6093 35.0573C67.0797 34.5457 66.2357 34.5603 65.724 35.09C65.225 35.6067 65.225 36.4258 65.724 36.9427L69.724 40.9427C70.244 41.464 71.0883 41.4652 71.6097 40.945C71.6105 40.9442 71.6113 40.9433 71.612 40.9427L75.612 36.9427C76.1318 36.4213 76.1307 35.5773 75.6093 35.0573Z" fill="#104CBA"></path><path d="M29.2947 11.5453C29.2903 11.4675 29.2788 11.3903 29.26 11.3147C29.26 11.3027 29.2453 11.2947 29.24 11.2813C29.2347 11.268 29.24 11.2587 29.24 11.248C29.2037 11.1832 29.1617 11.1215 29.1147 11.064C29.0715 10.9858 29.0205 10.9122 28.9627 10.844C28.8838 10.7742 28.7965 10.7147 28.7027 10.6667C28.6558 10.6268 28.6058 10.5907 28.5533 10.5587L23.22 8.12267C22.5388 7.843 21.7598 8.1685 21.4802 8.84967C21.2157 9.49383 21.4915 10.2332 22.1133 10.5467L24.8747 11.8093C14.4792 17.3728 7.9925 28.2093 8 40C8 40.7363 8.597 41.3333 9.33333 41.3333C10.0697 41.3333 10.6667 40.7363 10.6667 40C10.66 29.6178 16.1502 20.008 25.0973 14.7413L24.1333 16.756C23.8155 17.4188 24.094 18.2138 24.756 18.5333C24.9358 18.6212 25.1332 18.6668 25.3333 18.6667C25.8453 18.666 26.3117 18.3722 26.5333 17.9107L29.2 12.3467C29.2 12.3333 29.2 12.3187 29.2107 12.3053C29.2453 12.2142 29.2695 12.1193 29.2827 12.0227C29.3055 11.9508 29.3225 11.8773 29.3333 11.8027C29.3288 11.7158 29.316 11.6297 29.2947 11.5453Z" fill="#104CBA"></path></g></svg>