<svg xmlns="http://www.w3.org/2000/svg" width="60" height="60" viewBox="0 0 60 60" fill="none"><g id="Vector"><path d="M52.2581 42.5865V38.7097C52.2565 37.4268 51.7462 36.197 50.8391 35.2899C49.932 34.3828 48.7022 33.8725 47.4194 33.871H39.2729C40.1686 32.2186 40.8912 30.478 41.429 28.6771L45.1064 25.7342C45.6781 25.2778 46.0959 24.6571 46.3037 23.9558C46.5114 23.2545 46.4991 22.5064 46.2682 21.8123C46.0374 21.1183 45.5992 20.5117 45.0129 20.0745C44.4265 19.6373 43.7201 19.3905 42.989 19.3674L45.1452 13.439C45.6953 11.9261 45.8727 10.3028 45.6622 8.70675C45.4518 7.11069 44.8597 5.58887 43.9362 4.27024C43.0126 2.9516 41.7849 1.87501 40.3569 1.13166C38.9289 0.388321 37.3428 0.000137388 35.7329 1.01965e-06H27.5168C21.369 -0.00153226 15.3448 1.7262 10.1323 4.98581C9.97564 5.08282 9.84998 5.22252 9.77002 5.38849C9.69006 5.55446 9.65915 5.73981 9.68089 5.92275C9.70264 6.10569 9.77616 6.27861 9.8928 6.42121C10.0094 6.56381 10.1644 6.67015 10.3394 6.72774L12.6726 7.50194C12.9937 7.60906 13.2896 7.78067 13.542 8.00623C13.7945 8.2318 13.9981 8.50656 14.1406 8.81366C14.283 9.12076 14.3613 9.45373 14.3704 9.79214C14.3796 10.1305 14.3195 10.4673 14.1939 10.7816C13.962 11.3611 13.8555 11.9832 13.8813 12.6069C13.9072 13.2305 14.0648 13.8416 14.3439 14.4L16.8387 19.3848C16.125 19.4417 15.4449 19.7118 14.8866 20.1601C14.3284 20.6084 13.9178 21.2142 13.7083 21.8988C13.4988 22.5834 13.4999 23.3153 13.7116 23.9992C13.9233 24.6832 14.3358 25.2877 14.8955 25.7342L18.5729 28.6771C19.1101 30.478 19.832 32.2185 20.7271 33.871H12.5806C11.2978 33.8725 10.068 34.3828 9.16086 35.2899C8.25376 36.197 7.74347 37.4268 7.74194 38.7097V42.5865C5.45153 43.5433 3.49481 45.1554 2.11744 47.2204C0.740072 49.2854 0.00343203 51.7113 0 54.1935V59.0323C0 59.2889 0.101958 59.5351 0.283445 59.7166C0.464932 59.898 0.711081 60 0.967742 60H59.0323C59.2889 60 59.5351 59.898 59.7166 59.7166C59.898 59.5351 60 59.2889 60 59.0323V54.1935C59.9966 51.7113 59.2599 49.2854 57.8826 47.2204C56.5052 45.1554 54.5485 43.5433 52.2581 42.5865ZM31.9355 19.3548C31.6788 19.3548 31.4327 19.4568 31.2512 19.6383C31.0697 19.8198 30.9677 20.0659 30.9677 20.3226V21.2903H29.0323V20.3226C29.0323 20.0659 28.9303 19.8198 28.7488 19.6383C28.5673 19.4568 28.3212 19.3548 28.0645 19.3548H19.3548V17.9371L25.3955 13.9103C26.6954 13.0419 28.2238 12.5791 29.7871 12.5806C32.0236 12.578 34.1931 11.8169 35.941 10.4216L37.5223 9.15677L39.1819 11.6477C40.1375 13.0776 40.6468 14.759 40.6452 16.4787V19.3548H31.9355ZM36.7742 21.2903V24.1936C36.7742 24.4502 36.6722 24.6964 36.4907 24.8778C36.3093 25.0593 36.0631 25.1613 35.8064 25.1613H33.871C33.6143 25.1613 33.3682 25.0593 33.1867 24.8778C33.0052 24.6964 32.9032 24.4502 32.9032 24.1936V21.2903H36.7742ZM27.0968 21.2903V24.1936C27.0968 24.4502 26.9948 24.6964 26.8133 24.8778C26.6318 25.0593 26.3857 25.1613 26.129 25.1613H24.1935C23.9369 25.1613 23.6907 25.0593 23.5093 24.8778C23.3278 24.6964 23.2258 24.4502 23.2258 24.1936V21.2903H27.0968ZM44.5161 22.9355C44.5166 23.1824 44.4614 23.4262 44.3545 23.6487C44.2475 23.8712 44.0918 24.0667 43.8987 24.2206L42.1442 25.6239C42.3999 24.1929 42.5407 22.7438 42.5652 21.2903H42.871C43.087 21.2903 43.3009 21.3329 43.5005 21.4156C43.7001 21.4982 43.8815 21.6194 44.0343 21.7722C44.187 21.9249 44.3082 22.1063 44.3909 22.3059C44.4736 22.5055 44.5161 22.7194 44.5161 22.9355ZM15.99 11.5006C16.2136 10.9415 16.3206 10.3426 16.3044 9.74062C16.2882 9.13865 16.1493 8.54633 15.896 8C15.6427 7.45367 15.2805 6.96485 14.8315 6.56352C14.3826 6.16219 13.8564 5.85681 13.2852 5.66613L12.989 5.56936C17.4594 3.18269 22.4492 1.93459 27.5168 1.93548H35.7329C37.0313 1.93573 38.3105 2.24885 39.4623 2.84834C40.614 3.44782 41.6043 4.31602 42.3494 5.37941C43.0944 6.4428 43.5722 7.67006 43.7424 8.95728C43.9125 10.2445 43.7699 11.5538 43.3268 12.7742L42.4858 15.0871C42.2756 13.4712 41.6961 11.9255 40.7923 10.5697L38.5471 7.20097C38.4726 7.08939 38.3757 6.99452 38.2626 6.92238C38.1495 6.85025 38.0226 6.80242 37.89 6.78194C37.7575 6.76192 37.6222 6.76938 37.4927 6.80384C37.3632 6.8383 37.2422 6.89903 37.1371 6.98226L34.7323 8.91097C33.3272 10.0313 31.5841 10.6426 29.7871 10.6452C27.8415 10.6434 25.9392 11.2193 24.3213 12.3L17.85 16.6142C17.79 16.6549 17.7348 16.7023 17.6855 16.7555L16.0752 13.5339C15.9182 13.2202 15.8295 12.8768 15.8148 12.5264C15.8002 12.1759 15.8599 11.8264 15.99 11.5006ZM16.1023 24.2226C15.8351 24.0099 15.6408 23.7195 15.5462 23.3914C15.4516 23.0634 15.4614 22.714 15.5742 22.3918C15.687 22.0695 15.8973 21.7904 16.1759 21.593C16.4545 21.3957 16.7876 21.2899 17.129 21.2903H17.4329C17.4572 22.7444 17.598 24.1942 17.8539 25.6258L16.1023 24.2226ZM19.3703 21.2903H21.2903V24.1936C21.2903 24.9635 21.5962 25.702 22.1407 26.2464C22.6851 26.7909 23.4236 27.0968 24.1935 27.0968H26.129C26.899 27.0968 27.6375 26.7909 28.1819 26.2464C28.7264 25.702 29.0323 24.9635 29.0323 24.1936V23.2258H30.9677V24.1936C30.9677 24.9635 31.2736 25.702 31.8181 26.2464C32.3625 26.7909 33.101 27.0968 33.871 27.0968H35.8064C36.5764 27.0968 37.3149 26.7909 37.8593 26.2464C38.4038 25.702 38.7097 24.9635 38.7097 24.1936V21.2903H40.6297C40.5545 25.7259 39.3162 30.0641 37.0384 33.871H22.9616C20.6838 30.0641 19.4455 25.7259 19.3703 21.2903ZM12.5806 35.8064H47.4194C48.1893 35.8064 48.9278 36.1123 49.4722 36.6568C50.0167 37.2012 50.3226 37.9397 50.3226 38.7097V58.0645H9.67742V38.7097C9.67742 37.9397 9.98329 37.2012 10.5278 36.6568C11.0722 36.1123 11.8107 35.8064 12.5806 35.8064ZM1.93548 54.1935C1.93811 52.2327 2.48152 50.3105 3.50595 48.6384C4.53037 46.9664 5.99611 45.6093 7.74194 44.7164V58.0645H1.93548V54.1935ZM58.0645 58.0645H52.2581V44.7164C54.0038 45.6094 55.4695 46.9665 56.4939 48.6385C57.5183 50.3105 58.0618 52.2327 58.0645 54.1935V58.0645Z" fill="#104CBA"></path><path d="M30 55.1613C30.7656 55.1613 31.514 54.9343 32.1506 54.5089C32.7872 54.0836 33.2833 53.479 33.5763 52.7717C33.8693 52.0644 33.9459 51.286 33.7966 50.5351C33.6472 49.7842 33.2785 49.0945 32.7372 48.5531C32.1958 48.0118 31.5061 47.6431 30.7552 47.4937C30.0043 47.3444 29.226 47.421 28.5186 47.714C27.8113 48.007 27.2068 48.5031 26.7814 49.1397C26.3561 49.7763 26.129 50.5247 26.129 51.2903C26.129 52.317 26.5369 53.3016 27.2628 54.0275C27.9888 54.7535 28.9734 55.1613 30 55.1613ZM30 49.3548C30.3828 49.3548 30.757 49.4683 31.0753 49.681C31.3936 49.8937 31.6417 50.196 31.7882 50.5496C31.9346 50.9033 31.973 51.2925 31.8983 51.6679C31.8236 52.0434 31.6393 52.3882 31.3686 52.6589C31.0979 52.9296 30.753 53.1139 30.3776 53.1886C30.0021 53.2633 29.613 53.225 29.2593 53.0785C28.9057 52.932 28.6034 52.6839 28.3907 52.3656C28.178 52.0473 28.0645 51.6731 28.0645 51.2903C28.0645 50.777 28.2684 50.2847 28.6314 49.9217C28.9944 49.5588 29.4867 49.3548 30 49.3548Z" fill="#104CBA"></path><path d="M23.5094 46.1681L24.8777 44.7997L21.691 41.6129L24.8777 38.4261L23.5094 37.0577L19.6384 40.9287C19.457 41.1102 19.355 41.3563 19.355 41.6129C19.355 41.8695 19.457 42.1156 19.6384 42.2971L23.5094 46.1681Z" fill="#104CBA"></path><path d="M36.4906 46.1681L40.3616 42.2971C40.543 42.1156 40.645 41.8695 40.645 41.6129C40.645 41.3563 40.543 41.1102 40.3616 40.9287L36.4906 37.0577L35.1223 38.4261L38.309 41.6129L35.1223 44.7997L36.4906 46.1681Z" fill="#104CBA"></path><path d="M32.1297 37.1613L26.3218 44.9021L27.87 46.0637L33.6779 38.3228L32.1297 37.1613Z" fill="#104CBA"></path></g></svg>