<svg xmlns="http://www.w3.org/2000/svg" width="80" height="80" viewBox="0 0 80 80" fill="none"><path d="M64 32C72.8229 32 80 24.8229 80 16C80 7.17708 72.8229 0 64 0C57.5931 0 52.069 3.79362 49.5163 9.24544L45.2318 7.66406C45.2826 7.33594 45.3333 7.00781 45.3333 6.66667C45.3333 2.99089 42.3424 0 38.6667 0C34.9909 0 32 2.99089 32 6.66667C32 10.3424 34.9909 13.3333 38.6667 13.3333C41.0547 13.3333 43.1374 12.0599 44.3145 10.168L48.5918 11.7467C48.2161 13.1042 48 14.5254 48 16C48 17.7467 48.2904 19.4238 48.8105 20.9987L34.1465 27.2135C31.4616 22.1374 26.1322 18.6667 20 18.6667C18.013 18.6667 16.1172 19.0482 14.36 19.7122L10.6719 11.9616C12.2786 10.7428 13.3333 8.83333 13.3333 6.66667C13.3333 2.99089 10.3424 0 6.66667 0C2.99089 0 0 2.99089 0 6.66667C0 10.3424 2.99089 13.3333 6.66667 13.3333C7.22135 13.3333 7.75326 13.2454 8.26953 13.1159L11.9531 20.8587C7.20508 23.6374 4 28.7786 4 34.6667C4 40.1973 6.82162 45.0788 11.099 47.9531L8.66016 52.3372C8.02539 52.1374 7.36523 52 6.66667 52C2.99089 52 0 54.9909 0 58.6667C0 62.3424 2.99089 65.3333 6.66667 65.3333C10.3424 65.3333 13.3333 62.3424 13.3333 58.6667C13.3333 56.6478 12.4121 54.8574 10.9909 53.6348L13.4349 49.2415C15.4401 50.1491 17.6589 50.6667 20 50.6667C23.6589 50.6667 27.0241 49.4186 29.7227 47.3438L34.9707 53.1172C32.3092 55.9759 30.6667 59.7949 30.6667 64C30.6667 64.8158 30.748 65.6107 30.8652 66.3932L24.6908 67.8587C23.6283 65.5866 21.3359 64 18.6667 64C14.9909 64 12 66.9909 12 70.6667C12 74.3425 14.9909 77.3333 18.6667 77.3333C22.3424 77.3333 25.3333 74.3425 25.3333 70.6667C25.3333 70.5931 25.3132 70.5241 25.3118 70.4505L31.4746 68.9896C33.5762 75.3744 39.5866 80 46.6667 80C55.4896 80 62.6667 72.8229 62.6667 64C62.6667 61.2643 61.9746 58.6882 60.7585 56.4349L68.5905 51.3424C69.8014 52.569 71.4785 53.3333 73.3333 53.3333C77.0091 53.3333 80 50.3424 80 46.6667C80 42.9909 77.0091 40 73.3333 40C69.6576 40 66.6667 42.9909 66.6667 46.6667C66.6667 47.528 66.8437 48.3464 67.1426 49.1029L59.2923 54.2064C57.7214 52.1869 55.6816 50.556 53.3333 49.4733L59.8411 31.4323C61.1693 31.7904 62.5599 32 64 32ZM38.6667 10.6667C36.4616 10.6667 34.6667 8.87175 34.6667 6.66667C34.6667 4.46159 36.4616 2.66667 38.6667 2.66667C40.8717 2.66667 42.6667 4.46159 42.6667 6.66667C42.6667 8.87175 40.8717 10.6667 38.6667 10.6667ZM2.66667 6.66667C2.66667 4.46159 4.46159 2.66667 6.66667 2.66667C8.87175 2.66667 10.6667 4.46159 10.6667 6.66667C10.6667 8.87175 8.87175 10.6667 6.66667 10.6667C4.46159 10.6667 2.66667 8.87175 2.66667 6.66667ZM6.66667 62.6667C4.46159 62.6667 2.66667 60.8717 2.66667 58.6667C2.66667 56.4616 4.46159 54.6667 6.66667 54.6667C8.87175 54.6667 10.6667 56.4616 10.6667 58.6667C10.6667 60.8717 8.87175 62.6667 6.66667 62.6667ZM18.6667 74.6667C16.4616 74.6667 14.6667 72.8717 14.6667 70.6667C14.6667 68.4616 16.4616 66.6667 18.6667 66.6667C20.8717 66.6667 22.6667 68.4616 22.6667 70.6667C22.6667 72.8717 20.8717 74.6667 18.6667 74.6667ZM73.3333 42.6667C75.5384 42.6667 77.3333 44.4616 77.3333 46.6667C77.3333 48.8717 75.5384 50.6667 73.3333 50.6667C71.1283 50.6667 69.3333 48.8717 69.3333 46.6667C69.3333 44.4616 71.1283 42.6667 73.3333 42.6667ZM56.1478 26.752C56.7428 23.668 59.4616 21.3333 62.6667 21.3333H65.3333C68.5384 21.3333 71.2572 23.668 71.8522 26.752C69.6465 28.3665 66.9375 29.3333 64 29.3333C61.0625 29.3333 58.3535 28.3665 56.1478 26.752ZM64 18.6667C61.7949 18.6667 60 16.8717 60 14.6667C60 12.4616 61.7949 10.6667 64 10.6667C66.2051 10.6667 68 12.4616 68 14.6667C68 16.8717 66.2051 18.6667 64 18.6667ZM64 2.66667C71.3522 2.66667 77.3333 8.64779 77.3333 16C77.3333 19.3333 76.0944 22.3789 74.0638 24.7188C73.1296 22.2585 71.1816 20.2949 68.7546 19.3255C69.9349 18.1224 70.6667 16.4798 70.6667 14.6667C70.6667 10.9909 67.6758 8 64 8C60.3242 8 57.3333 10.9909 57.3333 14.6667C57.3333 16.4798 58.0651 18.1224 59.2454 19.3255C56.8184 20.2949 54.8704 22.2585 53.9362 24.7188C51.9056 22.3789 50.6667 19.3333 50.6667 16C50.6667 8.64779 56.6478 2.66667 64 2.66667ZM6.66667 34.6667C6.66667 27.3145 12.6478 21.3333 20 21.3333C27.3522 21.3333 33.3333 27.3145 33.3333 34.6667C33.3333 38.0104 32.0866 41.0638 30.0456 43.4069C29.1146 40.9375 27.1628 38.9642 24.7292 37.9922C25.9082 36.7891 26.64 35.1465 26.64 33.3333C26.64 29.6576 23.6491 26.6667 19.9733 26.6667C16.2975 26.6667 13.3066 29.6576 13.3066 33.3333C13.3066 35.1465 14.0384 36.7891 15.2188 37.9922C12.7988 38.957 10.8535 40.9134 9.91602 43.3639C7.89714 41.0267 6.66667 37.9909 6.66667 34.6667ZM15.9733 33.3333C15.9733 31.1283 17.7682 29.3333 19.9733 29.3333C22.1784 29.3333 23.9733 31.1283 23.9733 33.3333C23.9733 35.5384 22.1784 37.3333 19.9733 37.3333C17.7682 37.3333 15.9733 35.5384 15.9733 33.3333ZM12.1257 45.401C12.7266 42.3255 15.4414 40 18.64 40H21.3066C24.5176 40 27.2415 42.3424 27.8281 45.4362C25.627 47.041 22.9264 48 20 48C17.0521 48 14.3346 47.0267 12.1257 45.401ZM38.7923 74.7344C39.3932 71.6589 42.1081 69.3333 45.3066 69.3333H47.9733C51.1842 69.3333 53.9082 71.6758 54.4948 74.7695C52.2936 76.3743 49.5931 77.3333 46.6667 77.3333C43.7188 77.3333 41.0013 76.36 38.7923 74.7344ZM46.64 66.6667C44.4349 66.6667 42.64 64.8717 42.64 62.6667C42.64 60.4616 44.4349 58.6667 46.64 58.6667C48.8451 58.6667 50.64 60.4616 50.64 62.6667C50.64 64.8717 48.8451 66.6667 46.64 66.6667ZM60 64C60 67.3438 58.7533 70.3971 56.7122 72.7402C55.7813 70.2708 53.8294 68.2975 51.3958 67.3255C52.5749 66.1224 53.3066 64.4798 53.3066 62.6667C53.3066 58.9909 50.3158 56 46.64 56C42.9642 56 39.9733 58.9909 39.9733 62.6667C39.9733 64.4798 40.7051 66.1224 41.8854 67.3255C39.4655 68.2904 37.5202 70.2467 36.5827 72.6973C34.5638 70.36 33.3333 67.3242 33.3333 64C33.3333 56.6478 39.3145 50.6667 46.6667 50.6667C54.0189 50.6667 60 56.6478 60 64ZM50.8255 48.5677C49.4974 48.2096 48.1068 48 46.6667 48C43.0078 48 39.6426 49.248 36.944 51.3229L31.696 45.5495C34.3574 42.6908 36 38.8717 36 34.6667C36 32.9199 35.7096 31.2428 35.1895 29.668L49.8535 23.4531C51.4961 26.5586 54.1322 29.0508 57.3346 30.5267L50.8255 48.5677Z" fill="#104CBA"></path></svg>