<svg xmlns="http://www.w3.org/2000/svg" width="60" height="60" viewBox="0 0 60 60" fill="none"><g id="Vector"><path d="M54.88 12.2191C54.01 8.52941 49.41 5.9996 47 5.9996C45.4141 5.94256 43.8329 6.20438 42.35 6.76954C39.13 2.45988 34.67 6.53997e-05 30 6.53997e-05C27.3998 -0.00725044 24.8346 0.599313 22.5131 1.77041C20.1915 2.94151 18.1793 4.64405 16.64 6.73954C15.4906 6.24467 14.2514 5.99275 13 5.9996C11.3064 6.0011 9.67054 6.61557 8.39482 7.72944C7.11909 8.84331 6.28973 10.3813 6.06 12.0591C4.38203 12.2888 2.84393 13.1181 1.72997 14.3938C0.616012 15.6694 0.00149825 17.3051 0 18.9986C0.00185438 21.9152 1.16138 24.7118 3.22387 26.7741C5.28637 28.8365 8.08319 29.9959 11 29.9977H15V32.0376C12.3226 32.2284 9.7566 33.1848 7.60754 34.7929C5.45849 36.4009 3.81703 38.5928 2.87872 41.1074C1.94041 43.622 1.7448 46.3533 2.3152 48.9759C2.8856 51.5986 4.19796 54.002 6.09594 55.8998C7.99392 57.7976 10.3975 59.1099 13.0203 59.6803C15.6432 60.2506 18.3747 60.055 20.8895 59.1168C23.4043 58.1785 25.5963 56.5372 27.2045 54.3883C28.8127 52.2394 29.7691 49.6736 29.96 46.9964H36V44.9966H29C28.7348 44.9966 28.4804 45.1019 28.2929 45.2895C28.1054 45.477 28 45.7313 28 45.9965C28 48.3697 27.2962 50.6896 25.9776 52.6628C24.6591 54.6361 22.7849 56.174 20.5922 57.0822C18.3995 57.9904 15.9867 58.228 13.6589 57.765C11.3311 57.302 9.19295 56.1592 7.51472 54.4811C5.83649 52.803 4.6936 50.665 4.23058 48.3374C3.76755 46.0098 4.00519 43.5972 4.91345 41.4047C5.8217 39.2121 7.35977 37.3381 9.33316 36.0196C11.3065 34.7012 13.6266 33.9974 16 33.9974C16.2652 33.9974 16.5196 33.8921 16.7071 33.7046C16.8946 33.517 17 33.2627 17 32.9975V29.9977H52C56.71 29.9977 60 26.298 60 20.9984C60 16.5788 58.1 13.349 54.88 12.2191ZM52 27.9979H39C38.4692 27.9689 37.9526 27.8153 37.4922 27.5495C37.0319 27.2837 36.6405 26.9132 36.35 26.468C36.0367 26.0792 35.8162 25.624 35.7053 25.1371C35.5944 24.6502 35.596 24.1444 35.71 23.6582C36.0008 22.7847 36.6265 22.0623 37.4497 21.6499C38.2729 21.2374 39.2261 21.1685 40.1 21.4584L40.73 19.5686C40.0485 19.3405 39.3287 19.2491 38.6118 19.2996C37.8949 19.3501 37.195 19.5415 36.5522 19.8628C35.9094 20.1842 35.3363 20.6292 34.8657 21.1724C34.3952 21.7156 34.0364 22.3463 33.81 23.0283C33.5878 23.8146 33.5553 24.6425 33.7153 25.4438C33.8752 26.2451 34.223 26.9971 34.73 27.6379C34.82 27.7679 34.92 27.8779 35.01 27.9979H24.99C25.08 27.8779 25.18 27.7679 25.27 27.6379C25.777 26.9971 26.1248 26.2451 26.2847 25.4438C26.4447 24.6425 26.4122 23.8146 26.19 23.0283C25.9636 22.3463 25.6048 21.7156 25.1343 21.1724C24.6637 20.6292 24.0906 20.1842 23.4478 19.8628C22.805 19.5415 22.1051 19.3501 21.3882 19.2996C20.6713 19.2491 19.9515 19.3405 19.27 19.5686L19.9 21.4584C20.7739 21.1696 21.7267 21.239 22.5496 21.6513C23.3724 22.0637 23.9983 22.7853 24.29 23.6582C24.404 24.1444 24.4056 24.6502 24.2947 25.1371C24.1838 25.624 23.9633 26.0792 23.65 26.468C23.3595 26.9132 22.9681 27.2837 22.5078 27.5495C22.0474 27.8153 21.5308 27.9689 21 27.9979H11C8.61419 27.9942 6.32715 27.0449 4.64013 25.358C2.9531 23.6711 2.0037 21.3842 2 18.9986C2.00301 17.8335 2.41203 16.7059 3.1567 15.8099C3.90136 14.9138 4.93509 14.3052 6.08 14.089C6.23312 15.0394 6.67204 15.9206 7.33835 16.6155C8.00467 17.3103 8.86679 17.7858 9.81 17.9787C10.0864 18.035 10.368 18.0618 10.65 18.0587C11.5229 18.0477 12.3767 17.8013 13.1212 17.3455C13.8657 16.8897 14.4734 16.2413 14.88 15.4689L13.12 14.5289C12.852 15.0553 12.424 15.483 11.8975 15.7507C11.371 16.0184 10.7732 16.1123 10.19 16.0188C9.53085 15.8697 8.94718 15.4889 8.54523 14.9457C8.14328 14.4024 7.94979 13.7329 8 13.0591H7.99C7.99 13.0391 8 13.0191 8 12.9991C8 11.6731 8.52678 10.4014 9.46447 9.4638C10.4021 8.52619 11.6739 7.99945 13 7.99945C14.2458 8.00187 15.4719 8.31094 16.57 8.89938C16.7893 9.00385 17.0391 9.02494 17.2728 8.9587C17.5065 8.89245 17.7082 8.74341 17.84 8.53941C19.1731 6.53388 20.9802 4.88794 23.1012 3.74729C25.2222 2.60665 27.5917 2.00647 30 1.99991C35.8 1.99991 39.49 6.10959 41.18 8.5694C41.3074 8.75901 41.4967 8.89853 41.7156 8.96418C41.9344 9.02982 42.1692 9.01752 42.38 8.92938L42.68 8.79939C44.0367 8.19574 45.5171 7.92163 47 7.99945C48.989 8.32772 50.7871 9.378 52.05 10.9492C51.3793 10.8258 50.6919 10.8224 50.02 10.9392C49.2082 11.0336 48.4303 11.3194 47.7506 11.7731C47.0708 12.2268 46.5085 12.8355 46.11 13.549C45.4655 14.8467 45.3604 16.3466 45.8175 17.7215C46.2746 19.0964 47.2568 20.2348 48.55 20.8885L49.45 19.1086C48.6281 18.6945 48.003 17.9725 47.7108 17.0999C47.4186 16.2272 47.483 15.2744 47.89 14.449C48.1557 14.024 48.5141 13.6647 48.9384 13.3981C49.3627 13.1314 49.8419 12.9642 50.34 12.9091C50.86 12.8003 51.3983 12.8161 51.911 12.9551C52.4237 13.0942 52.8962 13.3525 53.29 13.709L53.3 13.699C53.4252 13.8301 53.5845 13.9236 53.76 13.969C56.41 14.6389 58 17.2687 58 20.9984C58 24.4782 56.14 27.9979 52 27.9979Z" fill="#104CBA"></path><path d="M16 41.9968C15.2089 41.9968 14.4355 42.2314 13.7777 42.6709C13.1199 43.1104 12.6072 43.735 12.3045 44.4659C12.0017 45.1967 11.9225 46.0009 12.0769 46.7768C12.2312 47.5527 12.6122 48.2654 13.1716 48.8247C13.731 49.3841 14.4437 49.765 15.2196 49.9193C15.9956 50.0737 16.7998 49.9945 17.5307 49.6917C18.2616 49.389 18.8864 48.8764 19.3259 48.2186C19.7654 47.5609 20 46.7876 20 45.9965C20 44.9357 19.5786 43.9184 18.8284 43.1683C18.0783 42.4182 17.0609 41.9968 16 41.9968ZM16 47.9964C15.6044 47.9964 15.2178 47.8791 14.8889 47.6593C14.56 47.4396 14.3036 47.1272 14.1522 46.7618C14.0009 46.3964 13.9613 45.9943 14.0384 45.6064C14.1156 45.2184 14.3061 44.8621 14.5858 44.5824C14.8655 44.3027 15.2219 44.1123 15.6098 44.0351C15.9978 43.9579 16.3999 43.9975 16.7654 44.1489C17.1308 44.3003 17.4432 44.5566 17.6629 44.8855C17.8827 45.2143 18 45.601 18 45.9965C18 46.5269 17.7893 47.0356 17.4142 47.4106C17.0391 47.7857 16.5304 47.9964 16 47.9964Z" fill="#104CBA"></path><path d="M25 47.9964V43.9967C24.9999 43.7736 24.9253 43.557 24.788 43.3812C24.6506 43.2055 24.4584 43.0807 24.242 43.0267L23.574 42.8598L23.929 42.2688C24.0435 42.0776 24.0908 41.8536 24.0635 41.6324C24.0361 41.4112 23.9356 41.2055 23.778 41.0479L20.949 38.2191C20.7914 38.0615 20.5857 37.961 20.3645 37.9336C20.1433 37.9063 19.9192 37.9536 19.728 38.0681L19.137 38.4231L18.97 37.7551C18.916 37.5387 18.7912 37.3466 18.6155 37.2092C18.4397 37.0719 18.2231 36.9973 18 36.9972H14C13.7769 36.9973 13.5603 37.0719 13.3845 37.2092C13.2088 37.3466 13.084 37.5387 13.03 37.7551L12.863 38.4231L12.272 38.0681C12.0808 37.9536 11.8567 37.9063 11.6355 37.9336C11.4143 37.961 11.2086 38.0615 11.051 38.2191L8.222 41.0479C8.06435 41.2055 7.96387 41.4112 7.93651 41.6324C7.90915 41.8536 7.95649 42.0776 8.071 42.2688L8.426 42.8598L7.758 43.0267C7.54157 43.0807 7.3494 43.2055 7.21205 43.3812C7.0747 43.557 7.00006 43.7736 7 43.9967V47.9964C7.00006 48.2194 7.0747 48.436 7.21205 48.6118C7.3494 48.7875 7.54157 48.9123 7.758 48.9663L8.426 49.1333L8.071 49.7242C7.95649 49.9154 7.90915 50.1394 7.93651 50.3606C7.96387 50.5818 8.06435 50.7876 8.222 50.9451L11.051 53.7739C11.2086 53.9315 11.4143 54.032 11.6355 54.0594C11.8567 54.0867 12.0808 54.0394 12.272 53.9249L12.863 53.5699L13.03 54.2379C13.084 54.4543 13.2088 54.6464 13.3845 54.7838C13.5603 54.9211 13.7769 54.9958 14 54.9958H18C18.2231 54.9958 18.4397 54.9211 18.6155 54.7838C18.7912 54.6464 18.916 54.4543 18.97 54.2379L19.137 53.5699L19.728 53.9249C19.9192 54.0394 20.1433 54.0867 20.3645 54.0594C20.5857 54.032 20.7914 53.9315 20.949 53.7739L23.778 50.9451C23.9356 50.7876 24.0361 50.5818 24.0635 50.3606C24.0908 50.1394 24.0435 49.9154 23.929 49.7242L23.574 49.1333L24.242 48.9663C24.4584 48.9123 24.6506 48.7875 24.788 48.6118C24.9253 48.436 24.9999 48.2194 25 47.9964ZM23 47.2154L21.78 47.5154C21.6284 47.5533 21.4877 47.6261 21.3694 47.7282C21.251 47.8302 21.1582 47.9585 21.0984 48.1029C21.0386 48.2473 21.0135 48.4037 21.0251 48.5595C21.0366 48.7154 21.0845 48.8663 21.165 49.0003L21.813 50.0782L20.087 51.8041L19.009 51.1561C18.875 51.0757 18.7241 51.0277 18.5682 51.0162C18.4124 51.0046 18.256 51.0297 18.1116 51.0895C17.9672 51.1493 17.8388 51.2421 17.7368 51.3605C17.6347 51.4788 17.5619 51.6195 17.524 51.7711L17.224 52.991H14.781L14.481 51.7711C14.4431 51.6195 14.3703 51.4788 14.2682 51.3605C14.1662 51.2421 14.0378 51.1493 13.8934 51.0895C13.749 51.0297 13.5927 51.0046 13.4368 51.0162C13.2809 51.0277 13.13 51.0757 12.996 51.1561L11.918 51.8041L10.193 50.0782L10.84 49.0003C10.9205 48.8663 10.9684 48.7154 10.9799 48.5595C10.9915 48.4037 10.9664 48.2473 10.9066 48.1029C10.8468 47.9585 10.754 47.8302 10.6356 47.7282C10.5173 47.6261 10.3766 47.5533 10.225 47.5154L9.005 47.2154V44.7776L10.225 44.4776C10.3766 44.4398 10.5173 44.3669 10.6356 44.2649C10.754 44.1628 10.8468 44.0345 10.9066 43.8901C10.9664 43.7457 10.9915 43.5893 10.9799 43.4335C10.9684 43.2777 10.9205 43.1267 10.84 42.9927L10.193 41.9148L11.918 40.19L12.996 40.8369C13.13 40.9174 13.2809 40.9653 13.4368 40.9768C13.5927 40.9884 13.749 40.9633 13.8934 40.9035C14.0378 40.8437 14.1662 40.7509 14.2682 40.6325C14.3703 40.5142 14.4431 40.3736 14.481 40.222L14.781 39.0021H17.219L17.519 40.222C17.5569 40.3736 17.6297 40.5142 17.7318 40.6325C17.8338 40.7509 17.9622 40.8437 18.1066 40.9035C18.251 40.9633 18.4074 40.9884 18.5632 40.9768C18.719 40.9653 18.87 40.9174 19.004 40.8369L20.082 40.19L21.808 41.9148L21.16 42.9927C21.0795 43.1267 21.0316 43.2777 21.0201 43.4335C21.0085 43.5893 21.0336 43.7457 21.0934 43.8901C21.1532 44.0345 21.246 44.1628 21.3644 44.2649C21.4827 44.3669 21.6234 44.4398 21.775 44.4776L22.995 44.7776L23 47.2154Z" fill="#104CBA"></path><path d="M57 39.997H55.92C55.6809 38.3322 54.8496 36.8095 53.5786 35.708C52.3075 34.6066 50.6819 34.0003 49 34.0003C47.3181 34.0003 45.6925 34.6066 44.4214 35.708C43.1504 36.8095 42.3191 38.3322 42.08 39.997H41C40.2043 39.997 39.4413 40.313 38.8787 40.8756C38.3161 41.4382 38 42.2012 38 42.9967V52.996C38 53.7916 38.3161 54.5546 38.8787 55.1171C39.4413 55.6797 40.2043 55.9957 41 55.9957H44.791L44.115 58.7585C44.0791 58.9057 44.0771 59.0592 44.1092 59.2072C44.1413 59.3553 44.2066 59.4942 44.3002 59.6133C44.3938 59.7324 44.5133 59.8288 44.6496 59.8949C44.7859 59.9611 44.9355 59.9955 45.087 59.9954H52.913C53.0645 59.9955 53.2141 59.9611 53.3504 59.8949C53.4867 59.8288 53.6062 59.7324 53.6998 59.6133C53.7934 59.4942 53.8587 59.3553 53.8908 59.2072C53.9229 59.0592 53.9209 58.9057 53.885 58.7585L53.209 55.9957H57C57.7957 55.9957 58.5587 55.6797 59.1213 55.1171C59.6839 54.5546 60 53.7916 60 52.996V42.9967C60 42.2012 59.6839 41.4382 59.1213 40.8756C58.5587 40.313 57.7957 39.997 57 39.997ZM49 35.9973C49.9889 35.9973 50.9556 36.2905 51.7779 36.8399C52.6001 37.3892 53.241 38.1701 53.6194 39.0836C53.9978 39.9972 54.0969 41.0024 53.9039 41.9723C53.711 42.9421 53.2348 43.833 52.5355 44.5322C51.8363 45.2314 50.9454 45.7075 49.9755 45.9004C49.0055 46.0934 48.0002 45.9943 47.0866 45.6159C46.173 45.2375 45.3921 44.5967 44.8427 43.7745C44.2932 42.9524 44 41.9857 44 40.9969C44.0016 39.6714 44.5289 38.4007 45.4662 37.4634C46.4036 36.5261 47.6744 35.9989 49 35.9973ZM41 41.9968H42.08C42.3191 43.6616 43.1504 45.1843 44.4214 46.2858C45.6925 47.3872 47.3181 47.9935 49 47.9935C50.6819 47.9935 52.3075 47.3872 53.5786 46.2858C54.8496 45.1843 55.6809 43.6616 55.92 41.9968H57C57.2652 41.9968 57.5196 42.1022 57.7071 42.2897C57.8946 42.4772 58 42.7315 58 42.9967V49.9962H40V42.9967C40 42.7315 40.1054 42.4772 40.2929 42.2897C40.4804 42.1022 40.7348 41.9968 41 41.9968ZM51.639 57.9956H46.361L46.851 55.9957H51.151L51.639 57.9956ZM57 53.9959H41C40.7348 53.9959 40.4804 53.8905 40.2929 53.703C40.1054 53.5155 40 53.2612 40 52.996V51.996H58V52.996C58 53.2612 57.8946 53.5155 57.7071 53.703C57.5196 53.8905 57.2652 53.9959 57 53.9959Z" fill="#104CBA"></path><path d="M48 43.9967H50V41.9968H52V39.997H50V37.9971H48V39.997H46V41.9968H48V43.9967Z" fill="#104CBA"></path><path d="M26.2 13.845C26.8 14.405 27 14.6349 27 14.9989C27 15.2641 27.1054 15.5184 27.2929 15.706C27.4804 15.8935 27.7348 15.9988 28 15.9988H32C32.2652 15.9988 32.5196 15.8935 32.7071 15.706C32.8946 15.5184 33 15.2641 33 14.9989C33 14.6349 33.208 14.405 33.8 13.845C34.5199 13.2654 35.0938 12.5251 35.4759 11.6836C35.858 10.8421 36.0375 9.92278 36 8.99937C36 5.71762 32.981 3.99976 30 3.99976C27.019 3.99976 24 5.71762 24 8.99937C23.9625 9.92278 24.142 10.8421 24.5241 11.6836C24.9061 12.5251 25.4801 13.2654 26.2 13.845ZM30 5.9996C31.927 5.9996 34 6.93753 34 8.99937C34.0351 9.64958 33.9106 10.2985 33.6373 10.8895C33.364 11.4806 32.9502 11.9957 32.432 12.3901C31.8987 12.8244 31.4715 13.3747 31.183 13.999H28.817C28.5285 13.3747 28.1013 12.8244 27.568 12.3901C27.0498 11.9957 26.636 11.4806 26.3627 10.8895C26.0894 10.2985 25.9649 9.64958 26 8.99937C26 6.93753 28.073 5.9996 30 5.9996Z" fill="#104CBA"></path><path d="M33 16.9988H27V18.9986H33V16.9988Z" fill="#104CBA"></path><path d="M33 19.9985H27V21.9984H33V19.9985Z" fill="#104CBA"></path></g></svg>