<svg xmlns="http://www.w3.org/2000/svg" width="36" height="36" viewBox="0 0 36 36" fill="none"><path id="path7579" d="M18 0C16.6676 0 15.5988 1.07924 15.5988 2.39756C15.5988 3.7159 16.6676 4.79983 18 4.79983C19.3324 4.79983 20.4012 3.7159 20.4012 2.39756C20.4012 1.07924 19.3324 0 18 0ZM18 1.19995C18.6558 1.19995 19.2012 1.72775 19.2012 2.39756C19.2012 3.06739 18.6581 3.59986 18 3.59986C17.3419 3.59986 16.7988 3.06739 16.7988 2.39756C16.7988 1.72775 17.3442 1.19995 18 1.19995ZM13.9652 3.59982L5.93087 7.30633C5.20699 7.62444 5.69269 8.7347 6.43358 8.39614L14.4691 4.68962C15.0293 4.43959 14.8839 3.58773 14.2571 3.54242C14.1563 3.53564 14.0563 3.55605 13.9652 3.59982ZM29.5665 8.39618C30.3074 8.73475 30.7931 7.62449 30.0692 7.30638L22.0348 3.59986C21.9439 3.55632 21.8437 3.53682 21.743 3.54247C21.1161 3.5878 20.9707 4.43963 21.5309 4.68967L29.5665 8.39618ZM16.4273 6.84585C15.9792 7.06287 15.8135 7.39772 15.7148 7.63449C15.6162 7.87128 15.5774 8.0051 15.4535 8.15714C15.3295 8.30908 15.1034 8.50338 14.5805 8.72429C14.0556 8.94607 13.7501 8.97739 13.548 8.96335C13.346 8.94975 13.2249 8.88852 12.9949 8.7994C12.7649 8.71005 12.4065 8.59553 11.9625 8.74203C11.5614 8.87424 11.1661 9.1928 10.7273 9.63731C10.2514 10.1195 9.96394 10.5174 9.8496 10.8818C9.71082 11.3242 9.83599 11.6806 9.9292 11.9083C10.0229 12.1361 10.0852 12.2582 10.1027 12.4579C10.1208 12.6577 10.0936 12.9644 9.88112 13.4903C9.66773 14.0162 9.47488 14.2536 9.32331 14.3844C9.17182 14.5152 9.04193 14.5556 8.81824 14.6504C8.52729 14.7736 8.23612 14.9457 8.04246 15.3195C7.86648 15.6594 7.79444 16.1353 7.79988 16.7984C7.79532 17.4076 7.84931 17.9045 8.04246 18.2772C8.23612 18.6511 8.52881 18.8238 8.81824 18.9464C9.04184 19.0411 9.1647 19.0792 9.31628 19.21C9.46776 19.3409 9.66764 19.5806 9.88112 20.1065C10.0907 20.6222 10.1178 20.9268 10.1027 21.126C10.0868 21.3253 10.0287 21.4456 9.93849 21.6615C9.82964 21.9216 9.72828 22.2468 9.83191 22.6447C9.90811 22.9371 10.0628 23.205 10.3124 23.5083C9.90396 24.1784 9.58292 24.8911 9.35964 25.6622C8.92639 25.0219 8.35692 24.516 7.68153 24.1458C8.1301 23.6206 8.39872 22.9417 8.39872 22.1994C8.39872 20.5497 7.06602 19.1983 5.39989 19.1983C3.73373 19.1983 2.39636 20.5497 2.39636 22.1994C2.39636 22.9426 2.66656 23.6204 3.11707 24.1458C1.60933 24.9584 0.599902 26.5501 0.599902 28.3843V29.0886C0.599902 30.5915 1.812 31.799 3.29873 31.799H7.49755C8.05266 31.799 8.56954 31.633 8.99991 31.342V33.6037C8.99991 34.324 9.22623 35.0296 9.77567 35.4938C10.325 35.9581 11.1286 36.1028 12.0479 35.9239C12.0616 35.9216 12.0747 35.9171 12.0879 35.9148L17.9965 34.3247L23.9285 35.9195C24.8678 36.103 25.6488 35.9776 26.223 35.4941C26.7723 35.0317 27 34.3288 27 33.6122V31.3446C27.4303 31.6355 27.9472 31.7993 28.5023 31.7993H32.7011C34.1879 31.7993 35.4 30.5917 35.4 29.0888V28.3845C35.4 26.5504 34.3905 24.9586 32.8828 24.146C33.3333 23.6206 33.6035 22.9428 33.6035 22.1996C33.6035 20.5499 32.2661 19.1985 30.6 19.1985C28.9338 19.1985 27.6012 20.5499 27.6012 22.1996C27.6012 22.9419 27.8697 23.6208 28.3183 24.146C27.6476 24.5069 27.0711 25.0245 26.6379 25.6647C26.4145 24.8938 26.0948 24.1739 25.6863 23.5038C25.9362 23.2003 26.0918 22.9376 26.1679 22.6449C26.2716 22.247 26.1701 21.9218 26.0613 21.6617C25.9713 21.4458 25.9126 21.3254 25.8972 21.1262C25.8813 20.9271 25.9085 20.6224 26.1187 20.1067C26.3321 19.5808 26.532 19.3411 26.6836 19.2102C26.835 19.0794 26.9579 19.0413 27.1816 18.9466C27.4711 18.8239 27.7637 18.6513 27.9574 18.2775C28.1506 17.9047 28.205 17.4078 28.2 16.7986C28.2045 16.1355 28.1335 15.6596 27.9574 15.3197C27.7637 14.9459 27.4726 14.7739 27.1816 14.6506C26.958 14.5559 26.8281 14.5155 26.6766 14.3846C26.5251 14.2538 26.3322 14.0164 26.1187 13.4905C25.9054 12.9647 25.8798 12.6578 25.8972 12.4581C25.9153 12.2586 25.977 12.1363 26.0707 11.9085C26.1643 11.6808 26.2893 11.3245 26.1503 10.882C26.036 10.5176 25.7485 10.1197 25.2725 9.63754C24.8338 9.19303 24.4385 8.87457 24.0374 8.74225C23.5933 8.59576 23.235 8.71028 23.005 8.79963C22.775 8.88897 22.6539 8.94952 22.4518 8.96358C22.2498 8.97719 21.9442 8.94544 21.4194 8.72452C20.8965 8.50365 20.6703 8.3094 20.5464 8.15735C20.4223 8.00541 20.3838 7.87151 20.285 7.63472C20.1864 7.39794 20.0207 7.06319 19.5725 6.84608C19.1838 6.65764 18.7176 6.59881 17.9999 6.5987C17.2823 6.59859 16.8161 6.65755 16.4273 6.84585ZM2.39999 7.19857C1.06755 7.19857 0 8.27781 0 9.59615C0 10.9145 1.06755 11.9984 2.39999 11.9984C3.73243 11.9984 4.80116 10.9145 4.80116 9.59615C4.80116 8.27781 3.73243 7.19857 2.39999 7.19857ZM33.6 7.19857C32.2675 7.19857 31.1988 8.27781 31.1988 9.59615C31.1988 10.9145 32.2675 11.9984 33.6 11.9984C34.9324 11.9984 36 10.9145 36 9.59615C36 8.27781 34.9324 7.19857 33.6 7.19857ZM19.05 7.92283C19.1325 7.96274 19.1407 8.02714 19.1788 8.0997C19.2452 8.25912 19.3475 8.58352 19.6171 8.91412C19.8866 9.24471 20.3013 9.55778 20.9495 9.83167C21.5958 10.1047 22.1102 10.1928 22.5351 10.1633C22.96 10.1338 23.2743 9.98506 23.4433 9.91955C23.5437 9.88054 23.5943 9.85809 23.6601 9.87964C23.7462 9.90821 23.9651 10.0193 24.4183 10.4784C24.8505 10.9163 24.9764 11.1554 25.003 11.2401C25.0212 11.3111 24.9917 11.3739 24.9586 11.4522C24.9019 11.5898 24.7388 11.9271 24.7019 12.351C24.665 12.7749 24.7432 13.2924 25.0066 13.9412C25.27 14.5899 25.5699 15.0137 25.8926 15.2923C26.2153 15.5708 26.5444 15.6861 26.7129 15.7575C26.8081 15.7979 26.853 15.8015 26.8897 15.8723C26.9265 15.9432 27.0099 16.178 27.0045 16.798C27.009 17.3815 26.939 17.6286 26.8897 17.7237C26.853 17.7947 26.7863 17.8074 26.7129 17.8385C26.5444 17.9099 26.2153 18.0251 25.8926 18.3037C25.5699 18.5823 25.27 19.0061 25.0066 19.6548C24.7484 20.2911 24.6699 20.7983 24.7019 21.2181C24.7339 21.6378 24.8711 21.9234 24.9539 22.1215C24.989 22.2206 25.024 22.2762 25.0067 22.3431C25.0022 22.3612 24.9761 22.4252 24.9528 22.4696C24.0634 21.3925 22.9201 20.5207 21.6211 19.9525C22.3591 19.1075 22.8012 18.0055 22.8012 16.7991C22.8012 14.1553 20.6439 11.9993 18 11.9993C15.3562 11.9993 13.1989 14.1553 13.1989 16.7991C13.1989 18.0057 13.6406 19.1075 14.379 19.9525C13.0798 20.5205 11.9365 21.3926 11.0473 22.4696C11.0242 22.4252 10.9983 22.3619 10.9933 22.3431C10.9752 22.2762 11.0115 22.2206 11.0462 22.1215C11.129 21.9233 11.2662 21.6378 11.2981 21.2181C11.3301 20.7983 11.2516 20.2911 10.9934 19.6548C10.7301 19.0061 10.4302 18.5823 10.1075 18.3037C9.78481 18.0252 9.45563 17.9098 9.2872 17.8385C9.2135 17.8074 9.14706 17.7945 9.11032 17.7237C9.06111 17.6287 8.99059 17.3815 8.99558 16.798C8.99102 16.178 9.07358 15.9432 9.11032 15.8723C9.14706 15.8013 9.19196 15.7979 9.2872 15.7575C9.4557 15.6861 9.78481 15.5709 10.1075 15.2923C10.4302 15.0137 10.7301 14.5899 10.9934 13.9412C11.2568 13.2924 11.3351 12.7749 11.2981 12.351C11.2612 11.9271 11.0981 11.5897 11.0415 11.4522C11.0093 11.3737 10.978 11.3109 10.997 11.2401C11.0236 11.1553 11.1497 10.9163 11.5818 10.4784C12.035 10.0194 12.2538 9.9081 12.34 9.87964C12.4058 9.85696 12.4564 9.88048 12.5568 9.91955C12.7258 9.98508 13.0402 10.1338 13.465 10.1633C13.8899 10.1928 14.4042 10.1048 15.0506 9.83167C15.6988 9.55778 16.1134 9.24471 16.383 8.91412C16.6525 8.58352 16.7549 8.25901 16.8213 8.0997C16.8596 8.02714 16.8675 7.96274 16.9503 7.92283C17.0469 7.87588 17.363 7.79856 18.0001 7.79856C18.6373 7.79856 18.9533 7.87588 19.05 7.92283ZM2.39999 8.39854C3.05577 8.39854 3.60116 8.92632 3.60116 9.59615C3.60116 10.266 3.05813 10.7985 2.39999 10.7985C1.74186 10.7985 1.19998 10.266 1.19998 9.59615C1.19998 8.92632 1.74421 8.39854 2.39999 8.39854ZM33.6 8.39854C34.2558 8.39854 34.8 8.92632 34.8 9.59615C34.8 10.266 34.2581 10.7985 33.6 10.7985C32.9419 10.7985 32.3988 10.266 32.3988 9.59615C32.3988 8.92632 32.9442 8.39854 33.6 8.39854ZM3.48047 12.9757C3.06768 12.9499 2.75299 13.3393 2.86521 13.7374L3.91991 17.7322C4.10405 18.5376 5.31555 18.2195 5.08007 17.4275L4.02538 13.4327C3.96324 13.1776 3.74253 12.9924 3.48047 12.9757ZM32.5195 12.9757C32.2575 12.9916 32.0367 13.1775 31.9746 13.4327L30.9199 17.4275C30.6845 18.2195 31.896 18.5376 32.0801 17.7322L33.1348 13.7374C33.247 13.3393 32.9323 12.9497 32.5195 12.9757ZM18 13.1995C19.9766 13.1995 21.6012 14.8041 21.6012 16.7994C21.6012 18.7948 19.9836 20.4005 18 20.4005C16.0164 20.4005 14.3988 18.7948 14.3988 16.7994C14.3988 14.8041 16.0211 13.1995 18 13.1995ZM5.4 20.3981C6.38714 20.3981 7.19764 21.1981 7.19764 22.1992C7.19764 23.2004 6.38949 23.998 5.4 23.998C4.41048 23.998 3.59764 23.2004 3.59764 22.1992C3.59764 21.1981 4.41284 20.3981 5.4 20.3981ZM30.6 20.3981C31.5871 20.3981 32.4023 21.1981 32.4023 22.1992C32.4023 23.2004 31.5895 23.998 30.6 23.998C29.6105 23.998 28.8023 23.2004 28.8023 22.1992C28.8023 21.1981 29.6128 20.3981 30.6 20.3981ZM13.8012 30.2708V28.1932C13.783 27.4107 12.6185 27.4107 12.6012 28.1932V30.579L12.4513 30.6176C11.6746 30.8153 11.971 31.9801 12.7477 31.7824L21.8181 29.4528C22.51 29.275 23.1835 29.6755 23.3591 30.334C23.5376 31.0002 23.1514 31.6925 22.4696 31.8761L11.8173 34.7459C11.815 34.7464 11.815 34.7455 11.8127 34.7459C11.1313 34.8772 10.7649 34.7573 10.5506 34.5772C10.3354 34.3954 10.2014 34.0814 10.2014 33.6034V28.2001C10.2014 24.7794 12.3827 21.8931 15.4022 20.8375C16.1492 21.3179 17.045 21.6003 18.0002 21.6003C18.9547 21.6003 19.848 21.3184 20.5947 20.8386C23.6341 21.9012 25.8002 24.7794 25.8002 28.2001V33.6116C25.8002 34.084 25.665 34.3961 25.4498 34.5772C25.2355 34.7577 24.8691 34.8773 24.1877 34.7459L20.3088 33.7019L22.7791 33.0362C24.0828 32.6852 24.8693 31.3472 24.5158 30.0282C24.3408 29.3745 23.9266 28.8638 23.399 28.5516V28.1931C23.3809 27.4106 22.2164 27.4177 22.199 28.2135C22.0181 28.1999 21.7454 28.2293 21.5169 28.288L13.8012 30.2708ZM20.4012 24.5992C19.6187 24.6173 19.6187 25.7818 20.4012 25.7991H22.1988C22.9813 25.781 22.9813 24.6165 22.1988 24.5992H20.4012ZM4.2375 24.9624C4.57176 25.1082 4.99297 25.198 5.4 25.198C5.80703 25.198 6.2122 25.1082 6.56484 24.9624C7.98962 25.441 9 26.8026 9 28.3842V29.0884C9 29.9241 8.33769 30.599 7.49764 30.599H3.29882C2.45879 30.5989 1.8 29.9159 1.8 29.0884V28.3842C1.8 26.8002 2.81174 25.4417 4.2375 24.9624ZM29.4351 24.9624C29.7737 25.1105 30.193 25.1991 30.6 25.1991C31.007 25.1991 31.4165 25.1152 31.7625 24.9624C33.1883 25.4417 34.2 26.8002 34.2 28.3842V29.0884C34.2 29.9159 33.5412 30.5989 32.7012 30.599H28.5023C27.6623 30.599 27 29.9159 27 29.0884V28.3842C27 26.8026 28.0104 25.441 29.4351 24.9624Z" fill="#104CBA"></path></svg>