<svg xmlns="http://www.w3.org/2000/svg" width="60" height="60" viewBox="0 0 60 60" fill="none"><path d="M59.0323 51.2943H35.0206C34.5112 50.4165 33.7814 49.687 32.9032 49.1778V43.7376C33.6412 43.3102 34.276 42.7257 34.7627 42.0256C35.2494 41.3255 35.576 40.5269 35.7194 39.6865H53.2258C53.4825 39.6865 53.7286 39.5846 53.9101 39.4032C54.0916 39.2218 54.1935 38.9757 54.1935 38.7192V30.9807C54.1935 30.7241 54.0916 30.4781 53.9101 30.2967C53.7286 30.1153 53.4825 30.0133 53.2258 30.0133H50.3226V28.0787H53.2258C53.4825 28.0787 53.7286 27.9768 53.9101 27.7954C54.0916 27.614 54.1935 27.3679 54.1935 27.1114V19.3729C54.1935 19.1163 54.0916 18.8703 53.9101 18.6889C53.7286 18.5075 53.4825 18.4056 53.2258 18.4056H39.4132C40.6659 16.6725 41.4153 14.6272 41.5789 12.4953C41.7425 10.3635 41.3138 8.22792 40.3401 6.32416C39.3665 4.42039 37.8857 2.82241 36.0611 1.70647C34.2365 0.590536 32.139 0 30 0C27.861 0 25.7635 0.590536 23.9389 1.70647C22.1143 2.82241 20.6335 4.42039 19.6599 6.32416C18.6862 8.22792 18.2575 10.3635 18.4211 12.4953C18.5847 14.6272 19.3341 16.6725 20.5868 18.4056H6.77419C6.51753 18.4056 6.27138 18.5075 6.0899 18.6889C5.90841 18.8703 5.80645 19.1163 5.80645 19.3729V27.1114C5.80645 27.3679 5.90841 27.614 6.0899 27.7954C6.27138 27.9768 6.51753 28.0787 6.77419 28.0787H9.67742V30.0133H6.77419C6.51753 30.0133 6.27138 30.1153 6.0899 30.2967C5.90841 30.4781 5.80645 30.7241 5.80645 30.9807V38.7192C5.80645 38.9757 5.90841 39.2218 6.0899 39.4032C6.27138 39.5846 6.51753 39.6865 6.77419 39.6865H24.2806C24.424 40.5269 24.7506 41.3255 25.2373 42.0256C25.7239 42.7257 26.3588 43.3102 27.0968 43.7376V49.1778C26.2186 49.687 25.4888 50.4165 24.9794 51.2943H0.967742C0.711081 51.2943 0.464932 51.3962 0.283445 51.5776C0.101958 51.759 0 52.005 0 52.2616V56.1308C0 56.3874 0.101958 56.6334 0.283445 56.8148C0.464932 56.9963 0.711081 57.0982 0.967742 57.0982H24.9794C25.4873 57.9802 26.2188 58.7129 27.1002 59.2223C27.9816 59.7318 28.9818 60 30 60C31.0182 60 32.0184 59.7318 32.8998 59.2223C33.7812 58.7129 34.5127 57.9802 35.0206 57.0982H59.0323C59.2889 57.0982 59.5351 56.9963 59.7166 56.8148C59.898 56.6334 60 56.3874 60 56.1308V52.2616C60 52.005 59.898 51.759 59.7166 51.5776C59.5351 51.3962 59.2889 51.2943 59.0323 51.2943ZM30 1.96121C31.914 1.96121 33.785 2.52853 35.3765 3.59143C36.9679 4.65433 38.2083 6.16507 38.9408 7.93261C39.6732 9.70014 39.8649 11.6451 39.4915 13.5215C39.1181 15.3979 38.1964 17.1215 36.843 18.4743C35.4896 19.8271 33.7652 20.7484 31.888 21.1216C30.0107 21.4949 28.0649 21.3033 26.2966 20.5712C24.5283 19.839 23.0169 18.5992 21.9535 17.0085C20.8902 15.4177 20.3226 13.5475 20.3226 11.6344C20.3254 9.06975 21.3459 6.61098 23.1601 4.79752C24.9744 2.98406 27.4343 1.96403 30 1.96121ZM7.74194 20.3402H22.3442C24.4558 22.2098 27.1791 23.242 30 23.242C32.8209 23.242 35.5442 22.2098 37.6558 20.3402H52.2581V26.1441H7.74194V20.3402ZM11.6129 28.0787H48.3871V30.0133H11.6129V28.0787ZM7.74194 31.948H52.2581V37.7519H7.74194V31.948ZM33.7335 39.6865C33.5223 40.516 33.0406 41.2516 32.3645 41.777C31.6883 42.3023 30.8564 42.5875 30 42.5875C29.1436 42.5875 28.3117 42.3023 27.6355 41.777C26.9594 41.2516 26.4777 40.516 26.2665 39.6865H33.7335ZM29.0323 44.436C29.6722 44.5521 30.3278 44.5521 30.9677 44.436V48.4794C30.3278 48.3633 29.6722 48.3633 29.0323 48.4794V44.436ZM1.93548 55.1635V53.2289H24.2806C24.1645 53.8686 24.1645 54.5239 24.2806 55.1635H1.93548ZM30 58.0655C29.2344 58.0655 28.486 57.8385 27.8494 57.4134C27.2128 56.9882 26.7167 56.3839 26.4237 55.6769C26.1307 54.9699 26.054 54.1919 26.2034 53.4414C26.3528 52.6908 26.7214 52.0014 27.2628 51.4602C27.8042 50.9191 28.4939 50.5506 29.2448 50.4013C29.9957 50.252 30.774 50.3286 31.4814 50.6215C32.1887 50.9143 32.7932 51.4103 33.2186 52.0466C33.6439 52.6829 33.871 53.431 33.871 54.1962C33.871 55.2224 33.4631 56.2066 32.7372 56.9322C32.0112 57.6578 31.0266 58.0655 30 58.0655ZM58.0645 55.1635H35.7194C35.8355 54.5239 35.8355 53.8686 35.7194 53.2289H58.0645V55.1635Z" fill="#104CBA"></path><path d="M27.1713 13.7199L30.0358 15.1515C30.0165 15.268 30.0045 15.3856 30 15.5036C29.9966 16.1766 30.2262 16.83 30.6498 17.3531C31.0734 17.8762 31.6649 18.2368 32.3241 18.3737C32.9833 18.5106 33.6696 18.4154 34.2666 18.1043C34.8636 17.7932 35.3346 17.2853 35.5997 16.6666C35.8648 16.048 35.9078 15.3568 35.7212 14.7102C35.5347 14.0635 35.1301 13.5013 34.5762 13.1188C34.0223 12.7362 33.353 12.5569 32.6819 12.6113C32.0109 12.6657 31.3792 12.9504 30.8942 13.4171L28.0287 11.9855C28.048 11.8693 28.06 11.752 28.0645 11.6344C28.06 11.5167 28.048 11.3994 28.0287 11.2832L30.8942 9.8516C31.3767 10.3131 32.0039 10.5939 32.6697 10.6463C33.3355 10.6988 33.999 10.5198 34.5479 10.1395C35.0968 9.75923 35.4974 9.2011 35.682 8.55954C35.8666 7.91799 35.8237 7.23239 35.5608 6.61877C35.2978 6.00514 34.8308 5.50116 34.2388 5.1921C33.6469 4.88304 32.9663 4.78788 32.3122 4.92272C31.6581 5.05756 31.0707 5.41411 30.6493 5.93206C30.228 6.45001 29.9986 7.09754 30 7.7651C30.0045 7.8831 30.0165 8.0007 30.0358 8.1172L27.1713 9.54883C26.7616 9.15256 26.2442 8.88565 25.6837 8.78139C25.1232 8.67714 24.5443 8.74014 24.0194 8.96256C23.4945 9.18497 23.0467 9.55695 22.7319 10.0321C22.4172 10.5072 22.2493 11.0645 22.2493 11.6344C22.2493 12.2042 22.4172 12.7615 22.7319 13.2366C23.0467 13.7118 23.4945 14.0837 24.0194 14.3062C24.5443 14.5286 25.1232 14.5916 25.6837 14.4873C26.2442 14.3831 26.7616 14.1162 27.1713 13.7199ZM32.9032 14.5363C33.0946 14.5363 33.2817 14.593 33.4409 14.6993C33.6 14.8056 33.7241 14.9567 33.7973 15.1334C33.8705 15.3102 33.8897 15.5047 33.8524 15.6923C33.815 15.88 33.7229 16.0523 33.5875 16.1876C33.4522 16.3229 33.2797 16.415 33.092 16.4523C32.9043 16.4897 32.7097 16.4705 32.5329 16.3973C32.3561 16.3241 32.2049 16.2001 32.0986 16.041C31.9922 15.882 31.9355 15.6949 31.9355 15.5036C31.9355 15.2471 32.0374 15.001 32.2189 14.8196C32.4004 14.6382 32.6466 14.5363 32.9032 14.5363ZM32.9032 6.79779C33.0946 6.79779 33.2817 6.85452 33.4409 6.96081C33.6 7.0671 33.7241 7.21817 33.7973 7.39493C33.8705 7.57168 33.8897 7.76617 33.8524 7.95381C33.815 8.14145 33.7229 8.31381 33.5875 8.44909C33.4522 8.58438 33.2797 8.6765 33.092 8.71383C32.9043 8.75115 32.7097 8.732 32.5329 8.65878C32.3561 8.58557 32.2049 8.46159 32.0986 8.30251C31.9922 8.14344 31.9355 7.95642 31.9355 7.7651C31.9355 7.50855 32.0374 7.26251 32.2189 7.08111C32.4004 6.8997 32.6466 6.79779 32.9032 6.79779ZM24.1935 11.6344C24.1935 11.443 24.2503 11.256 24.3566 11.0969C24.463 10.9379 24.6141 10.8139 24.791 10.7407C24.9678 10.6675 25.1624 10.6483 25.3501 10.6856C25.5378 10.723 25.7102 10.8151 25.8456 10.9504C25.9809 11.0856 26.0731 11.258 26.1104 11.4456C26.1478 11.6333 26.1286 11.8278 26.0554 12.0045C25.9821 12.1813 25.8581 12.3324 25.6989 12.4387C25.5398 12.5449 25.3527 12.6017 25.1613 12.6017C24.9046 12.6017 24.6585 12.4998 24.477 12.3184C24.2955 12.1369 24.1935 11.8909 24.1935 11.6344Z" fill="#104CBA"></path><path d="M9.67742 22.2748H19.3548V24.2095H9.67742V22.2748Z" fill="#104CBA"></path><path d="M48.3871 22.2748H50.3226V24.2095H48.3871V22.2748Z" fill="#104CBA"></path><path d="M44.5161 22.2748H46.4516V24.2095H44.5161V22.2748Z" fill="#104CBA"></path><path d="M40.6452 22.2748H42.5806V24.2095H40.6452V22.2748Z" fill="#104CBA"></path><path d="M9.67742 33.8826H19.3548V35.8172H9.67742V33.8826Z" fill="#104CBA"></path><path d="M48.3871 33.8826H50.3226V35.8172H48.3871V33.8826Z" fill="#104CBA"></path><path d="M44.5161 33.8826H46.4516V35.8172H44.5161V33.8826Z" fill="#104CBA"></path><path d="M40.6452 33.8826H42.5806V35.8172H40.6452V33.8826Z" fill="#104CBA"></path></svg>