<svg xmlns="http://www.w3.org/2000/svg" width="60" height="60" viewBox="0 0 60 60" fill="none"><path d="M20.0001 18.0014H32.0002V20.0013H20.0001V18.0014Z" fill="#104CBA"></path><path d="M34.0002 18.0014H36.0002V20.0013H34.0002V18.0014Z" fill="#104CBA"></path><path d="M38.0002 18.0014H40.0003V20.0013H38.0002V18.0014Z" fill="#104CBA"></path><path d="M20.0001 26.0012H32.0002V28.0012H20.0001V26.0012Z" fill="#104CBA"></path><path d="M34.0002 26.0012H36.0002V28.0012H34.0002V26.0012Z" fill="#104CBA"></path><path d="M38.0002 26.0012H40.0003V28.0012H38.0002V26.0012Z" fill="#104CBA"></path><path d="M20.0001 34.001H32.0002V36.001H20.0001V34.001Z" fill="#104CBA"></path><path d="M34.0002 34.001H36.0002V36.001H34.0002V34.001Z" fill="#104CBA"></path><path d="M38.0002 34.001H40.0003V36.001H38.0002V34.001Z" fill="#104CBA"></path><path d="M56.0004 41.0008C55.1138 41.002 54.2527 41.2971 53.5518 41.8399C52.8509 42.3828 52.3498 43.1427 52.127 44.0008H41.0003V40.0009C41.7956 39.9999 42.5582 39.6836 43.1206 39.1212C43.683 38.5588 43.9994 37.7963 44.0003 37.0009V34.001H50.0003C51.3819 34 52.7482 33.7127 54.0132 33.1574C55.2782 32.602 56.4144 31.7905 57.3501 30.7741C58.2859 29.7577 59.0008 28.5585 59.45 27.252C59.8991 25.9456 60.0726 24.5602 59.9596 23.1833C59.8466 21.8064 59.4495 20.4679 58.7934 19.2522C58.1373 18.0364 57.2363 16.9698 56.1474 16.1195C55.0585 15.2693 53.8052 14.6539 52.4666 14.3122C51.1279 13.9705 49.733 13.9099 48.3698 14.1341C47.3916 10.4439 45.3245 7.13389 42.438 4.63532C39.5514 2.13675 35.9793 0.565477 32.1868 0.126223C28.3944 -0.313031 24.5576 0.400102 21.1764 2.17271C17.7951 3.94531 15.0261 6.6952 13.2302 10.0641C12.8215 10.0225 12.4109 10.0016 12.0001 10.0016C8.81746 10.0016 5.76519 11.2658 3.51474 13.5162C1.26429 15.7666 0 18.8188 0 22.0013C0 25.1838 1.26429 28.236 3.51474 30.4864C5.76519 32.7368 8.81746 34.001 12.0001 34.001H16.0001V37.0009C16.001 37.7963 16.3174 38.5588 16.8798 39.1212C17.4422 39.6836 18.2048 39.9999 19.0001 40.0009V44.0008H7.87343C7.63003 43.0581 7.05119 42.2366 6.24541 41.6902C5.43962 41.1438 4.46222 40.91 3.4964 41.0327C2.53058 41.1554 1.64265 41.6261 0.999059 42.3566C0.355467 43.0871 0.000391724 44.0272 0.000391724 45.0007C0.000391724 45.9743 0.355467 46.9144 0.999059 47.6449C1.64265 48.3754 2.53058 48.8461 3.4964 48.9688C4.46222 49.0914 5.43962 48.8577 6.24541 48.3113C7.05119 47.7649 7.63003 46.9434 7.87343 46.0007H20.0001C20.2653 46.0007 20.5197 45.8954 20.7072 45.7078C20.8948 45.5203 21.0001 45.266 21.0001 45.0007V40.0009H23.0001V48.0007H15.0001C14.7349 48.0007 14.4805 48.106 14.293 48.2936C14.1054 48.4811 14.0001 48.7354 14.0001 49.0007V52.1272C13.0574 52.3706 12.2359 52.9494 11.6895 53.7552C11.1431 54.5609 10.9093 55.5383 11.032 56.5041C11.1546 57.4699 11.6253 58.3578 12.3558 59.0014C13.0864 59.6449 14.0265 60 15.0001 60C15.9737 60 16.9138 59.6449 17.6443 59.0014C18.3749 58.3578 18.8456 57.4699 18.9682 56.5041C19.0909 55.5383 18.8571 54.5609 18.3107 53.7552C17.7643 52.9494 16.9428 52.3706 16.0001 52.1272V50.0006H24.0002C24.2654 50.0006 24.5197 49.8953 24.7073 49.7077C24.8948 49.5202 25.0002 49.2659 25.0002 49.0007V40.0009H29.0002V50.1273C28.0575 50.3706 27.236 50.9495 26.6896 51.7552C26.1432 52.561 25.9094 53.5384 26.032 54.5041C26.1547 55.4699 26.6254 56.3578 27.3559 57.0014C28.0865 57.645 29.0266 58 30.0002 58C30.9738 58 31.9139 57.645 32.6444 57.0014C33.375 56.3578 33.8457 55.4699 33.9683 54.5041C34.091 53.5384 33.8572 52.561 33.3108 51.7552C32.7644 50.9495 31.9429 50.3706 31.0002 50.1273V40.0009H35.0002V49.0007C35.0002 49.2659 35.1056 49.5202 35.2931 49.7077C35.4807 49.8953 35.735 50.0006 36.0002 50.0006H44.0003V52.1272C43.0576 52.3706 42.2361 52.9494 41.6897 53.7552C41.1433 54.5609 40.9095 55.5383 41.0321 56.5041C41.1548 57.4699 41.6255 58.3578 42.356 59.0014C43.0865 59.6449 44.0267 60 45.0003 60C45.9739 60 46.914 59.6449 47.6445 59.0014C48.375 58.3578 48.8458 57.4699 48.9684 56.5041C49.0911 55.5383 48.8573 54.5609 48.3109 53.7552C47.7645 52.9494 46.943 52.3706 46.0003 52.1272V49.0007C46.0003 48.7354 45.8949 48.4811 45.7074 48.2936C45.5199 48.106 45.2655 48.0007 45.0003 48.0007H37.0002V40.0009H39.0003V45.0007C39.0003 45.266 39.1056 45.5203 39.2931 45.7078C39.4807 45.8954 39.735 46.0007 40.0003 46.0007H52.127C52.314 46.7251 52.7004 47.3824 53.2423 47.8982C53.7843 48.4139 54.46 48.7674 55.1927 48.9184C55.9254 49.0693 56.6858 49.0118 57.3875 48.7523C58.0892 48.4928 58.704 48.0417 59.1621 47.4503C59.6203 46.8589 59.9034 46.1509 59.9793 45.4067C60.0553 44.6624 59.9209 43.9118 59.5916 43.2401C59.2623 42.5684 58.7512 42.0024 58.1164 41.6066C57.4816 41.2108 56.7485 41.0009 56.0004 41.0008ZM4.00003 47.0007C3.60446 47.0007 3.21778 46.8834 2.88888 46.6637C2.55998 46.4439 2.30363 46.1315 2.15225 45.7661C2.00088 45.4007 1.96127 44.9985 2.03844 44.6106C2.11561 44.2226 2.3061 43.8663 2.5858 43.5866C2.86551 43.3069 3.22188 43.1164 3.60984 43.0392C3.99781 42.9621 4.39994 43.0017 4.7654 43.153C5.13085 43.3044 5.44321 43.5607 5.66298 43.8896C5.88274 44.2185 6.00004 44.6052 6.00004 45.0007C5.99941 45.531 5.78849 46.0393 5.41355 46.4142C5.03862 46.7892 4.53027 47.0001 4.00003 47.0007ZM17.0001 56.0005C17.0001 56.396 16.8828 56.7827 16.663 57.1116C16.4433 57.4405 16.1309 57.6968 15.7655 57.8482C15.4 57.9996 14.9979 58.0392 14.6099 57.962C14.2219 57.8848 13.8656 57.6944 13.5859 57.4147C13.3062 57.135 13.1157 56.7786 13.0385 56.3907C12.9613 56.0027 13.0009 55.6006 13.1523 55.2351C13.3037 54.8697 13.56 54.5573 13.8889 54.3376C14.2178 54.1178 14.6045 54.0005 15.0001 54.0005C15.5303 54.0012 16.0387 54.2121 16.4136 54.587C16.7886 54.9619 16.9995 55.4703 17.0001 56.0005ZM32.0002 54.0005C32.0002 54.3961 31.8829 54.7828 31.6631 55.1116C31.4434 55.4405 31.131 55.6969 30.7656 55.8483C30.4001 55.9996 29.998 56.0392 29.61 55.9621C29.222 55.8849 28.8657 55.6944 28.586 55.4147C28.3063 55.135 28.1158 54.7787 28.0386 54.3907C27.9614 54.0028 28.001 53.6006 28.1524 53.2352C28.3038 52.8697 28.5601 52.5574 28.889 52.3376C29.2179 52.1179 29.6046 52.0006 30.0002 52.0006C30.5304 52.0012 31.0388 52.2121 31.4137 52.587C31.7887 52.962 31.9996 53.4703 32.0002 54.0005ZM47.0003 56.0005C47.0003 56.396 46.883 56.7827 46.6632 57.1116C46.4435 57.4405 46.1311 57.6968 45.7657 57.8482C45.4002 57.9996 44.9981 58.0392 44.6101 57.962C44.2221 57.8848 43.8658 57.6944 43.5861 57.4147C43.3064 57.135 43.1159 56.7786 43.0387 56.3907C42.9615 56.0027 43.0011 55.6006 43.1525 55.2351C43.3039 54.8697 43.5602 54.5573 43.8891 54.3376C44.218 54.1178 44.6047 54.0005 45.0003 54.0005C45.5305 54.0012 46.0389 54.2121 46.4138 54.587C46.7888 54.9619 46.9997 55.4703 47.0003 56.0005ZM18.0001 21.0013V17.0014C18.0004 16.7363 18.1059 16.4821 18.2933 16.2947C18.4808 16.1072 18.735 16.0017 19.0001 16.0014H41.0003C41.2654 16.0017 41.5196 16.1072 41.707 16.2947C41.8945 16.4821 42 16.7363 42.0003 17.0014V21.0013C42 21.2664 41.8945 21.5206 41.707 21.7081C41.5196 21.8955 41.2654 22.001 41.0003 22.0013H19.0001C18.735 22.001 18.4808 21.8955 18.2933 21.7081C18.1059 21.5206 18.0004 21.2664 18.0001 21.0013ZM18.0001 29.0011V25.0012C18.0004 24.7361 18.1059 24.4819 18.2933 24.2945C18.4808 24.107 18.735 24.0015 19.0001 24.0012H41.0003C41.2654 24.0015 41.5196 24.107 41.707 24.2945C41.8945 24.4819 42 24.7361 42.0003 25.0012V29.0011C42 29.2662 41.8945 29.5204 41.707 29.7079C41.5196 29.8954 41.2654 30.0008 41.0003 30.0011H19.0001C18.735 30.0008 18.4808 29.8954 18.2933 29.7079C18.1059 29.5204 18.0004 29.2662 18.0001 29.0011ZM2.00001 22.0013C2.00302 19.3501 3.05757 16.8084 4.93229 14.9337C6.80701 13.0591 9.34882 12.0045 12.0001 12.0015C12.5486 12.0014 13.0963 12.0459 13.6376 12.1345C13.8503 12.1698 14.0688 12.1352 14.2603 12.0361C14.4518 11.937 14.606 11.7786 14.7001 11.5845C16.2486 8.39226 18.7569 5.76431 21.8737 4.0688C24.9905 2.37329 28.5595 1.69517 32.081 2.12941C35.6024 2.56366 38.8998 4.08852 41.5113 6.49041C44.1228 8.89229 45.9175 12.0509 46.6441 15.5237C46.6719 15.6576 46.7268 15.7843 46.8056 15.8961C46.8843 16.0079 46.9851 16.1023 47.1018 16.1736C47.2184 16.2449 47.3485 16.2915 47.4839 16.3105C47.6193 16.3296 47.7571 16.3206 47.8889 16.2843C48.9889 15.9838 50.1404 15.9218 51.2663 16.1027C52.3922 16.2835 53.4664 16.703 54.4169 17.3329C55.3674 17.9628 56.1723 18.7886 56.7776 19.755C57.3828 20.7214 57.7745 21.806 57.9263 22.9362C58.0781 24.0663 57.9866 25.2158 57.6578 26.3076C57.3291 27.3995 56.7707 28.4085 56.0201 29.2669C55.2696 30.1253 54.3441 30.8134 53.3059 31.2849C52.2677 31.7565 51.1406 32.0007 50.0003 32.0011H43.8283C43.6973 31.6322 43.4953 31.2925 43.2339 31.0011C43.7278 30.4521 44.0008 29.7396 44.0003 29.0011V25.0012C44.0008 24.2628 43.7278 23.5503 43.2339 23.0013C43.7278 22.4522 44.0008 21.7398 44.0003 21.0013V17.0014C43.9994 16.2061 43.683 15.4436 43.1206 14.8812C42.5582 14.3188 41.7956 14.0024 41.0003 14.0015H19.0001C18.2048 14.0024 17.4422 14.3188 16.8798 14.8812C16.3174 15.4436 16.001 16.2061 16.0001 17.0014V21.0013C15.9996 21.7398 16.2726 22.4522 16.7665 23.0013C16.2726 23.5503 15.9996 24.2628 16.0001 25.0012V29.0011C15.9996 29.7396 16.2726 30.4521 16.7665 31.0011C16.505 31.2925 16.3031 31.6322 16.1721 32.0011H12.0001C9.34882 31.998 6.80701 30.9435 4.93229 29.0689C3.05757 27.1942 2.00302 24.6525 2.00001 22.0013ZM18.0001 37.0009V33.001C18.0004 32.7359 18.1059 32.4817 18.2933 32.2943C18.4808 32.1068 18.735 32.0014 19.0001 32.0011H41.0003C41.2654 32.0014 41.5196 32.1068 41.707 32.2943C41.8945 32.4817 42 32.7359 42.0003 33.001V37.0009C42 37.2661 41.8945 37.5202 41.707 37.7077C41.5196 37.8952 41.2654 38.0006 41.0003 38.0009H19.0001C18.735 38.0006 18.4808 37.8952 18.2933 37.7077C18.1059 37.5202 18.0004 37.2661 18.0001 37.0009ZM56.0004 47.0007C55.6048 47.0007 55.2181 46.8834 54.8892 46.6637C54.5603 46.4439 54.304 46.1315 54.1526 45.7661C54.0012 45.4007 53.9616 44.9985 54.0388 44.6106C54.1159 44.2226 54.3064 43.8663 54.5861 43.5866C54.8658 43.3069 55.2222 43.1164 55.6102 43.0392C55.9981 42.9621 56.4003 43.0017 56.7657 43.153C57.1312 43.3044 57.4435 43.5607 57.6633 43.8896C57.8831 44.2185 58.0004 44.6052 58.0004 45.0007C57.9997 45.531 57.7888 46.0393 57.4139 46.4142C57.039 46.7892 56.5306 47.0001 56.0004 47.0007Z" fill="#104CBA"></path></svg>