<svg xmlns="http://www.w3.org/2000/svg" width="62" height="60" viewBox="0 0 62 60" fill="none"><path d="M56.1531 39.9381C54.172 39.9381 52.5325 41.2936 52.0543 43.1236H47.8189V35.3971H48.4337C55.4016 35.3971 61.4815 29.3649 61.4815 22.5195C61.4815 16.5552 57.9975 11.8786 52.3276 10.1841C51.7811 5.84644 48.9119 2.32205 44.7449 0.76319C40.5778 -0.795674 36.0008 0.0854232 32.7218 2.93204C29.5111 1.50873 25.549 1.50873 21.9967 2.99982C18.9226 4.28758 16.6 6.59198 15.507 9.37083C13.4576 9.23527 11.4082 9.91304 9.83704 11.3364C8.26584 12.7597 7.37778 14.6574 7.37778 16.6907C3.07407 17.7074 0 21.4351 0 25.9761C0 31.1271 4.37202 35.4648 9.56379 35.4648H13.6626V43.1236H9.42716C8.94897 41.2936 7.30947 39.9381 5.3284 39.9381C3.00576 39.9381 1.093 41.8359 1.093 44.1403C1.093 46.4447 3.00576 48.3424 5.3284 48.3424C7.30947 48.3424 8.94897 46.9869 9.42716 45.1569H14.6872C15.2337 45.1569 15.7119 44.6825 15.7119 44.1403V35.3971H21.7235V45.9025L17.7613 49.8335C17.1465 49.4268 16.3951 49.2235 15.5753 49.2235C13.2527 49.2235 11.3399 51.1213 11.3399 53.4257C11.3399 55.7301 13.2527 57.6278 15.5753 57.6278C17.8979 57.6278 19.8107 55.7301 19.8107 53.4257C19.8107 52.6123 19.6058 51.9346 19.1959 51.2568L23.363 47.1224C23.5679 46.9191 23.6362 46.648 23.6362 46.3769V35.3971H29.6477V51.7312C27.8033 52.2057 26.437 53.8323 26.437 55.7978C26.437 58.1023 28.3498 60 30.6724 60C32.9951 60 34.9078 58.1023 34.9078 55.7978C34.9078 53.8323 33.5416 52.2057 31.6971 51.7312V35.3971H37.7086V46.3769C37.7086 46.648 37.8453 46.9191 37.9819 47.1224L42.149 51.2568C41.7391 51.8668 41.5342 52.6123 41.5342 53.4257C41.5342 55.7301 43.4469 57.6278 45.7695 57.6278C48.0922 57.6278 50.0049 55.7301 50.0049 53.4257C50.0049 51.1213 48.0922 49.2235 45.7695 49.2235C44.9498 49.2235 44.2667 49.4268 43.5835 49.8335L39.6897 45.9702V35.3971H45.7695V44.0725C45.7695 44.6147 46.2477 45.0891 46.7942 45.0891H52.0543C52.5325 46.9191 54.172 48.2746 56.1531 48.2746C58.4757 48.2746 60.3885 46.3769 60.3885 44.0725C60.3885 41.7681 58.4757 39.9381 56.1531 39.9381ZM5.3284 46.2413C4.16708 46.2413 3.14239 45.2925 3.14239 44.0725C3.14239 42.9203 4.09877 41.9036 5.3284 41.9036C6.48971 41.9036 7.5144 42.8525 7.5144 44.0725C7.5144 45.2925 6.48971 46.2413 5.3284 46.2413ZM15.6436 55.5267C14.4823 55.5267 13.4576 54.5779 13.4576 53.3579C13.4576 52.2057 14.414 51.189 15.6436 51.189C16.8049 51.189 17.8296 52.1379 17.8296 53.3579C17.7613 54.5779 16.8049 55.5267 15.6436 55.5267ZM32.9268 55.7978C32.9268 56.95 31.9704 57.9667 30.7407 57.9667C29.5794 57.9667 28.5547 57.0178 28.5547 55.7978C28.5547 54.6456 29.5111 53.629 30.7407 53.629C31.9021 53.629 32.9268 54.5779 32.9268 55.7978ZM48.0239 53.3579C48.0239 54.5101 47.0675 55.5267 45.8379 55.5267C44.6765 55.5267 43.6519 54.5779 43.6519 53.3579C43.6519 52.2057 44.6082 51.189 45.8379 51.189C47.0675 51.2568 48.0239 52.2057 48.0239 53.3579ZM2.04938 25.9761C2.04938 22.1128 4.71358 19.0629 8.60741 18.5885C9.15391 18.5207 9.56379 18.0462 9.49547 17.504C9.35885 15.7418 9.97366 14.1152 11.2716 12.8952C12.2963 11.9463 13.6626 11.4041 15.0288 11.4041C15.3704 11.4041 15.7119 11.4041 16.0535 11.4719C16.6 11.5397 17.0782 11.2686 17.2148 10.7264C17.8979 8.21862 19.9473 6.04977 22.8165 4.82979C26.0272 3.47426 29.716 3.54203 32.4486 4.96534C32.8584 5.16867 33.3366 5.1009 33.6782 4.76201C36.4107 2.05095 40.3728 1.16985 44.0617 2.52538C47.6823 3.88092 50.1416 7.06642 50.4148 10.9297C50.4148 11.3364 50.7564 11.743 51.1663 11.8108C56.2897 13.2341 59.4321 17.3007 59.4321 22.5195C59.4321 28.2805 54.3086 33.3638 48.4337 33.3638H9.56379C5.46502 33.3638 2.04938 29.9749 2.04938 25.9761ZM56.1531 46.2413C54.9918 46.2413 53.9671 45.2925 53.9671 44.0725C53.9671 42.9203 54.9235 41.9036 56.1531 41.9036C57.3144 41.9036 58.3391 42.8525 58.3391 44.0725C58.3391 45.2925 57.3827 46.2413 56.1531 46.2413Z" fill="#104CBA"></path></svg>