<svg xmlns="http://www.w3.org/2000/svg" width="85" height="85" viewBox="0 0 85 85" fill="none"><path d="M83.7549 41.2549H63.7072V38.422H69.1161C69.8038 38.422 70.3612 37.8645 70.3612 37.1769C70.3612 36.4892 69.8038 35.9318 69.1161 35.9318H63.7072V33.0987H67.4624C68.8614 33.0987 70.1768 32.554 71.1659 31.5647L79.3548 23.3758C79.8884 23.6416 80.4799 23.7831 81.0935 23.7831C82.1371 23.7831 83.118 23.3767 83.856 22.6389C84.5939 21.9009 85.0003 20.92 85.0003 19.8764C85.0003 18.8328 84.5939 17.8518 83.856 17.1139C83.1182 16.3759 82.1371 15.9695 81.0935 15.9695C80.0499 15.9695 79.0689 16.3759 78.331 17.1137C77.593 17.8517 77.1866 18.8326 77.1866 19.8762C77.1866 20.4898 77.3281 21.0813 77.5939 21.6149L69.405 29.8038C68.8862 30.3226 68.1962 30.6085 67.4623 30.6085H63.707V27.8612C63.707 24.2394 60.7604 21.293 57.1388 21.293H54.3915V10.2704C55.9368 9.74927 57.0531 8.28717 57.0531 6.56824C57.0531 4.41402 55.3005 2.66156 53.1464 2.66156C50.9924 2.66156 49.2397 4.41419 49.2397 6.56824C49.2397 8.28717 50.356 9.7491 51.9013 10.2704V21.2928H49.0684V15.8839C49.0684 15.1962 48.5109 14.6388 47.8233 14.6388C47.1357 14.6388 46.5782 15.1962 46.5782 15.8839V21.2928H43.7451V1.24512C43.7451 0.55748 43.1876 0 42.5 0C41.8124 0 41.2549 0.55748 41.2549 1.24512V21.2928H38.422V15.8839C38.422 15.1962 37.8645 14.6388 37.1769 14.6388C36.4892 14.6388 35.9318 15.1962 35.9318 15.8839V21.2928H33.0989V17.5377C33.0989 16.1387 32.554 14.8234 31.5647 13.8342L23.373 5.64254C24.0967 4.18144 23.8541 2.35958 22.6391 1.14435C21.1157 -0.378848 18.6372 -0.378682 17.1141 1.14435C15.5909 2.66754 15.5909 5.14599 17.1141 6.66935C17.8757 7.43086 18.8761 7.8117 19.8766 7.8117C20.4722 7.8117 21.0669 7.67341 21.6122 7.4033L29.804 15.5952C30.3229 16.114 30.6086 16.8039 30.6086 17.5377V21.2928H27.8614C27.3061 21.2928 26.7537 21.3626 26.2198 21.4999C25.554 21.6712 25.153 22.35 25.3244 23.0161C25.4957 23.6821 26.1747 24.0831 26.8406 23.9116C27.1718 23.8264 27.5151 23.7831 27.8612 23.7831H57.1388C59.3874 23.7831 61.2168 25.6126 61.2168 27.8611V57.1388C61.2168 57.4846 61.1736 57.8277 61.0886 58.1586C60.9174 58.8246 61.3185 59.5033 61.9844 59.6745C62.0883 59.7012 62.1926 59.714 62.2954 59.714C62.85 59.714 63.3559 59.3406 63.5003 58.7785C63.6374 58.2453 63.707 57.6934 63.707 57.1386V54.3914H74.7294C75.2506 55.9366 76.7127 57.0529 78.4316 57.0529C80.5858 57.0529 82.3383 55.3005 82.3383 53.1462C82.3383 50.992 80.5856 49.2396 78.4316 49.2396C76.7127 49.2396 75.2507 50.3559 74.7294 51.9011H63.707V49.0681H69.1159C69.8036 49.0681 70.3611 48.5106 70.3611 47.823C70.3611 47.1353 69.8036 46.5778 69.1159 46.5778H63.707V43.7451H83.7549C84.4425 43.7451 85 43.1876 85 42.5C85 41.8124 84.4425 41.2549 83.7549 41.2549ZM80.0917 18.8748C80.3594 18.6072 80.715 18.4599 81.0933 18.4599C81.4717 18.4599 81.8273 18.6072 82.0949 18.8748C82.3625 19.1424 82.5098 19.498 82.5098 19.8764C82.5098 20.2547 82.3625 20.6103 82.0949 20.878C81.8273 21.1456 81.4717 21.2928 81.0933 21.2928C80.715 21.2928 80.3594 21.1456 80.0917 20.878C79.8241 20.6103 79.6769 20.2547 79.6769 19.8764C79.6769 19.498 79.8241 19.1423 80.0917 18.8748ZM20.878 4.90858C20.3258 5.46059 19.4271 5.46075 18.8746 4.90842C18.3223 4.35608 18.3223 3.45744 18.8746 2.90527C19.1509 2.62902 19.5135 2.49106 19.8764 2.49106C20.2391 2.49106 20.6019 2.62919 20.878 2.90527C21.4303 3.45761 21.4303 4.35625 20.878 4.90858ZM53.1464 7.98469C52.3655 7.98469 51.73 7.34918 51.73 6.56824C51.73 5.7873 52.3653 5.1518 53.1464 5.1518C53.9275 5.1518 54.5629 5.7873 54.5629 6.56824C54.5629 7.34918 53.9273 7.98469 53.1464 7.98469ZM78.4318 51.73C79.2129 51.73 79.8482 52.3655 79.8482 53.1464C79.8482 53.9275 79.2127 54.5629 78.4318 54.5629C77.6508 54.5629 77.0153 53.9274 77.0153 53.1464C77.0151 52.3653 77.6506 51.73 78.4318 51.73Z" fill="#104CBA"></path><path d="M67.8861 78.3308C66.671 77.1156 64.849 76.873 63.3879 77.5967L55.1962 69.4048C54.6772 68.886 54.3915 68.1961 54.3915 67.4623V63.7072H57.1388C57.6941 63.7072 58.2462 63.6374 58.78 63.5001C59.4459 63.3288 59.8468 62.65 59.6755 61.9839C59.5041 61.318 58.8256 60.9171 58.1593 61.0884C57.8282 61.1736 57.4849 61.2168 57.1388 61.2168H27.8612C25.6126 61.2168 23.7832 59.3873 23.7832 57.1388V27.8612C23.7832 27.5151 23.8264 27.1718 23.9116 26.8409C24.0831 26.175 23.6821 25.4962 23.0162 25.3247C22.3502 25.1532 21.6713 25.5541 21.5 26.22C21.3626 26.7536 21.293 27.3058 21.293 27.8612V30.6085H10.2704C9.74927 29.0632 8.28717 27.9469 6.56824 27.9469C4.41402 27.9469 2.66156 29.6994 2.66156 31.8536C2.66156 34.0078 4.41419 35.7603 6.56824 35.7603C8.28717 35.7603 9.7491 34.644 10.2704 33.0987H21.2928V35.9318H15.8839C15.1962 35.9318 14.6388 36.4892 14.6388 37.1769C14.6388 37.8645 15.1962 38.422 15.8839 38.422H21.2928V41.2549H1.24512C0.55748 41.2549 0 41.8124 0 42.5C0 43.1876 0.55748 43.7451 1.24512 43.7451H21.2928V46.578H15.8839C15.1962 46.578 14.6388 47.1355 14.6388 47.8231C14.6388 48.5108 15.1962 49.0682 15.8839 49.0682H21.2928V51.9013H17.5376C16.1385 51.9013 14.8232 52.446 13.8341 53.4353L5.6452 61.6242C5.11162 61.3584 4.52011 61.2169 3.90651 61.2169C2.86294 61.2169 1.88195 61.6233 1.14401 62.3611C0.406406 63.0991 0 64.0802 0 65.1236C0 66.167 0.406406 67.1482 1.14435 67.8861C1.88212 68.6241 2.86327 69.0303 3.90685 69.0303C4.95042 69.0303 5.93141 68.6239 6.66935 67.8861C7.40728 67.1482 7.81369 66.1672 7.81369 65.1236C7.81369 64.51 7.67225 63.9185 7.40645 63.3849L15.5953 55.196C16.1141 54.6772 16.8041 54.3914 17.5381 54.3914H21.2933V57.1386C21.2933 60.7604 24.2399 63.7068 27.8616 63.7068H30.6088V74.7293C29.0635 75.2504 27.9472 76.7125 27.9472 78.4314C27.9472 80.5856 29.6999 82.3381 31.8539 82.3381C34.008 82.3381 35.7606 80.5855 35.7606 78.4314C35.7606 76.7125 34.6443 75.2506 33.099 74.7293V63.7068H35.9319V69.1158C35.9319 69.8034 36.4894 70.3609 37.177 70.3609C37.8647 70.3609 38.4222 69.8034 38.4222 69.1158V63.7068H41.2549V83.7549C41.2549 84.4425 41.8124 85 42.5 85C43.1876 85 43.7451 84.4425 43.7451 83.7549V63.7072H46.578V69.1161C46.578 69.8038 47.1355 70.3612 47.8231 70.3612C48.5108 70.3612 49.0682 69.8038 49.0682 69.1161V63.7072H51.9011V67.4623C51.9011 68.8613 52.446 70.1766 53.4353 71.1658L61.627 79.3575C60.9033 80.8186 61.1459 82.6404 62.3611 83.8557C63.1226 84.6173 64.1232 84.998 65.1236 84.998C66.124 84.998 67.1246 84.6173 67.8861 83.8557C69.4093 82.3325 69.4093 79.854 67.8861 78.3308ZM6.56824 33.27C5.78714 33.27 5.1518 32.6345 5.1518 31.8536C5.1518 31.0725 5.7873 30.4371 6.56824 30.4371C7.34918 30.4371 7.98469 31.0726 7.98469 31.8536C7.98485 32.6347 7.34934 33.27 6.56824 33.27ZM4.90825 66.1252C4.64063 66.3928 4.28503 66.5401 3.90668 66.5401C3.52833 66.5401 3.17272 66.3928 2.90511 66.1252C2.63749 65.8576 2.49023 65.502 2.49023 65.1236C2.49023 64.7453 2.63749 64.3897 2.90511 64.122C3.17272 63.8544 3.52833 63.7072 3.90668 63.7072C4.28503 63.7072 4.64063 63.8544 4.90825 64.122C5.17587 64.3897 5.32312 64.7453 5.32312 65.1236C5.32312 65.502 5.17587 65.8577 4.90825 66.1252ZM33.27 78.4318C33.27 79.2127 32.6347 79.8482 31.8536 79.8482C31.0725 79.8482 30.4371 79.2127 30.4371 78.4318C30.4371 77.6508 31.0726 77.0153 31.8536 77.0153C32.6345 77.0153 33.27 77.6508 33.27 78.4318ZM66.1253 82.0949C65.573 82.6472 64.6744 82.6471 64.122 82.0949C63.5697 81.5426 63.5697 80.6439 64.122 80.0918C64.3983 79.8157 64.761 79.6775 65.1238 79.6775C65.4865 79.6775 65.8493 79.8157 66.1253 80.0918C66.6775 80.6439 66.6775 81.5426 66.1253 82.0949Z" fill="#104CBA"></path><path d="M55.7223 39.1732C55.7223 36.5103 53.7746 34.2547 51.1082 33.5217C51.1871 33.1962 51.2309 32.8613 51.2309 32.5191C51.2309 29.998 48.9932 27.9469 46.243 27.9469C44.7532 27.9469 43.4149 28.5494 42.5002 29.5016C41.5854 28.5494 40.247 27.9469 38.7573 27.9469C36.007 27.9469 33.7694 29.998 33.7694 32.5191C33.7694 32.8613 33.8132 33.1962 33.8921 33.5217C31.2257 34.2545 29.278 36.5102 29.278 39.1732C29.278 40.4746 29.7385 41.7025 30.5894 42.7165C29.7575 43.7934 29.278 45.1008 29.278 46.4927C29.2777 48.6097 30.4089 50.5865 32.2721 51.8126C32.2721 51.8136 32.2721 51.8146 32.2721 51.8156C32.2721 54.7036 34.8455 57.0533 38.0088 57.0533C39.8266 57.0533 41.4485 56.2765 42.5002 55.0682C43.5519 56.2765 45.1737 57.0533 46.9915 57.0533C50.0358 57.0533 52.5325 54.8768 52.7161 52.1389C54.565 51.0661 55.7223 49.1869 55.7223 47.1579C55.7223 45.6654 55.086 44.2417 53.9908 43.1656C55.0858 42.0894 55.7223 40.6655 55.7223 39.1732ZM51.3156 44.2666C52.5154 44.8998 53.2316 45.9807 53.2316 47.1579C53.2316 48.0356 52.8237 48.8728 52.1347 49.4989C51.4801 48.2868 50.3231 47.3219 48.8614 46.8627C48.2056 46.6567 47.5065 47.0214 47.3003 47.6774C47.0941 48.3335 47.459 49.0324 48.115 49.2384C49.3843 49.6373 50.2373 50.6731 50.2373 51.8158C50.2373 53.3307 48.781 54.5632 46.9909 54.5632C45.2009 54.5632 43.7446 53.3307 43.7446 51.8158V43.8309C43.7446 42.3161 45.2009 41.0837 46.9909 41.0837C47.6785 41.0837 48.236 40.5262 48.236 39.8386C48.236 39.151 47.6785 38.5935 46.9909 38.5935C45.7866 38.5935 44.6683 38.9348 43.7446 39.516V37.9256C43.7446 37.238 43.1871 36.6805 42.4995 36.6805C41.8119 36.6805 41.2544 37.238 41.2544 37.9256V44.838C40.8354 44.575 40.3758 44.3574 39.8788 44.2012C39.2223 43.995 38.5238 44.3599 38.3177 45.0156C38.1115 45.6717 38.4763 46.3707 39.1322 46.5768C40.4016 46.9758 41.2544 48.0116 41.2544 49.1541V51.8156C41.2544 53.3305 39.7981 54.563 38.0081 54.563C36.218 54.563 34.7617 53.3305 34.7617 51.8156C34.7617 51.1663 35.0369 50.5352 35.5366 50.0384C36.0244 49.5537 36.0267 48.7653 35.5419 48.2775C35.0572 47.7898 34.2689 47.7874 33.7812 48.2722C33.4829 48.5689 33.226 48.8929 33.0125 49.2374C32.2263 48.4937 31.7673 47.5152 31.7673 46.4923C31.7673 44.6476 33.2151 43.0269 35.2881 42.5513C35.9583 42.3976 36.377 41.7295 36.2233 41.0593C36.0695 40.3889 35.4013 39.9704 34.7313 40.1241C33.8967 40.3156 33.1284 40.6351 32.4471 41.0547C32.0053 40.4998 31.7674 39.8501 31.7674 39.1729C31.7679 37.3001 33.5433 35.7754 35.7319 35.7609C35.743 35.7613 35.7541 35.7628 35.7651 35.7628C36.0493 35.7628 36.335 35.666 36.5689 35.4679C37.0462 35.0638 37.142 34.3782 36.8216 33.8624C36.8121 33.8471 36.8035 33.8315 36.7935 33.8167C36.7884 33.8092 36.7823 33.8021 36.7769 33.7946C36.7577 33.7676 36.7379 33.741 36.7165 33.7154C36.7158 33.7146 36.7153 33.7138 36.7147 33.7131C36.507 33.4676 36.2591 33.0612 36.2591 32.519C36.2591 31.371 37.3797 30.437 38.7568 30.437C40.1339 30.437 41.2545 31.371 41.2545 32.519C41.2545 33.2066 41.812 33.7641 42.4997 33.7641C43.1873 33.7641 43.7448 33.2066 43.7448 32.519C43.7448 31.371 44.8654 30.437 46.2425 30.437C47.6196 30.437 48.7402 31.371 48.7402 32.519C48.7402 32.8258 48.6598 33.0874 48.5534 33.3026C47.8452 33.3695 47.1602 33.5406 46.5099 33.8149C45.8763 34.082 45.5793 34.8123 45.8464 35.446C46.1135 36.0795 46.8438 36.3768 47.4775 36.1096C48.0157 35.8826 48.5948 35.7659 49.1987 35.7613C49.2107 35.7616 49.2225 35.7628 49.2344 35.7628C49.2455 35.7628 49.2565 35.7613 49.2676 35.7609C51.4562 35.7752 53.2316 37.3001 53.2316 39.1729C53.2316 40.3501 52.5154 41.4309 51.3156 42.0642C50.9072 42.2797 50.6515 42.7035 50.6515 43.1654C50.6515 43.6272 50.9072 44.0511 51.3156 44.2666Z" fill="#104CBA"></path></svg>