<svg xmlns="http://www.w3.org/2000/svg" width="68" height="68" viewBox="0 0 68 68" fill="none"><g id="Vector"><path d="M59.1562 48.2253V43.8437C59.1545 42.3939 58.5778 41.0039 57.5526 39.9787C56.5274 38.9535 55.1374 38.3767 53.6875 38.375H44.4803C45.4927 36.5075 46.3093 34.5403 46.9172 32.5048L51.0734 29.1787C51.7195 28.663 52.1918 27.9615 52.4266 27.1688C52.6614 26.3762 52.6474 25.5306 52.3865 24.7462C52.1256 23.9618 51.6304 23.2763 50.9677 22.7822C50.3049 22.288 49.5066 22.0091 48.6803 21.983L51.1172 15.2827C51.739 13.5727 51.9394 11.7381 51.7016 9.93419C51.4637 8.13031 50.7946 6.41034 49.7508 4.92C48.707 3.42967 47.3194 2.2129 45.7054 1.37277C44.0915 0.532634 42.2989 0.0939053 40.4794 0.0937512H31.1934C24.2452 0.0920182 17.4365 2.04471 11.5453 5.72875C11.3683 5.8384 11.2263 5.99629 11.1359 6.18387C11.0455 6.37145 11.0106 6.58093 11.0352 6.78769C11.0598 6.99445 11.1428 7.18989 11.2747 7.35106C11.4065 7.51222 11.5816 7.63241 11.7794 7.6975L14.4164 8.5725C14.7794 8.69358 15.1137 8.88753 15.399 9.14246C15.6844 9.39739 15.9146 9.70793 16.0756 10.055C16.2366 10.4021 16.325 10.7784 16.3353 11.1609C16.3457 11.5434 16.2778 11.9239 16.1358 12.2792C15.8737 12.9342 15.7533 13.6373 15.7826 14.3421C15.8118 15.047 15.9899 15.7377 16.3053 16.3687L19.125 22.0027C18.3184 22.0669 17.5497 22.3721 16.9187 22.8788C16.2878 23.3855 15.8238 24.0702 15.587 24.844C15.3502 25.6177 15.3515 26.4448 15.5908 27.2179C15.83 27.9909 16.2962 28.6741 16.9288 29.1787L21.085 32.5048C21.6922 34.5402 22.5081 36.5074 23.5197 38.375H14.3125C12.8626 38.3767 11.4726 38.9535 10.4474 39.9787C9.42221 41.0039 8.84549 42.3939 8.84375 43.8437V48.2253C6.25511 49.3067 4.04362 51.1287 2.4869 53.4626C0.930186 55.7965 0.0976289 58.5383 0.09375 61.3437V66.8125C0.09375 67.1026 0.208984 67.3808 0.414102 67.5859C0.61922 67.791 0.897419 67.9062 1.1875 67.9062H66.8125C67.1026 67.9062 67.3808 67.791 67.5859 67.5859C67.791 67.3808 67.9062 67.1026 67.9062 66.8125V61.3437C67.9024 58.5383 67.0698 55.7965 65.5131 53.4626C63.9564 51.1287 61.7449 49.3067 59.1562 48.2253ZM36.1875 21.9688C35.8974 21.9688 35.6192 22.084 35.4141 22.2891C35.209 22.4942 35.0938 22.7724 35.0938 23.0625V24.1562H32.9062V23.0625C32.9062 22.7724 32.791 22.4942 32.5859 22.2891C32.3808 22.084 32.1026 21.9688 31.8125 21.9688H21.9688V20.3664L28.7959 15.8153C30.2651 14.8338 31.9926 14.3108 33.7594 14.3125C36.2871 14.3095 38.739 13.4493 40.7145 11.8723L42.5017 10.4428L44.3775 13.2581C45.4575 14.8741 46.0331 16.7745 46.0312 18.7181V21.9688H36.1875ZM41.6562 24.1562V27.4375C41.6562 27.7276 41.541 28.0058 41.3359 28.2109C41.1308 28.416 40.8526 28.5312 40.5625 28.5312H38.375C38.0849 28.5312 37.8067 28.416 37.6016 28.2109C37.3965 28.0058 37.2812 27.7276 37.2812 27.4375V24.1562H41.6562ZM30.7188 24.1562V27.4375C30.7188 27.7276 30.6035 28.0058 30.3984 28.2109C30.1933 28.416 29.9151 28.5312 29.625 28.5312H27.4375C27.1474 28.5312 26.8692 28.416 26.6641 28.2109C26.459 28.0058 26.3438 27.7276 26.3438 27.4375V24.1562H30.7188ZM50.4062 26.0156C50.4068 26.2947 50.3443 26.5702 50.2235 26.8217C50.1027 27.0732 49.9266 27.2942 49.7084 27.4681L47.7255 29.0541C48.0145 27.4368 48.1736 25.7989 48.2013 24.1562H48.5469C48.791 24.1562 49.0328 24.2043 49.2584 24.2978C49.484 24.3912 49.689 24.5282 49.8617 24.7008C50.0343 24.8735 50.1713 25.0785 50.2647 25.3041C50.3582 25.5297 50.4062 25.7714 50.4062 26.0156ZM18.1658 13.0919C18.4185 12.4599 18.5394 11.783 18.5211 11.1027C18.5029 10.4223 18.3458 9.75289 18.0595 9.13542C17.7733 8.51795 17.3639 7.96548 16.8565 7.51189C16.3491 7.0583 15.7543 6.71317 15.1087 6.49766L14.7741 6.38828C19.8265 3.69085 25.466 2.28024 31.1934 2.28125H40.4794C41.9468 2.28153 43.3927 2.63542 44.6944 3.31296C45.996 3.99051 47.1153 4.97175 47.9574 6.1736C48.7994 7.37545 49.3394 8.76252 49.5317 10.2173C49.724 11.6722 49.5629 13.1519 49.062 14.5312L48.1116 17.1453C47.874 15.3191 47.219 13.572 46.1975 12.0397L43.66 8.23234C43.5758 8.10624 43.4663 7.99901 43.3385 7.91748C43.2106 7.83596 43.0672 7.7819 42.9173 7.75875C42.7676 7.73613 42.6147 7.74455 42.4683 7.7835C42.322 7.82245 42.1851 7.89109 42.0664 7.98516L39.3484 10.165C37.7605 11.4312 35.7904 12.1221 33.7594 12.125C31.5604 12.123 29.4104 12.7739 27.5819 13.9953L20.268 18.8713C20.2002 18.9173 20.1378 18.9709 20.082 19.0309L18.262 15.3898C18.0847 15.0353 17.9844 14.6472 17.9678 14.2512C17.9512 13.8551 18.0187 13.46 18.1658 13.0919ZM18.2927 27.4703C17.9908 27.23 17.7711 26.9017 17.6642 26.5309C17.5573 26.1602 17.5683 25.7653 17.6958 25.4011C17.8234 25.0369 18.061 24.7214 18.3759 24.4984C18.6908 24.2753 19.0673 24.1558 19.4531 24.1562H19.7966C19.8241 25.7997 19.9832 27.4382 20.2723 29.0562L18.2927 27.4703ZM21.9862 24.1562H24.1562V27.4375C24.1562 28.3077 24.502 29.1423 25.1173 29.7577C25.7327 30.373 26.5673 30.7187 27.4375 30.7187H29.625C30.4952 30.7187 31.3298 30.373 31.9452 29.7577C32.5605 29.1423 32.9062 28.3077 32.9062 27.4375V26.3438H35.0938V27.4375C35.0938 28.3077 35.4395 29.1423 36.0548 29.7577C36.6702 30.373 37.5048 30.7187 38.375 30.7187H40.5625C41.4327 30.7187 42.2673 30.373 42.8827 29.7577C43.498 29.1423 43.8438 28.3077 43.8438 27.4375V24.1562H46.0138C45.9288 29.1694 44.5292 34.0725 41.9548 38.375H26.0452C23.4708 34.0725 22.0712 29.1694 21.9862 24.1562ZM14.3125 40.5625H53.6875C54.5577 40.5625 55.3923 40.9082 56.0077 41.5236C56.623 42.1389 56.9688 42.9735 56.9688 43.8437V65.7187H11.0312V43.8437C11.0312 42.9735 11.377 42.1389 11.9923 41.5236C12.6077 40.9082 13.4423 40.5625 14.3125 40.5625ZM2.28125 61.3437C2.28422 59.1275 2.89839 56.9551 4.0562 55.0653C5.21401 53.1756 6.8706 51.6418 8.84375 50.6327V65.7187H2.28125V61.3437ZM65.7188 65.7187H59.1562V50.6327C61.1293 51.6419 62.7858 53.1757 63.9436 55.0654C65.1014 56.9551 65.7157 59.1275 65.7188 61.3437V65.7187Z" fill="#104CBA"></path><path d="M34 62.4375C34.8653 62.4375 35.7112 62.1809 36.4306 61.7002C37.1501 61.2194 37.7108 60.5362 38.042 59.7367C38.3731 58.9373 38.4598 58.0576 38.2909 57.209C38.1221 56.3603 37.7055 55.5808 37.0936 54.9689C36.4817 54.3571 35.7022 53.9404 34.8535 53.7716C34.0049 53.6028 33.1252 53.6894 32.3258 54.0205C31.5263 54.3517 30.8431 54.9124 30.3623 55.6319C29.8816 56.3513 29.625 57.1972 29.625 58.0625C29.625 59.2228 30.0859 60.3356 30.9064 61.1561C31.7269 61.9766 32.8397 62.4375 34 62.4375ZM34 55.875C34.4327 55.875 34.8556 56.0033 35.2153 56.2437C35.575 56.484 35.8554 56.8257 36.021 57.2254C36.1866 57.6251 36.2299 58.0649 36.1455 58.4893C36.0611 58.9136 35.8527 59.3034 35.5468 59.6093C35.2409 59.9152 34.8511 60.1236 34.4268 60.208C34.0024 60.2924 33.5626 60.249 33.1629 60.0835C32.7632 59.9179 32.4215 59.6375 32.1812 59.2778C31.9408 58.9181 31.8125 58.4951 31.8125 58.0625C31.8125 57.4823 32.043 56.9259 32.4532 56.5157C32.8634 56.1055 33.4198 55.875 34 55.875Z" fill="#104CBA"></path><path d="M26.6642 52.2733L28.2108 50.7267L24.6091 47.125L28.2108 43.5233L26.6642 41.9767L22.2892 46.3517C22.0842 46.5568 21.969 46.835 21.969 47.125C21.969 47.415 22.0842 47.6932 22.2892 47.8983L26.6642 52.2733Z" fill="#104CBA"></path><path d="M41.3358 52.2733L45.7108 47.8983C45.9158 47.6932 46.031 47.415 46.031 47.125C46.031 46.835 45.9158 46.5568 45.7108 46.3517L41.3358 41.9767L39.7892 43.5233L43.3909 47.125L39.7892 50.7267L41.3358 52.2733Z" fill="#104CBA"></path><path d="M36.4071 42.0937L29.8429 50.8424L31.5926 52.1553L38.1568 43.4066L36.4071 42.0937Z" fill="#104CBA"></path></g></svg>