<svg xmlns="http://www.w3.org/2000/svg" width="30" height="30" viewBox="0 0 30 30" fill="none"><path id="Vector" d="M28.4689 20.8085C26.9984 19.3389 24.7735 18.8863 22.8455 19.6372L22.0014 18.7936C22.0684 18.7431 22.1329 18.6878 22.1939 18.6268L24.3 16.5219C24.6452 16.1769 24.8353 15.7168 24.8353 15.2262C24.8353 14.7357 24.6452 14.2756 24.3 13.9306H24.3C23.9173 13.5481 23.4061 13.3708 22.904 13.3981C22.9165 13.306 22.9233 13.2125 22.9233 13.1179C22.9233 12.574 22.7123 12.0641 22.3292 11.682C21.9575 11.3106 21.4764 11.1136 20.9886 11.091C21.2212 10.3839 21.0578 9.57073 20.5006 9.01237C20.045 8.55706 19.4251 8.36438 18.8299 8.43328C18.8386 8.35628 18.8436 8.2784 18.8436 8.1997C18.8436 7.65583 18.633 7.14588 18.2507 6.76376C17.4592 5.97275 16.1714 5.97281 15.38 6.76376L14.0339 8.10909L13.9297 8.00497C13.4259 7.50142 12.6053 7.50213 12.1004 8.00667L11.6537 8.45312L10.3519 7.15087C11.103 5.22318 10.6498 2.99969 9.1791 1.52982C7.95465 0.306041 6.20075 -0.231315 4.48834 0.0925302C4.24325 0.138718 3.49755 0.279278 3.34451 0.850791C3.19486 1.40974 3.727 1.86793 3.98281 2.08813C4.00871 2.11043 6.08457 4.18121 6.08457 4.18121C6.62355 4.71992 6.65976 5.58699 6.17222 6.16824C5.58993 6.65612 4.72107 6.62009 4.18132 6.08062C4.18132 6.08062 2.10939 4.00591 2.08701 3.97997C1.86664 3.72438 1.40787 3.19277 0.849834 3.34284C0.279382 3.49649 0.138761 4.24137 0.0925907 4.48593C-0.231482 6.1987 0.306276 7.95209 1.5312 9.17628C3.00174 10.6459 5.22654 11.0985 7.15457 10.3476L8.66179 11.8539C8.47782 12.33 8.39204 12.854 8.4235 13.3802C8.49498 14.5612 7.86998 15.7195 6.33352 17.2536L4.73308 18.8531C4.1914 18.5748 3.50892 18.6616 3.05565 19.1146L0.814152 21.3548C0.542519 21.6262 0.392992 21.9881 0.392992 22.3739C0.392992 22.7597 0.542578 23.1216 0.814093 23.393L7.00393 29.5792C7.28465 29.8597 7.65343 30 8.0222 30C8.39098 30 8.75976 29.8597 9.04053 29.5791L11.282 27.3389C11.5537 27.0675 11.7032 26.7056 11.7032 26.3198C11.7032 26.0866 11.6482 25.8622 11.5449 25.6611L14.2674 22.9402C15.0744 22.1337 15.2055 22.1556 16.0603 22.2985C16.2041 22.3225 16.3672 22.3498 16.5506 22.376C17.2967 22.4834 18.1631 22.1036 18.6547 21.8407L19.6482 22.8338C19.3859 23.5079 19.2641 24.241 19.2949 24.9726C19.3048 25.2092 19.4994 25.3943 19.7336 25.3943C19.7398 25.3943 19.7461 25.3941 19.7524 25.3939C19.9948 25.3836 20.1832 25.1785 20.173 24.9356C20.1437 24.2383 20.2801 23.5402 20.5675 22.9168C20.6447 22.7492 20.6094 22.5511 20.4789 22.4207L13.4471 15.3913C13.7331 14.8516 13.895 14.2775 13.9128 13.7138C14.4189 14.1496 15.0847 14.5047 15.7355 14.68C16.2684 14.8235 16.7671 14.8468 17.2149 14.754C17.2149 14.759 17.2146 14.7639 17.2146 14.7689C17.2149 15.312 17.4261 15.8214 17.8083 16.2023C18.1679 16.5626 18.6405 16.7705 19.148 16.7938C19.0958 16.9656 19.0687 17.1462 19.0687 17.3312C19.0687 17.8217 19.2588 18.2818 19.604 18.6267C19.961 18.9836 20.4299 19.162 20.8989 19.1619C20.9703 19.1619 21.0417 19.1573 21.1128 19.1489L22.4339 20.4693C22.5639 20.5992 22.7607 20.6345 22.9275 20.5578C24.5856 19.7963 26.5631 20.1474 27.8481 21.4316C28.8668 22.4497 29.3139 23.9088 29.0439 25.335C28.9987 25.5739 28.9475 25.699 28.9145 25.7602C28.8514 25.7187 28.7477 25.6259 28.5783 25.4293C28.5403 25.3852 26.4396 23.2809 26.4396 23.2809C25.5677 22.4093 24.1569 22.3615 23.228 23.1721C23.213 23.1852 23.199 23.1991 23.1859 23.2141C22.3742 24.1433 22.422 25.5544 23.2948 26.4267L25.7741 28.8982C25.7124 28.9313 25.587 28.9822 25.349 29.0271C23.9213 29.2968 22.4606 28.8501 21.4424 27.8323C21.1193 27.5081 20.851 27.1393 20.6447 26.7362C20.534 26.5199 20.2693 26.4345 20.0532 26.5453C19.8372 26.6563 19.7519 26.9215 19.8627 27.1379C20.1106 27.6223 20.4327 28.0651 20.8209 28.4548C21.8107 29.444 23.1461 29.9847 24.5261 29.9847C24.8535 29.9847 25.1834 29.9542 25.5117 29.8922C25.7568 29.846 26.5025 29.7054 26.6555 29.1339C26.8052 28.575 26.273 28.1168 26.0172 27.8966C25.9913 27.8743 23.9155 25.8035 23.9155 25.8035C23.3765 25.2648 23.3403 24.3977 23.8278 23.8165C24.4101 23.3286 25.279 23.3647 25.8187 23.9041C25.8187 23.9041 27.8907 25.9788 27.913 26.0048C28.1335 26.2604 28.5925 26.7922 29.1502 26.6419C29.7205 26.4882 29.8612 25.7433 29.9073 25.4988C30.2316 23.7862 29.6938 22.0328 28.4689 20.8085ZM19.8794 9.63529C20.3194 10.0762 20.3264 10.7979 19.8954 11.2455L18.4829 12.6573C18.2404 12.3053 16.906 10.9797 16.906 10.9797L18.2507 9.6357C18.6999 9.18673 19.4307 9.18685 19.8794 9.63529ZM16.0008 7.38709C16.45 6.93818 17.181 6.9383 17.6299 7.38709C17.8459 7.60289 17.9647 7.89153 17.9647 8.19982C17.9647 8.50811 17.8459 8.79674 17.6299 9.01254L16.2838 10.3579L14.6561 8.73107L16.0008 7.38709ZM7.56612 9.51539C7.43628 9.38557 7.23953 9.3503 7.0726 9.42689C5.41433 10.1883 3.43691 9.8373 2.15204 8.55313C1.1333 7.53505 0.686245 6.07593 0.956179 4.64973C1.00135 4.4108 1.05256 4.28568 1.08555 4.22452C1.14871 4.26602 1.25236 4.35886 1.42175 4.55541C1.45978 4.59955 3.56054 6.70384 3.56054 6.70384C4.43256 7.57543 5.84322 7.62326 6.77214 6.81265C6.78708 6.79962 6.80109 6.78553 6.81421 6.77063C7.62595 5.84146 7.57808 4.43035 6.70529 3.55805C6.70529 3.55805 4.26786 1.14975 4.22597 1.08654C4.28772 1.05344 4.41311 1.0025 4.65111 0.957605C6.07859 0.687753 7.53941 1.13461 8.55844 2.1531C9.84283 3.43674 10.1941 5.41204 9.43251 7.06841C9.35552 7.23591 9.39091 7.43369 9.52116 7.56398L11.0317 9.07505L9.39425 10.7115C9.28908 10.8167 9.1924 10.9308 9.10282 11.051L7.56612 9.51539ZM17.8088 13.331C17.695 13.4447 17.5968 13.5699 17.5144 13.7036C16.5783 14.2846 15.0982 13.6446 14.3616 12.934L14.2703 12.8428C13.597 12.1707 13.2389 11.8129 13.2058 11.779C13.2053 11.7784 13.2047 11.7779 13.2041 11.7773C13.2024 11.7757 13.2009 11.7739 13.1993 11.7723C13.1969 11.7699 13.1946 11.7682 13.1923 11.7661C13.0242 11.605 12.7579 11.6021 12.5869 11.764C12.4106 11.931 12.4028 12.2096 12.5696 12.3863C12.5712 12.3879 12.5738 12.3907 12.5784 12.3954C12.8784 12.6952 13.0369 13.1151 13.0369 13.6097C13.0369 14.3878 12.64 15.2491 11.975 15.9136C11.8032 16.0853 11.8029 16.364 11.9743 16.5361C12.0602 16.6222 12.1728 16.6653 12.2854 16.6653C12.3977 16.6653 12.5101 16.6225 12.5958 16.5368C12.7232 16.4095 12.8412 16.2764 12.9516 16.1396L17.9999 21.1862C17.4882 21.4267 16.9928 21.5503 16.6751 21.5045C16.5015 21.4797 16.3439 21.4534 16.2049 21.4301C15.1866 21.2599 14.7303 21.2339 13.6466 22.317L10.9716 24.9904L8.76128 22.7814C8.58949 22.6097 8.31124 22.61 8.13986 22.7821C7.96842 22.9542 7.96877 23.2329 8.14062 23.4046L10.6604 25.9229C10.6604 25.9229 10.6605 25.9231 10.6606 25.9232L10.6609 25.9235L10.6614 25.9239C10.7665 26.029 10.8244 26.1696 10.8244 26.3199C10.8244 26.4701 10.7665 26.6107 10.6613 26.7158L8.41969 28.956C8.20044 29.1751 7.84379 29.1751 7.62466 28.956L1.43488 22.7699C1.32976 22.6648 1.27187 22.5241 1.27187 22.374C1.27187 22.2238 1.32976 22.0831 1.43493 21.978L3.67643 19.7378C3.89568 19.5187 4.25233 19.5188 4.47147 19.7378L6.68795 21.953C6.8598 22.1246 7.13799 22.1244 7.30943 21.9523C7.48087 21.7802 7.48052 21.5015 7.30873 21.3298L5.40396 19.4262L6.95413 17.8769C8.68717 16.1465 9.38898 14.7858 9.30074 13.3272C9.25627 12.5829 9.52995 11.8194 10.0149 11.3346L12.7212 8.62995C12.8809 8.4702 13.1501 8.46955 13.3088 8.62825L16.5867 11.9042C16.6639 11.9814 16.7411 12.0579 16.8171 12.1332C17.1811 12.4939 17.7058 13.0138 17.8484 13.2911L17.8088 13.331ZM19.2442 15.9159C18.9353 15.9159 18.6461 15.7966 18.4291 15.5792C18.2129 15.3637 18.0937 15.0757 18.0935 14.7683C18.0933 14.4602 18.2127 14.171 18.4295 13.9542L20.0794 12.3053C20.3039 12.0809 20.5989 11.9687 20.8939 11.9687C21.1889 11.9687 21.4839 12.0809 21.7084 12.3053C21.7086 12.3055 21.7087 12.3056 21.7089 12.3058C21.9253 12.5215 22.0445 12.81 22.0445 13.1181C22.0445 13.426 21.9255 13.7143 21.7088 13.9304C21.7087 13.9306 21.7085 13.9307 21.7084 13.9309L20.0582 15.5801C19.8422 15.7966 19.553 15.9159 19.2442 15.9159ZM20.2248 18.0037C20.0461 17.8251 19.9477 17.5863 19.9477 17.3313C19.9477 17.0763 20.0461 16.8375 20.2249 16.6588L22.3293 14.554C22.5154 14.368 22.7599 14.275 23.0043 14.275C23.2488 14.275 23.4932 14.368 23.6793 14.554H23.6793C23.8581 14.7325 23.9564 14.9713 23.9564 15.2264C23.9564 15.4814 23.858 15.7202 23.6793 15.8988L21.5733 18.0037C21.2014 18.3752 20.5964 18.3751 20.2248 18.0037Z" fill="#104CBA"></path></svg>