<svg xmlns="http://www.w3.org/2000/svg" width="49" height="42" viewBox="0 0 49 42" fill="none"><path d="M41.3359 42H6.9188C6.22899 41.9993 5.56765 41.7261 5.07988 41.2404C4.59212 40.7548 4.31777 40.0962 4.31704 39.4094V34.8707C4.31704 34.6887 4.38967 34.5141 4.51896 34.3853C4.64824 34.2566 4.82359 34.1843 5.00643 34.1843H43.2483C43.4312 34.1843 43.6065 34.2566 43.7358 34.3853C43.8651 34.5141 43.9377 34.6887 43.9377 34.8707V39.4087C43.9372 40.0957 43.6629 40.7544 43.1751 41.2402C42.6873 41.726 42.0259 41.9993 41.3359 42ZM5.69582 35.5572V39.4087C5.69618 39.7316 5.82515 40.0411 6.05443 40.2694C6.2837 40.4977 6.59456 40.6261 6.9188 40.6264H41.3359C41.6602 40.6261 41.9711 40.4977 42.2003 40.2694C42.4296 40.0411 42.5586 39.7316 42.5589 39.4087V35.5572H5.69582Z" fill="#104CBA"></path><path d="M20.02 13.8014H16.7109C16.5281 13.8014 16.3527 13.7291 16.2234 13.6003C16.0941 13.4716 16.0215 13.297 16.0215 13.115V11.1634C16.0217 10.7047 16.2048 10.2647 16.5305 9.94024C16.8563 9.61576 17.298 9.43331 17.7588 9.43294H18.9742C19.435 9.43331 19.8768 9.61574 20.2027 9.94019C20.5285 10.2646 20.7118 10.7046 20.7121 11.1634V13.115C20.7121 13.2053 20.6942 13.2948 20.6594 13.3783C20.6246 13.4617 20.5735 13.5375 20.5092 13.6013C20.4449 13.6651 20.3686 13.7156 20.2846 13.7499C20.2007 13.7843 20.1107 13.8018 20.02 13.8014ZM17.4003 12.4285H19.3306V11.1634C19.3306 11.0686 19.2927 10.9776 19.2254 10.9106C19.158 10.8435 19.0667 10.8058 18.9714 10.8058H17.7622C17.7151 10.8058 17.6684 10.8151 17.6249 10.833C17.5813 10.851 17.5418 10.8774 17.5085 10.9106C17.4752 10.9438 17.4488 10.9832 17.4308 11.0266C17.4129 11.07 17.4037 11.1165 17.4037 11.1634L17.4003 12.4285Z" fill="#104CBA"></path><path d="M31.5404 13.8014H28.2313C28.0485 13.8014 27.8731 13.7291 27.7438 13.6003C27.6146 13.4716 27.5419 13.297 27.5419 13.115V11.1634C27.5423 10.7046 27.7255 10.2646 28.0514 9.94019C28.3772 9.61574 28.8191 9.43331 29.2799 9.43294H30.4891C30.9498 9.43331 31.3916 9.61576 31.7173 9.94024C32.0431 10.2647 32.2262 10.7047 32.2263 11.1634V13.115C32.2263 13.2964 32.1542 13.4705 32.0256 13.5991C31.8971 13.7278 31.7226 13.8005 31.5404 13.8014ZM28.9207 12.4285H30.851V11.1634C30.8511 11.1165 30.8419 11.07 30.8239 11.0266C30.8059 10.9832 30.7795 10.9438 30.7463 10.9106C30.713 10.8774 30.6734 10.851 30.6299 10.833C30.5863 10.8151 30.5397 10.8058 30.4925 10.8058H29.2833C29.1881 10.8058 29.0967 10.8435 29.0294 10.9106C28.962 10.9776 28.9242 11.0686 28.9242 11.1634L28.9207 12.4285Z" fill="#104CBA"></path><path d="M47.0096 15.1736C46.9555 15.1738 46.9016 15.1676 46.849 15.155L36.4516 12.6839C36.3625 12.6639 36.2783 12.6266 36.2038 12.574C36.1293 12.5213 36.0661 12.4545 36.0177 12.3774C35.9694 12.3002 35.937 12.2142 35.9223 12.1245C35.9076 12.0347 35.911 11.943 35.9322 11.8545C35.9535 11.7661 35.9921 11.6827 36.046 11.6093C36.0999 11.5359 36.1678 11.4738 36.246 11.4268C36.3241 11.3797 36.4109 11.3486 36.5012 11.3352C36.5916 11.3218 36.6837 11.3264 36.7722 11.3488L47.1696 13.8199C47.3334 13.8594 47.477 13.9572 47.5733 14.0949C47.6696 14.2326 47.712 14.4007 47.6923 14.5673C47.6726 14.734 47.5922 14.8877 47.4665 14.9994C47.3407 15.1111 47.1782 15.1731 47.0096 15.1736Z" fill="#104CBA"></path><path d="M3.07958 18.3765C2.52022 18.3772 1.97958 18.1758 1.55803 17.8098C1.13647 17.4437 0.86264 16.9377 0.787357 16.3858L0.0559133 11.0001C-0.12079 9.67382 0.123749 8.32577 0.755251 7.14488C1.38675 5.96398 2.37355 5.00947 3.57732 4.41513C10.9235 0.764685 18.8067 0 24.1274 0C29.4633 0 37.3637 0.765372 44.6836 4.41307C45.8857 5.00825 46.8709 5.96271 47.5014 7.14293C48.1318 8.32315 48.3759 9.67008 48.1995 10.9953L47.4674 16.3837C47.4242 16.7024 47.3144 17.0085 47.1451 17.2823C46.9757 17.5561 46.7507 17.7916 46.4844 17.9734C46.218 18.1553 45.9164 18.2796 45.5989 18.3382C45.2813 18.3969 44.955 18.3886 44.6409 18.314L37.372 16.5849C36.8267 16.4535 36.3477 16.1297 36.0238 15.6735C35.6999 15.2174 35.5531 14.6598 35.6106 14.1041L36.0242 10.1914C36.0601 9.83469 35.9627 9.47729 35.7507 9.18746C35.5387 8.89764 35.227 8.6957 34.875 8.62021C27.8077 7.03864 20.476 7.03864 13.4087 8.62021C13.0569 8.69598 12.7454 8.89802 12.5336 9.18779C12.3218 9.47757 12.2245 9.83482 12.2602 10.1914L12.6738 14.1082C12.7313 14.6642 12.5843 15.2221 12.26 15.6783C11.9357 16.1346 11.4561 16.4581 10.9104 16.589L3.61386 18.3147C3.4388 18.356 3.25949 18.3767 3.07958 18.3765ZM24.1274 1.37286C18.9569 1.37286 11.2985 2.11421 4.19295 5.64453C3.2467 6.11096 2.47079 6.86058 1.97404 7.78828C1.47728 8.71598 1.28459 9.77522 1.42298 10.8175L2.15304 16.1998C2.17038 16.3285 2.21464 16.4521 2.28296 16.5627C2.35128 16.6732 2.44214 16.7683 2.54967 16.8417C2.6572 16.9152 2.779 16.9653 2.90721 16.9889C3.03542 17.0126 3.16718 17.0091 3.29398 16.9789L10.5933 15.2484C10.8134 15.1956 11.0069 15.065 11.1377 14.881C11.2685 14.6969 11.3279 14.4719 11.3047 14.2476L10.8911 10.3308C10.8201 9.63932 11.0069 8.94599 11.416 8.38275C11.825 7.81951 12.4278 7.42567 13.1095 7.27617C20.3743 5.65079 27.9108 5.65079 35.1756 7.27617C35.8581 7.42497 36.4618 7.81874 36.8715 8.38237C37.2812 8.946 37.4681 9.64006 37.3968 10.3322L36.9831 14.2448C36.9598 14.4691 37.019 14.6941 37.1497 14.8782C37.2804 15.0622 37.4738 15.1928 37.6939 15.2456L44.9608 16.9741C45.0871 17.004 45.2183 17.0073 45.3461 16.9839C45.4738 16.9604 45.5951 16.9106 45.7024 16.8377C45.8097 16.7648 45.9005 16.6704 45.969 16.5606C46.0375 16.4507 46.0823 16.3278 46.1003 16.1998L46.8318 10.8113C46.9706 9.76992 46.7788 8.7114 46.2832 7.78402C45.7875 6.85663 45.013 6.10685 44.068 5.63972C36.9852 2.11215 29.315 1.37286 24.1274 1.37286Z" fill="#104CBA"></path><path d="M1.24373 15.1736C1.07526 15.1729 0.912852 15.1108 0.787201 14.9991C0.661549 14.8873 0.581348 14.7336 0.561746 14.567C0.542145 14.4004 0.5845 14.2324 0.680811 14.0947C0.777121 13.9571 0.920721 13.8593 1.08448 13.8199L11.5977 11.3193C11.6862 11.2969 11.7783 11.2923 11.8687 11.3057C11.959 11.3191 12.0457 11.3502 12.1239 11.3972C12.202 11.4443 12.27 11.5063 12.3239 11.5798C12.3777 11.6532 12.4164 11.7366 12.4377 11.825C12.4589 11.9135 12.4623 12.0052 12.4476 12.095C12.4329 12.1847 12.4005 12.2707 12.3521 12.3478C12.3038 12.425 12.2406 12.4918 12.1661 12.5445C12.0916 12.5971 12.0074 12.6344 11.9183 12.6544L1.40505 15.155C1.3522 15.1675 1.29805 15.1737 1.24373 15.1736Z" fill="#104CBA"></path><path d="M43.2483 35.5572H5.00643C4.82359 35.5572 4.64824 35.4848 4.51896 35.3561C4.38967 35.2274 4.31704 35.0528 4.31704 34.8707L4.31704 28.3167C4.31455 27.4757 4.5461 26.6504 4.98601 25.9325C5.42592 25.2146 6.05698 24.6321 6.80919 24.2496C8.62171 23.3547 10.1885 22.0344 11.3746 20.4024C12.5607 18.7705 13.3305 16.8759 13.6176 14.8818C13.7091 14.2005 14.0463 13.5755 14.5663 13.1234C15.0864 12.6713 15.7537 12.4228 16.4441 12.4244H31.8093C32.4996 12.4228 33.167 12.6713 33.687 13.1234C34.2071 13.5755 34.5443 14.2005 34.6358 14.8818C34.9233 16.8763 35.6937 18.7712 36.8806 20.4031C38.0674 22.0351 39.635 23.3552 41.4483 24.2496C42.2005 24.6321 42.8316 25.2146 43.2715 25.9325C43.7114 26.6504 43.943 27.4757 43.9405 28.3167V34.8707C43.9405 34.9611 43.9225 35.0506 43.8877 35.134C43.8529 35.2175 43.8019 35.2933 43.7376 35.3571C43.6733 35.4209 43.5969 35.4714 43.513 35.5057C43.429 35.54 43.3391 35.5575 43.2483 35.5572ZM5.69582 34.1843H42.5589V28.3167C42.5628 27.7314 42.4038 27.1566 42.0996 26.6558C41.7954 26.155 41.3578 25.7479 40.8355 25.4797C38.8222 24.4862 37.0817 23.0201 35.7641 21.2078C34.4465 19.3956 33.5913 17.2914 33.2721 15.0768C33.2259 14.723 33.052 14.398 32.7828 14.1626C32.5136 13.9272 32.1676 13.7973 31.8093 13.7973H16.4455C16.0872 13.7973 15.7411 13.9272 15.4719 14.1626C15.2028 14.398 15.0288 14.723 14.9826 15.0768C14.6638 17.2911 13.809 19.3951 12.4918 21.2074C11.1747 23.0196 9.43483 24.4858 7.42206 25.4797C6.89966 25.7479 6.4621 26.155 6.15789 26.6558C5.85367 27.1566 5.69469 27.7314 5.69858 28.3167L5.69582 34.1843Z" fill="#104CBA"></path><path d="M24.1274 32.1209C22.6078 32.1209 21.1223 31.6722 19.8588 30.8316C18.5953 29.9909 17.6105 28.7961 17.029 27.3982C16.4474 26.0003 16.2953 24.4621 16.5917 22.9781C16.8882 21.4941 17.62 20.1309 18.6945 19.061C19.769 17.9911 21.138 17.2625 22.6284 16.9673C24.1189 16.6721 25.6637 16.8236 27.0676 17.4027C28.4716 17.9817 29.6715 18.9622 30.5158 20.2203C31.36 21.4784 31.8106 22.9575 31.8106 24.4706C31.8084 26.4989 30.9983 28.4435 29.5578 29.8778C28.1174 31.312 26.1644 32.1187 24.1274 32.1209ZM24.1274 18.1932C22.8805 18.1932 21.6616 18.5613 20.6248 19.2511C19.588 19.9409 18.78 20.9213 18.3028 22.0683C17.8256 23.2154 17.7008 24.4776 17.944 25.6953C18.1873 26.913 18.7877 28.0315 19.6694 28.9094C20.5511 29.7873 21.6745 30.3852 22.8974 30.6274C24.1204 30.8696 25.388 30.7453 26.54 30.2702C27.692 29.7951 28.6766 28.9905 29.3694 27.9581C30.0621 26.9258 30.4319 25.7122 30.4319 24.4706C30.4306 22.8059 29.766 21.2096 28.5841 20.0322C27.4021 18.8548 25.7993 18.1924 24.1274 18.1904V18.1932Z" fill="#104CBA"></path><path d="M24.1274 20.9719C23.9445 20.9719 23.7692 20.8995 23.6399 20.7708C23.5106 20.6421 23.438 20.4675 23.438 20.2854V19.8598C23.438 19.6778 23.5106 19.5032 23.6399 19.3745C23.7692 19.2457 23.9445 19.1734 24.1274 19.1734C24.3102 19.1734 24.4856 19.2457 24.6148 19.3745C24.7441 19.5032 24.8168 19.6778 24.8168 19.8598V20.2854C24.8168 20.4675 24.7441 20.6421 24.6148 20.7708C24.4856 20.8995 24.3102 20.9719 24.1274 20.9719Z" fill="#104CBA"></path><path d="M21.1547 22.1971C20.9722 22.1971 20.7972 22.125 20.668 21.9967L20.3654 21.696C20.3013 21.6323 20.2505 21.5566 20.2158 21.4734C20.1811 21.3901 20.1633 21.3008 20.1632 21.2106C20.1632 21.1205 20.181 21.0312 20.2156 20.9479C20.2503 20.8646 20.301 20.7889 20.365 20.7251C20.429 20.6613 20.505 20.6107 20.5887 20.5762C20.6723 20.5416 20.762 20.5239 20.8525 20.5238C20.9431 20.5238 21.0327 20.5415 21.1164 20.576C21.2001 20.6105 21.2761 20.661 21.3402 20.7247L21.6421 21.0254C21.7385 21.1214 21.8041 21.2437 21.8307 21.3768C21.8573 21.51 21.8437 21.648 21.7915 21.7734C21.7393 21.8988 21.651 22.006 21.5376 22.0814C21.4243 22.1568 21.291 22.1971 21.1547 22.1971Z" fill="#104CBA"></path><path d="M19.9235 25.157H19.4967C19.3139 25.157 19.1385 25.0847 19.0093 24.956C18.88 24.8272 18.8073 24.6526 18.8073 24.4706C18.8073 24.2885 18.88 24.1139 19.0093 23.9852C19.1385 23.8565 19.3139 23.7842 19.4967 23.7842H19.9235C20.1063 23.7842 20.2817 23.8565 20.4109 23.9852C20.5402 24.1139 20.6129 24.2885 20.6129 24.4706C20.6129 24.6526 20.5402 24.8272 20.4109 24.956C20.2817 25.0847 20.1063 25.157 19.9235 25.157Z" fill="#104CBA"></path><path d="M20.8528 28.4183C20.7163 28.4184 20.5829 28.3781 20.4694 28.3027C20.3559 28.2272 20.2674 28.1199 20.2152 27.9944C20.1631 27.8688 20.1495 27.7307 20.1762 27.5974C20.2029 27.4642 20.2687 27.3418 20.3654 27.2458L20.668 26.9452C20.7981 26.8202 20.9723 26.7512 21.1531 26.7529C21.3338 26.7545 21.5067 26.8269 21.6344 26.9542C21.7621 27.0816 21.8345 27.2538 21.836 27.4338C21.8374 27.6138 21.7678 27.7871 21.6421 27.9165L21.3402 28.2171C21.2109 28.3459 21.0356 28.4182 20.8528 28.4183Z" fill="#104CBA"></path><path d="M24.1274 29.7685C23.9445 29.7685 23.7692 29.6962 23.6399 29.5674C23.5106 29.4387 23.438 29.2641 23.438 29.082V28.6565C23.438 28.4744 23.5106 28.2998 23.6399 28.1711C23.7692 28.0423 23.9445 27.97 24.1274 27.97C24.3102 27.97 24.4856 28.0423 24.6148 28.1711C24.7441 28.2998 24.8168 28.4744 24.8168 28.6565V29.082C24.8168 29.2641 24.7441 29.4387 24.6148 29.5674C24.4856 29.6962 24.3102 29.7685 24.1274 29.7685Z" fill="#104CBA"></path><path d="M27.402 28.4183C27.2192 28.4182 27.0438 28.3459 26.9146 28.2171L26.6126 27.9165C26.5467 27.8532 26.4942 27.7775 26.458 27.6938C26.4218 27.6101 26.4027 27.52 26.4019 27.4289C26.401 27.3377 26.4184 27.2473 26.453 27.1629C26.4876 27.0785 26.5387 27.0019 26.6034 26.9374C26.6681 26.8729 26.745 26.8219 26.8297 26.7873C26.9144 26.7527 27.0052 26.7353 27.0967 26.736C27.1882 26.7367 27.2787 26.7556 27.3629 26.7915C27.447 26.8274 27.5231 26.8797 27.5867 26.9452L27.8894 27.2458C27.986 27.3418 28.0518 27.4642 28.0786 27.5974C28.1053 27.7307 28.0917 27.8688 28.0395 27.9944C27.9873 28.1199 27.8989 28.2272 27.7854 28.3027C27.6719 28.3781 27.5384 28.4184 27.402 28.4183Z" fill="#104CBA"></path><path d="M28.758 25.157H28.3313C28.1484 25.157 27.9731 25.0847 27.8438 24.956C27.7145 24.8272 27.6419 24.6526 27.6419 24.4706C27.6419 24.2885 27.7145 24.1139 27.8438 23.9852C27.9731 23.8565 28.1484 23.7842 28.3313 23.7842H28.758C28.9409 23.7842 29.1162 23.8565 29.2455 23.9852C29.3748 24.1139 29.4474 24.2885 29.4474 24.4706C29.4474 24.6526 29.3748 24.8272 29.2455 24.956C29.1162 25.0847 28.9409 25.157 28.758 25.157Z" fill="#104CBA"></path><path d="M27.1 22.1971C26.9637 22.1971 26.8304 22.1568 26.7171 22.0814C26.6038 22.006 26.5154 21.8988 26.4633 21.7734C26.4111 21.648 26.3974 21.51 26.424 21.3768C26.4506 21.2437 26.5162 21.1214 26.6126 21.0254L26.9146 20.7247C26.9786 20.661 27.0547 20.6105 27.1383 20.576C27.222 20.5415 27.3117 20.5238 27.4022 20.5238C27.4928 20.5239 27.5824 20.5416 27.6661 20.5762C27.7497 20.6107 27.8257 20.6613 27.8897 20.7251C27.9537 20.7889 28.0045 20.8646 28.0391 20.9479C28.0737 21.0312 28.0915 21.1205 28.0915 21.2106C28.0915 21.3008 28.0736 21.3901 28.0389 21.4734C28.0042 21.5566 27.9534 21.6323 27.8894 21.696L27.5867 21.9967C27.4575 22.125 27.2825 22.1971 27.1 22.1971Z" fill="#104CBA"></path></svg>