<svg xmlns="http://www.w3.org/2000/svg" xmlns:xlink="http://www.w3.org/1999/xlink" id="Layer_1" x="0px" y="0px" viewBox="0 0 82 70" style="enable-background:new 0 0 82 70;" xml:space="preserve"><style type="text/css">	.st0{fill:#ECE1DA;}	.st1{fill:#3E0000;}	.st2{fill:#AA7B55;}	.st3{fill:#8C5D40;}	.st4{fill:#FFFFFF;}	.st5{fill:#FA9339;}	.st6{fill:#8B4519;}</style><path id="Fill-59" class="st0" d="M81.8,64.1c0,3.1-15.3,5.6-34.1,5.6c-18.8,0-34.1-2.5-34.1-5.6c0-3.1,15.3-5.6,34.1-5.6 C66.5,58.5,81.8,61,81.8,64.1"></path><path id="Fill-60" class="st1" d="M37.3,63.2c7.1-0.2,16.1,3.4,21.8-0.6c1.3-0.9,0.6-1.5,0.5-1.4c-5.5,5.8-12.9,1-23.5,0.4 C36.1,61.7,37.3,63.1,37.3,63.2"></path><path id="Fill-61" class="st2" d="M27.2,25.3c-4.2-4.8-10.9-4.2-14.1-2.4c-4.5,2.6-12.9,12-7.6,16.9c3.5,3.3,4.2,5.5,9.3,8.5 c2.8,1.7,6.1,5.6,9.9,7.8c1.9,1.1,5,2.7,5.2,5c0.4,3.6,5.5,4.4,10,4.1c0.9,0-1.5-1.9-0.7-2c1.3-0.2,5.8,1,6.6,1.1 c4.2,0.5,7.4,0.8,9.7,0.8c4.9,0,6.5-2.4,7.3-3.2c2.5-2.6,0-4-0.8-5.4c-0.3-0.5,0.4-1.4,0.6-1.8c1.2-3.2,2-4.4,4-7.2 c1.5-2.3,1.2,0.7,2.5-3c3.3-9.3,0.6-3,1.1-7.6c0.2-1.6,5.8-3.4,1.3-11.1c-1.5-2.5-4-8.9-6.8-12.2c-2.9-3.4-1.5-0.5-4.1-1.3 c-20.2-6.1-9.2,2.3-22.6-1.2c-6.2-1.6-6.9-2-8.1,6.3C29.5,21.4,29.4,19.7,27.2,25.3"></path><path id="Fill-62" class="st3" d="M51.1,53.9c3.6,0.6,8.3-3.3,13.6-12.7c-2,25.2-35.2,24.3-41.7,4.4c-0.8-2.5,0.7-12,3.4-17.5 c7.5-15.2-0.4-0.8-2.1,0c-1.2,0.5-2.9,0-3.2,0.7c-4.6,10.5-6.9,16.3-3.3,21c3.3,4.4,8.9,6.1,9.6,6.6c0.2,0.1,1.6,6.2,4.5,7.3 c2,0.8,4.5,1.6,6.3,1.2c0.8-0.2,0.9-1.5,1.8-1.7c2-0.3,4.9,0.2,5.1,0.2c1.6,0.1,8,2.3,12.2,1.4c5.1-1,7.8-5.2,8.5-5.9 c0.9-0.9-6-2.6-5-3.7c4.6-5.2,8.9-12,6.9-15.8c-0.1-0.1,5.6-3.6,5.7-8c0.1-4.5-1.9,8.5-14,5.8c-3.8-0.8-3.6,7.8-5.6,7.7 C40,44.6,50.7,52.1,51.1,53.9"></path><path id="Fill-63" class="st4" d="M53.8,32.5c0,0.9-7.3,3.4-9.1,4.8c-1.8,1.4-2.9,0.8-3,4.2c0,0.5,1.8,5.7,2.2,6.5 c1.8,3.7,3.5,5.9,8,5.6c1.3-0.1,2.7-1.1,3.7-1.8c1.4-1,5.6-8.8,7.2-11c3-4.1-1.1-3.5-4.6-7C57.6,33.2,54.5,32.5,53.8,32.5"></path><path id="Fill-64" class="st0" d="M53.8,32.5c0,0.5-6.1,3.9-8,4.7C44,38,42.3,36,41.6,37.8c-1.3,3.2,4.1,11.1,4.5,11.6 c-0.7-2.2-2-5.3-1-7.2c1-1.9,6.9-4.6,6.9-2.6c0,2-0.5,5.5-1.1,10.6c1.3-0.1,4.2-9.5,5-10.4c1.2-1.2,3.6,0.1,3.9,1.2 c0.3,1.1-0.9,4.1-4,8.9c1.2-0.9,6.4-6,7.2-8.6c1.2-4.2-2.7-6.4-4.8-7.6C57.6,33.4,54.5,32.5,53.8,32.5"></path><path id="Fill-65" class="st5" d="M31.1,10.1c-1.3,0.1,0-3.3,1.3-4.5c5-4.5,5.2-3.3,10.1-5c2-0.7,7.9,0.5,9.7,1.5 c0.7,0.4,2.1,4.1,4,5c2.4,1.1,4.1,4.3,0,4.9c-4.3,0.7-11.1,1.3-14.7-1.6c-2.5-2-1,1.9-4.3,0.4C37.2,10.9,31.1,10.1,31.1,10.1"></path><path id="Fill-66" class="st6" d="M42,10.4c-0.7,0,2.2-0.9,2.9-1.6c2.7-2.4,3-1,5.7-1.9c1.1-0.4,5.4,0.6,6.4,1.1 c0.4,0.2,0.4,0.8,1.5,1.3c1.3,0.6,2.2,1.4,0,1.8c-2.3,0.4-6.6,1.9-8.6,0.3c-1.3-1.1-0.4,0.3-2.3,0.2C46.7,11.7,34.8,10.2,42,10.4"></path><path id="Fill-67" class="st1" d="M18.7,23.2C17.6,21.9,6.8,38.5,5.9,39.5c-2.1,2,1,3,4.5,6c6.2,5.1,5,4.6,9.5,6.7 c0-0.1,0-0.1-0.4-0.5c-0.2-0.2,1.4-4.6,1-5c-0.4-0.4-1.2,2.2-2.1,3.8c-0.8-0.8-2.2-2.1-2.1-2.2c1.4-3.4,5.1-11.7,4.6-12 c-0.8-0.5-4.8,9-6.1,10.5c-0.5,0.5-1.8-0.2-2.2-0.6c-0.3-0.3-0.7-0.7-0.4-1.3C14.3,40.2,23,25,22.3,24.5 c-0.6-0.4-8.3,13.7-11.5,17.9c-1.1,1.5-2.5-1-3.2-1.4C8.5,39.6,19,23.5,18.7,23.2"></path><path id="Fill-68" class="st1" d="M51.1,28.8c0.3,0.4,0.6,0.7,0.9,0.9c-0.3-0.8-0.3-1.7,0-2.5C51,27.6,50.5,28.1,51.1,28.8"></path><g>	<path class="st1" d="M63.8,21.6C63.8,21.6,63.8,21.6,63.8,21.6c-0.3-0.2-0.7-0.4-1.1-0.4c-1.1,0-1.9,0.9-1.9,1.9  c0,1.1,0.9,1.9,1.9,1.9c0.9,0,1.7-0.7,1.9-1.6c0-0.1,0-0.3,0-0.4c0,0,0,0,0-0.1c0,0,0-0.1,0-0.1c0,0,0,0,0,0c0-0.5-0.3-0.9-0.6-1.2  c0,0,0,0,0,0C64,21.7,63.9,21.6,63.8,21.6z"></path>	<path class="st1" d="M38.3,61.9c-0.3-0.2-0.8-0.5-0.9-0.4c-0.1,0.1,0.7,1.3,0.3,2.2c-0.4,0.9-5.7-0.7-6-1.3c-0.3-0.7,0.7-3,0.5-3.7  c-0.2-0.7-1.8-1.5-2.8-2.1c-8-4.3-23.9-17.1-23.1-21.7C7,30.7,14,22.8,15.7,22.4c1.6-0.4,7.9,0.7,8.1,0.2c0.2-0.5-8.4-3.9-10.2-3.4  C11.8,19.7,0.8,31,0.1,35.1c-1.7,9.8,24.1,22.4,27.6,24.4c1,0.6-0.8,2.9,0,4.2c1,1.7,13.2,2.9,13.4,1.8  C41.2,64.7,39.4,62.8,38.3,61.9z"></path>	<path class="st1" d="M66,13.5c0-1.2,2-2.4,1.8-3.9c-0.1-1-4.4-3-5.3-2.6c-0.8,0.3-1.2,1.7-1.8,2.4c0.3-1,0.4-2,0-2.3  c-0.3-0.3-1.9-0.6-4.2-0.7c-0.8-1.9-2.7-3.9-3.9-5c-1.3-1.2-4.6-1.5-8.3-1.1h0c-0.4-0.3-0.5-0.3-1.4-0.2c-0.9,0.1-0.9,0.3-0.7,0.5  c-5.4,0.9-11,3.1-12.3,6.3c-0.2,0.6-0.4,1.6-0.3,3c-1.7,1.5-3.1,3-3.1,3.4c0,1,1.8,2.5,1.9,3.3c0.1,0.8-3.3,6-5.3,13.2  c-2.5,8.9-1,21.2,6.9,21.1c4.3,0,3.2-6.6,0.3-6.4c-0.9,0-0.4,5.3-2.3,4.5c-3.5-1.5-4-10.8-1.4-17.1c5.1-12.9,7-13.6,6.9-14.5  c-0.2-0.9-2.1-2.5-2.2-3.1c-0.1-0.7,2.8-3.5,3.7-3.2c0.8,0.3,2,3.2,3.1,3.4c1,0.2,19.1-3,23.5-1.1c4.4,2,10.8,16.5,10.4,18  c-0.5,1.5-4.6,4.1-8.2,3.9c-2.6-0.1-5.9-2.5-7.4-3.7c0,0,0.1-0.1,0.1-0.1c-0.4,0.2-0.8,0.2-1.3,0.2c-0.5,0-0.9-0.1-1.2-0.2  c-2.1,1.7-5.7,4.1-9,4.3c-4.3,0.3-8.5-2.6-9.2-3.8c-0.8-1.4,2.1-6.8,1.7-7.1c-0.8-0.7-8.3,7.3-7.5,10.1c0.6,2.1,5.3,4.3,9.1,5.2  c1,3.5,5.2,12,6.6,12.9c1.5,1,6,1.4,7.9,0.6c2.1-0.9,9.1-7.9,11.2-13.9c0.7,0,1.5-0.2,2.3-0.5c-0.8,11.8-11.9,20-11.5,20.8  c0.4,0.8,6.8-1.1,7.6-0.4c0.7,0.7-2.4,4.1-2.2,4.2c0.2,0.1,7.6-4.9,7.1-6.9c-0.3-1.2-4.9-0.6-5.2-1c-0.3-0.4,7.9-6.2,9.8-19.2  c1.3-0.8,2.4-1.7,2.7-2.5C76.3,31.9,66,13.9,66,13.5z M51,2.8c0.6,0.6,1.8,2.1,2.6,3.5c-1.4,0-3-0.1-4.4,0  c-1.1-2.4-2.4-3.9-3.8-5.1C47.8,1.3,49.9,1.8,51,2.8z M38.6,9.9c-1-1.1-2.8-3.7-3.9-3.7c-0.4,0-1.5,0.6-2.7,1.5  c0.5-3.9,5.9-6.1,11-6.5c1.2,1,2.3,2.1,3.6,5.1c-2.3,0.1-4.2,0.3-4.8,0.7C40.6,7.6,39.5,8.8,38.6,9.9z M49.5,10  c-2.5,0-4.9,0.2-6.8,0.3c4.1-3.3,13.9-3.8,15-0.2C55.6,10.1,52.6,9.9,49.5,10z M49.9,52.8c-0.6-0.1-1.2-0.2-1.5-0.4  c-1.6-1-4.9-7.4-5.7-11.8c2.9-0.5,8.4-3.9,11-6.6C53.1,40,51.5,46.7,49.9,52.8z M53,52.6c-0.5,0.2-1.3,0.3-2.1,0.3  c2.2-5.5,4.5-11.7,5.6-19.1c1.6,1.9,4.1,4.4,6,5.5C61.3,43.1,55.2,51.4,53,52.6z"></path>	<path class="st1" d="M46.5,21.6C46.5,21.6,46.4,21.6,46.5,21.6c-0.4-0.3-0.7-0.4-1.2-0.4c-1.1,0-1.9,0.9-1.9,1.9  c0,1.1,0.9,1.9,1.9,1.9c0.5,0,1-0.2,1.4-0.6c0.4-0.3,0.6-0.8,0.6-1.4c0-0.6-0.2-1.1-0.6-1.4c0,0,0,0,0,0  C46.6,21.7,46.5,21.7,46.5,21.6z"></path></g><path id="Fill-74" d="M62.7,24.3c0.6,0,1.1-0.5,1.1-1.1c0-0.6-0.5-1.1-1.1-1.1s-1.1,0.5-1.1,1.1C61.6,23.8,62.1,24.3,62.7,24.3"></path><path id="Fill-75" class="st4" d="M63.7,23.1c0.3,0,0.6-0.3,0.6-0.6c0-0.3-0.3-0.6-0.6-0.6c-0.3,0-0.6,0.3-0.6,0.6 C63.2,22.8,63.4,23.1,63.7,23.1"></path><path id="Fill-77" d="M45.4,24.3c0.6,0,1.1-0.5,1.1-1.1c0-0.6-0.5-1.1-1.1-1.1s-1.1,0.5-1.1,1.1C44.2,23.8,44.7,24.3,45.4,24.3"></path><path id="Fill-78" class="st4" d="M46.3,23.1c0.3,0,0.6-0.3,0.6-0.6c0-0.3-0.3-0.6-0.6-0.6c-0.3,0-0.6,0.3-0.6,0.6 C45.8,22.8,46,23.1,46.3,23.1"></path><path id="Fill-79" d="M53.8,31.6c-0.1-0.1,0.5-1,0.7-1.6c0.2-0.9-0.5-1-1-0.9c-1,0.2-0.3,1.3-0.1,1.7c0.2,0.3,0.1,0.5-0.5,0 c-0.3-0.3-0.5-0.6-0.8-0.8c-0.3-0.3-0.6-0.6-0.9-1c-2-2.5,8.8-2.7,7.7-0.4c-0.4,0.9-1,1.5-1.6,2.2c-0.9,1.1,0.1-0.8,0.1-1.2 c0-0.5-0.3-0.4-0.5-0.2c-0.5,0.5,0.5,2.6-1.7,2.7C54.6,32,54.1,31.8,53.8,31.6"></path><path id="Fill-80" class="st1" d="M16.8,22.3c4,0.3,6.7,1.1,10.6,2.5c-1.3-1.5-3.2-2.2-6.7-3.7C19.2,20.4,17.7,21.4,16.8,22.3"></path><path id="Fill-81" class="st1" d="M22.8,46.7C22,48.2,6.2,35.2,5.1,34.5c-2.4-1.5,0.9-4.5,3.7-8.2c4.9-6.3,2.2-2.5,6.1-5.5 c0,0,5.8,5.1,5.6,5.3c-0.2,0.3-6.4-4.2-6.8-3.8c-0.6,0.7-1.3,1.4-1.1,1.5c2.3,2.5,9.1,7.1,8.5,7.7c-0.8,0.9-7.4-4.8-9.3-6.1 c-1.7-1.2-2.4,1.8-2.1,2.2c3.1,4.2,14.5,12.2,13.9,12.8c-0.5,0.6-10.4-6.8-14.7-10.1c-1.4-1.1-1.9,1.6-2.5,2.2 C7.6,33.7,23.1,46.3,22.8,46.7"></path></svg>