<svg xmlns="http://www.w3.org/2000/svg" width="45" height="45" viewBox="0 0 45 45" fill="none"><g id="Vector"><path d="M42.5819 25.3414C43.9509 25.1203 45 23.9306 45 22.5C45 21.0694 43.9509 19.8797 42.5819 19.6586C42.0029 15.5479 40.1461 11.6744 37.2986 8.63376L40.6068 5.32556C41.047 5.59907 41.5659 5.75754 42.1212 5.75754C43.7086 5.75754 45 4.46616 45 2.87877C45 1.29138 43.7086 0 42.1212 0C40.5338 0 39.2425 1.29138 39.2425 2.87877C39.2425 3.43415 39.4009 3.95297 39.6744 4.39321L36.3662 7.70142C33.3256 4.85394 29.4522 2.99707 25.3414 2.41813C25.1203 1.04906 23.9306 0 22.5 0C21.0694 0 19.8797 1.04906 19.6586 2.41813C15.5478 2.99707 11.6744 4.85394 8.63376 7.7015L5.32556 4.3933C5.59907 3.95306 5.75763 3.43415 5.75763 2.87886C5.75754 1.29138 4.46616 0 2.87877 0C1.29138 0 0 1.29138 0 2.87877C0 4.46616 1.29138 5.75754 2.87877 5.75754C3.43415 5.75754 3.95297 5.59907 4.3933 5.32547L7.7015 8.63367C4.85402 11.6743 2.99707 15.5478 2.41822 19.6585C1.04906 19.8797 0 21.0694 0 22.5C0 23.9306 1.04906 25.1203 2.41813 25.3414C2.99698 29.4521 4.85394 33.3256 7.70142 36.3662L4.39321 39.6744C3.95288 39.4009 3.43406 39.2424 2.87868 39.2424C1.29138 39.2425 0 40.5339 0 42.1212C0 43.7085 1.29138 45 2.87877 45C4.46616 45 5.75754 43.7086 5.75754 42.1212C5.75754 41.5658 5.59907 41.047 5.32547 40.6068L8.63367 37.2986C11.6743 40.1461 15.5478 42.003 19.6585 42.5819C19.8797 43.9509 21.0694 45 22.5 45C23.9306 45 25.1203 43.9509 25.3414 42.5819C29.4521 42.0029 33.3256 40.1461 36.3662 37.2986L39.6744 40.6068C39.4009 41.0471 39.2425 41.5659 39.2425 42.1212C39.2425 43.7086 40.5338 45 42.1212 45C43.7086 45 45 43.7086 45 42.1212C45 40.5338 43.7086 39.2425 42.1212 39.2425C41.5658 39.2425 41.047 39.4009 40.6068 39.6744L37.2986 36.3662C40.1461 33.3256 42.0029 29.4522 42.5819 25.3414ZM22.5 39.2425C21.2113 39.2425 20.1178 40.0936 19.7518 41.2632C11.5352 40.0647 4.93532 33.4647 3.73676 25.2482C4.90641 24.8822 5.75754 23.7887 5.75754 22.5C5.75754 21.2113 4.90641 20.1178 3.73676 19.7518C4.93532 11.5353 11.5353 4.93532 19.7518 3.73676C20.1178 4.90641 21.2113 5.75754 22.5 5.75754C23.7887 5.75754 24.8822 4.90641 25.2482 3.73676C33.4647 4.93523 40.0648 11.5353 41.2632 19.7518C40.0936 20.1178 39.2425 21.2113 39.2425 22.5C39.2425 23.7887 40.0936 24.8822 41.2632 25.2482C40.0648 33.4647 33.4647 40.0648 25.2482 41.2632C24.8822 40.0936 23.7887 39.2425 22.5 39.2425ZM43.6816 22.5C43.6816 23.3604 42.9816 24.0604 42.1212 24.0604C41.2609 24.0604 40.5608 23.3604 40.5608 22.5C40.5608 21.6396 41.2609 20.9396 42.1212 20.9396C42.9816 20.9396 43.6816 21.6396 43.6816 22.5ZM42.1212 1.31836C42.9816 1.31836 43.6816 2.01841 43.6816 2.87877C43.6816 3.73913 42.9816 4.43918 42.1212 4.43918C41.2609 4.43918 40.5608 3.73913 40.5608 2.87877C40.5608 2.01841 41.2609 1.31836 42.1212 1.31836ZM22.5 1.31836C23.3604 1.31836 24.0604 2.01841 24.0604 2.87877C24.0604 3.73913 23.3604 4.43918 22.5 4.43918C21.6396 4.43918 20.9396 3.73913 20.9396 2.87877C20.9396 2.01841 21.6396 1.31836 22.5 1.31836ZM1.31836 2.87877C1.31836 2.01841 2.01832 1.31836 2.87877 1.31836C3.73922 1.31836 4.43918 2.01841 4.43918 2.87877C4.43918 3.73913 3.73922 4.43918 2.87877 4.43918C2.01832 4.43918 1.31836 3.73913 1.31836 2.87877ZM1.31836 22.5C1.31836 21.6396 2.01832 20.9396 2.87877 20.9396C3.73922 20.9396 4.43918 21.6396 4.43918 22.5C4.43918 23.3604 3.73922 24.0604 2.87877 24.0604C2.01832 24.0604 1.31836 23.3604 1.31836 22.5ZM2.87877 43.6816C2.01832 43.6816 1.31836 42.9816 1.31836 42.1212C1.31836 41.2609 2.01832 40.5608 2.87877 40.5608C3.73922 40.5608 4.43918 41.2609 4.43918 42.1212C4.43918 42.9816 3.73922 43.6816 2.87877 43.6816ZM22.5 43.6816C21.6396 43.6816 20.9396 42.9816 20.9396 42.1212C20.9396 41.2609 21.6396 40.5608 22.5 40.5608C23.3604 40.5608 24.0604 41.2609 24.0604 42.1212C24.0604 42.9816 23.3604 43.6816 22.5 43.6816ZM43.6816 42.1212C43.6816 42.9816 42.9816 43.6816 42.1212 43.6816C41.2609 43.6816 40.5608 42.9816 40.5608 42.1212C40.5608 41.2609 41.2609 40.5608 42.1212 40.5608C42.9816 40.5608 43.6816 41.2609 43.6816 42.1212Z" fill="#104CBA"></path><path d="M35.4387 27.2442C35.1034 27.1027 34.7167 27.2596 34.5749 27.5949C34.1466 28.6087 33.6003 29.5464 32.9582 30.3978C31.8995 29.6964 30.7507 29.1081 29.5392 28.6409C29.9637 26.9394 30.2083 25.0828 30.2538 23.1592H35.5852C35.5583 23.6979 35.4996 24.2343 35.408 24.761C35.3457 25.1196 35.5859 25.4609 35.9445 25.5233C35.9828 25.5299 36.0207 25.5331 36.0582 25.5331C36.3727 25.5331 36.6511 25.3072 36.7069 24.9867C36.8486 24.1712 36.9206 23.3345 36.9206 22.5C36.9206 19.0351 35.6919 15.852 33.6479 13.3627C33.6405 13.3508 33.6334 13.3388 33.625 13.3273C33.5965 13.2875 33.564 13.2521 33.529 13.2208C30.8817 10.0791 26.9203 8.07935 22.5 8.07935C17.4997 8.07935 12.928 10.6123 10.2705 14.855C10.0772 15.1636 10.1706 15.5704 10.4792 15.7636C10.7879 15.9567 11.1946 15.8634 11.3877 15.5549C11.5937 15.226 11.8133 14.9094 12.0437 14.6036C13.1019 15.3043 14.25 15.8921 15.4607 16.3591C15.0362 18.0606 14.7916 19.9172 14.7461 21.8408H9.41458C9.47619 20.5943 9.71227 19.3719 10.1198 18.1986C10.2393 17.8548 10.0574 17.4791 9.71341 17.3596C9.36984 17.2401 8.99394 17.422 8.87449 17.766C8.3468 19.2849 8.07926 20.8776 8.07926 22.5C8.07926 25.9649 9.30788 29.1481 11.352 31.6375C11.3594 31.6493 11.3665 31.6613 11.3748 31.6728C11.4034 31.7126 11.4358 31.7479 11.4708 31.7793C14.1182 34.921 18.0796 36.9207 22.4999 36.9207C28.3112 36.9207 33.5276 33.4616 35.7893 28.108C35.931 27.7726 35.774 27.3859 35.4387 27.2442ZM28.2898 28.2085C26.651 27.7051 24.9204 27.415 23.1592 27.3569V23.1592H28.9354C28.8915 24.934 28.6709 26.6429 28.2898 28.2085ZM9.41423 23.1592H14.7461C14.7916 25.0828 15.0362 26.9394 15.4607 28.6409C14.252 29.1071 13.1057 29.6937 12.0489 30.3929C10.51 28.3602 9.54905 25.8667 9.41423 23.1592ZM16.0647 23.1592H21.8408V27.3569C20.0796 27.415 18.349 27.7051 16.7102 28.2085C16.3292 26.6429 16.1086 24.934 16.0647 23.1592ZM21.8408 28.6757V35.5308C20.4429 35.2299 19.1211 33.9778 18.0634 31.9285C17.6776 31.1811 17.3449 30.3577 17.0659 29.4773C18.589 29.0065 20.1996 28.7336 21.8408 28.6757ZM23.1592 35.5308V28.6757C24.8004 28.7336 26.411 29.0065 27.9341 29.4774C27.6551 30.3578 27.3224 31.1812 26.9366 31.9286C25.8789 33.9778 24.5571 35.2299 23.1592 35.5308ZM26.9366 13.0715C27.3224 13.8189 27.6551 14.6422 27.9341 15.5226C26.411 15.9935 24.8004 16.2664 23.1592 16.3243V9.46925C24.5571 9.7701 25.8789 11.0222 26.9366 13.0715ZM21.8408 9.46925V16.3243C20.1996 16.2664 18.589 15.9935 17.0659 15.5226C17.3449 14.6422 17.6776 13.8188 18.0634 13.0714C19.1211 11.0222 20.4429 9.7701 21.8408 9.46925ZM23.1592 17.6431C24.9204 17.585 26.651 17.2949 28.2898 16.7915C28.6708 18.3571 28.8915 20.066 28.9354 21.8408H23.1592V17.6431ZM35.5858 21.8408H30.2539C30.2084 19.9172 29.9638 18.0606 29.5393 16.359C30.748 15.8928 31.8943 15.3062 32.9511 14.6071C34.49 16.6398 35.4509 19.1333 35.5858 21.8408ZM32.0971 13.5904C31.1881 14.1794 30.2089 14.68 29.1786 15.0858C28.8795 14.1472 28.5217 13.2681 28.1081 12.4668C27.6018 11.4858 27.0314 10.6579 26.4125 9.99448C28.6126 10.6842 30.5642 11.9402 32.0971 13.5904ZM12.8939 13.5846C14.4556 11.8954 16.4185 10.6624 18.5937 9.98789C17.9724 10.6524 17.3999 11.4825 16.8919 12.4668C16.4783 13.2681 16.1205 14.1472 15.8214 15.0859C14.7878 14.6787 13.8055 14.1761 12.8939 13.5846ZM16.7102 16.7915C18.349 17.2949 20.0795 17.585 21.8408 17.6431V21.8408H16.0647C16.1086 20.066 16.3292 18.3571 16.7102 16.7915ZM12.9029 31.4096C13.8119 30.8206 14.7911 30.3199 15.8214 29.9141C16.1205 30.8527 16.4783 31.7319 16.8919 32.5331C17.3982 33.5142 17.9685 34.3421 18.5874 35.0055C16.3874 34.3158 14.4359 33.0598 12.9029 31.4096ZM26.4107 35.0075C27.0302 34.3438 27.6013 33.5152 28.1081 32.5332C28.5217 31.7319 28.8795 30.8529 29.1786 29.9142C30.2122 30.3213 31.1945 30.8239 32.1061 31.4154C30.5561 33.0869 28.5935 34.3274 26.4107 35.0075Z" fill="#104CBA"></path></g></svg>