<svg xmlns="http://www.w3.org/2000/svg" width="85" height="85" viewBox="0 0 85 85" fill="none"><path d="M85 42.5C85 38.9725 82.3102 36.0907 78.8786 35.7192C77.9395 30.6672 75.9324 25.8222 73.0177 21.5749C73.9994 20.3602 74.5601 18.8782 74.5601 17.2948C74.5601 15.4631 73.8472 13.7426 72.553 12.4484C70.0578 9.95323 66.1177 9.81887 63.4278 11.9836C59.1792 9.06758 54.3342 7.05911 49.2822 6.12C48.9079 2.68984 46.0275 0 42.5 0C38.9725 0 36.0921 2.68984 35.7192 6.12137C30.6672 7.06048 25.8222 9.06895 21.5735 11.985C18.8851 9.81887 14.9435 9.95323 12.4484 12.4484C11.1542 13.7426 10.4413 15.4631 10.4413 17.2948C10.4413 18.8782 11.002 20.3616 11.9836 21.5749C9.06895 25.8222 7.06185 30.6658 6.12274 35.7192C2.68984 36.0907 0 38.9711 0 42.5C0 46.0289 2.68984 48.9093 6.12137 49.2808C7.06048 54.3328 9.06758 59.1778 11.9823 63.4251C11.0006 64.6398 10.4399 66.1218 10.4399 67.7052C10.4399 69.5369 11.1528 71.2574 12.447 72.5516C13.7837 73.8883 15.5385 74.556 17.2948 74.556C18.8179 74.556 20.3232 74.0227 21.5722 73.0164C25.8194 75.931 30.6658 77.9395 35.7192 78.8786C36.0907 82.3102 38.9711 85 42.5 85C46.0275 85 48.9079 82.3102 49.2808 78.8786C54.3342 77.9395 59.1792 75.931 63.4278 73.0164C64.6768 74.0213 66.1821 74.556 67.7052 74.556C69.4601 74.556 71.2163 73.8883 72.553 72.5516C73.8472 71.2574 74.5601 69.5369 74.5601 67.7052C74.5601 66.1218 73.9994 64.6384 73.0177 63.4251C75.9324 59.1778 77.9395 54.3328 78.8786 49.2808C82.3102 48.9093 85 46.0289 85 42.5ZM63.4114 62.4065L56.7128 56.7375C57.2489 55.7614 57.5806 54.6577 57.5806 53.4677C57.5806 53.051 57.5285 52.6479 57.4573 52.2531L72.4269 46.2647C73.2933 47.5767 74.6067 48.5473 76.1394 49.0203C75.2675 53.5308 73.4743 57.8576 70.8941 61.6744C68.5114 60.4185 65.5665 60.6612 63.4114 62.4065ZM46.6129 53.4677C46.6129 51.2002 48.4582 49.3548 50.7258 49.3548C52.9934 49.3548 54.8387 51.2002 54.8387 53.4677C54.8387 55.7353 52.9934 57.5806 50.7258 57.5806C48.4582 57.5806 46.6129 55.7353 46.6129 53.4677ZM22.1425 62.8589C21.7915 62.5079 21.4104 62.2104 21.0101 61.9513L26.6077 45.1597C26.8765 45.1926 27.141 45.2419 27.4194 45.2419C29.3332 45.2419 31.0606 44.4495 32.3055 43.1814L44.3549 50.9781C44.0519 51.7527 43.871 52.5876 43.871 53.4677C43.871 53.9654 43.9299 54.448 44.0314 54.9155L23.1159 64.1174C22.839 63.6691 22.525 63.2414 22.1425 62.8589ZM14.1045 61.6757C11.5244 57.859 9.73113 53.5322 8.85919 49.0217C11.6477 48.1607 13.6932 45.5943 13.7056 42.5288L21.1019 41.0495C21.6846 42.4273 22.721 43.5515 24.0043 44.296L18.4477 60.9656C16.9767 60.7147 15.4535 60.9642 14.1045 61.6757ZM17.2948 24.1455C17.9144 24.1455 18.5273 24.0317 19.1291 23.8644L23.3476 32.9032C21.675 34.1481 20.5769 36.1209 20.5673 38.3583L13.1709 39.8376C12.3881 37.9854 10.7991 36.5774 8.86056 35.9783C9.7325 31.4665 11.5257 27.1397 14.1045 23.3243C15.1026 23.8507 16.1925 24.1455 17.2948 24.1455ZM22.1425 22.1411C22.4496 21.834 22.7197 21.4995 22.9596 21.1485L41.2305 27.7923C41.1811 28.1213 41.129 28.449 41.129 28.7903C41.129 29.3401 41.2113 29.8679 41.3333 30.3806L32.9019 34.3167C31.6515 32.6359 29.6691 31.5323 27.4194 31.5323C26.8696 31.5323 26.3418 31.6145 25.829 31.7365L21.5694 22.6086C21.7614 22.4551 21.9643 22.3194 22.1425 22.1411ZM47.9839 24.6774C50.2515 24.6774 52.0968 26.5227 52.0968 28.7903C52.0968 31.0579 50.2515 32.9032 47.9839 32.9032C45.7163 32.9032 43.871 31.0579 43.871 28.7903C43.871 26.5227 45.7163 24.6774 47.9839 24.6774ZM62.8575 22.1411C64.1942 23.4778 65.949 24.1455 67.7052 24.1455C68.8075 24.1455 69.8974 23.8507 70.8955 23.3243C73.4743 27.1397 75.2689 31.4678 76.1408 35.9783C74.7109 36.4198 73.4811 37.2985 72.6188 38.4817L54.655 30.3162C54.7661 29.824 54.8387 29.3168 54.8387 28.7903C54.8387 28.0431 54.6893 27.3385 54.4672 26.664L62.7053 21.956C62.7602 22.015 62.7999 22.0849 62.8575 22.1411ZM51.3496 46.676L50.0842 35.2819C51.473 34.8308 52.6671 33.9657 53.5102 32.8086L71.4754 40.9741C71.363 41.4663 71.2903 41.9735 71.2903 42.5C71.2903 42.9168 71.3424 43.3198 71.4137 43.716L56.4441 49.7031C55.3268 48.0113 53.4746 46.872 51.3496 46.676ZM47.3601 35.5821L48.6255 46.9762C47.563 47.3217 46.6047 47.8934 45.841 48.6721L33.7902 40.874C34.0932 40.1022 34.2742 39.2673 34.2742 38.3871C34.2742 37.8373 34.1919 37.3095 34.0699 36.7968L42.5 32.8621C43.6324 34.3811 45.3708 35.3984 47.3601 35.5821ZM23.3065 38.3871C23.3065 36.1195 25.1518 34.2742 27.4194 34.2742C29.6869 34.2742 31.5323 36.1195 31.5323 38.3871C31.5323 40.6547 29.6869 42.5 27.4194 42.5C25.1518 42.5 23.3065 40.6547 23.3065 38.3871ZM82.2581 42.5C82.2581 44.7676 80.4127 46.6129 78.1452 46.6129C75.8776 46.6129 74.0323 44.7676 74.0323 42.5C74.0323 40.2324 75.8776 38.3871 78.1452 38.3871C80.4127 38.3871 82.2581 40.2324 82.2581 42.5ZM67.7052 13.1846C68.7581 13.1846 69.8124 13.5849 70.6144 14.3869C71.3904 15.1629 71.8181 16.1952 71.8181 17.2948C71.8181 18.3943 71.3904 19.4266 70.6144 20.2026C69.0104 21.8052 66.4015 21.8052 64.7974 20.2026C64.0215 19.4266 63.5937 18.3943 63.5937 17.2948C63.5937 16.1952 64.0215 15.1629 64.7974 14.3869C65.5981 13.5849 66.651 13.1846 67.7052 13.1846ZM49.0203 8.86056C53.5294 9.7325 57.8548 11.5257 61.6716 14.1031C61.1534 15.0793 60.849 16.1582 60.849 17.2948C60.849 18.1009 61.0094 18.8782 61.2754 19.6158L53.1072 24.284C51.85 22.8554 50.0307 21.9355 47.9839 21.9355C47.8838 21.9355 47.7906 21.9602 47.6905 21.9656L45.4531 13.0146C47.1585 12.192 48.4555 10.6922 49.0203 8.86056ZM42.5 2.74194C44.7676 2.74194 46.6129 4.58726 46.6129 6.85484C46.6129 9.12242 44.7676 10.9677 42.5 10.9677C40.2324 10.9677 38.3871 9.12242 38.3871 6.85484C38.3871 4.58726 40.2324 2.74194 42.5 2.74194ZM42.5 13.7097C42.6001 13.7097 42.6933 13.685 42.7934 13.6795L45.0308 22.6306C43.8435 23.2023 42.851 24.0989 42.1627 25.2148L24.0207 18.6177C24.1044 18.1859 24.1496 17.7444 24.1496 17.2948C24.1496 16.1582 23.8452 15.0793 23.327 14.1031C27.1438 11.5244 31.4692 9.7325 35.9783 8.86056C36.8434 11.6573 39.4222 13.7097 42.5 13.7097ZM14.3869 14.3869C15.189 13.5849 16.2432 13.1846 17.2961 13.1846C18.349 13.1846 19.4033 13.5849 20.2053 14.3869C20.9813 15.1629 21.409 16.1952 21.409 17.2948C21.409 18.3943 20.9813 19.4266 20.2053 20.2026C18.6013 21.8052 15.9923 21.8052 14.3883 20.2026C13.6123 19.4266 13.1846 18.3943 13.1846 17.2948C13.1846 16.1952 13.6096 15.1643 14.3869 14.3869ZM2.74194 42.5C2.74194 40.2324 4.58726 38.3871 6.85484 38.3871C9.12242 38.3871 10.9677 40.2324 10.9677 42.5C10.9677 44.7676 9.12242 46.6129 6.85484 46.6129C4.58726 46.6129 2.74194 44.7676 2.74194 42.5ZM14.3869 70.6131C13.611 69.8371 13.1832 68.8048 13.1832 67.7052C13.1832 66.6057 13.611 65.5734 14.3869 64.7974C15.189 63.9954 16.2419 63.5951 17.2961 63.5951C18.349 63.5951 19.4033 63.9954 20.2053 64.7974C20.9813 65.5734 21.409 66.6057 21.409 67.7052C21.409 68.8048 20.9813 69.8371 20.2053 70.6131C18.5999 72.2157 15.991 72.2157 14.3869 70.6131ZM35.9797 76.1394C31.4692 75.2675 27.1438 73.4743 23.3284 70.8969C23.8466 69.9207 24.151 68.8418 24.151 67.7052C24.151 67.3639 24.1016 67.0335 24.0536 66.7017L45.146 57.4202C45.7163 58.2223 46.458 58.8803 47.3121 59.3752L43.313 71.3712C43.0429 71.3397 42.7783 71.2903 42.5 71.2903C39.4222 71.2903 36.8434 73.3427 35.9797 76.1394ZM42.5 82.2581C40.2324 82.2581 38.3871 80.4127 38.3871 78.1452C38.3871 75.8776 40.2324 74.0323 42.5 74.0323C44.7676 74.0323 46.6129 75.8776 46.6129 78.1452C46.6129 80.4127 44.7676 82.2581 42.5 82.2581ZM45.9151 72.2363L49.9142 60.2403C50.1829 60.2732 50.4475 60.3226 50.7258 60.3226C52.323 60.3226 53.7748 59.7509 54.9415 58.8323L61.6675 64.5232C61.1534 65.4966 60.8504 66.5728 60.8504 67.7052C60.8504 68.8418 61.1548 69.9221 61.673 70.8982C57.8576 73.4756 53.5322 75.2689 49.0217 76.1408C48.5076 74.4778 47.393 73.0945 45.9151 72.2363ZM70.6131 70.6131C69.009 72.2171 66.4001 72.2171 64.796 70.6131C64.0201 69.8371 63.5923 68.8048 63.5923 67.7052C63.5923 66.6057 64.0201 65.5734 64.796 64.7974C65.5981 63.9954 66.651 63.5951 67.7052 63.5951C68.7581 63.5951 69.8124 63.9954 70.6144 64.7974C71.3904 65.5734 71.8181 66.6057 71.8181 67.7052C71.8181 68.8048 71.3904 69.8357 70.6131 70.6131Z" fill="#104CBA"></path></svg>