<svg xmlns="http://www.w3.org/2000/svg" width="81" height="85" viewBox="0 0 81 85" fill="none"><path d="M19.4987 8.21029C16.5959 8.21029 14.2343 10.5719 14.2343 13.4746C14.2343 16.3774 16.5959 18.7391 19.4987 18.7391C22.4014 18.7391 24.7632 16.3774 24.7632 13.4746C24.7632 10.5719 22.4014 8.21029 19.4987 8.21029ZM19.4987 16.2489C17.969 16.2489 16.7245 15.0045 16.7245 13.4746C16.7245 11.945 17.969 10.7005 19.4987 10.7005C21.0285 10.7005 22.2729 11.945 22.2729 13.4746C22.2728 15.0045 21.0283 16.2489 19.4987 16.2489Z" fill="#104CBA"></path><path d="M24.763 37.0554V32.2425C24.763 31.5547 24.2057 30.9974 23.5179 30.9974H10.8353C10.1475 30.9974 9.59021 31.5547 9.59021 32.2425V37.0554C9.59021 37.7432 10.1475 38.3006 10.8353 38.3006H23.5181C24.2057 38.3006 24.763 37.7432 24.763 37.0554ZM22.2728 35.8103H12.0804V33.4876H22.2729L22.2728 35.8103Z" fill="#104CBA"></path><path d="M77.2499 10.3358H69.3464C67.97 10.3358 66.7695 11.1018 66.1476 12.2295H32.9733V11.4401C32.9733 10.8513 32.5609 10.3431 31.9847 10.2217L28.9506 9.5829C28.9451 9.56962 28.9396 9.55634 28.934 9.54306L30.6278 6.94591C30.9496 6.45268 30.8817 5.80157 30.4653 5.38537L27.5881 2.50799C27.1717 2.09163 26.5208 2.02356 26.0274 2.34546L23.4301 4.03948C23.4168 4.03401 23.4037 4.02853 23.3904 4.02288L22.7516 0.988621C22.6304 0.412382 22.122 0 21.5332 0H17.464C16.8751 0 16.367 0.412382 16.2456 0.988621L15.6068 4.02288C15.5935 4.02836 15.5804 4.03384 15.5671 4.03948L12.9699 2.34546C12.4767 2.02373 11.8256 2.09196 11.4092 2.50799L8.53186 5.3852C8.11549 5.80174 8.04776 6.45285 8.36933 6.94591L10.0633 9.54322C10.0579 9.55651 10.0524 9.56962 10.0467 9.5829L7.01249 10.2217C6.43625 10.3429 6.02387 10.8513 6.02387 11.4401V12.2295H5.99083C2.68762 12.2295 0 14.917 0 18.2203V56.9522C0 60.2554 2.68746 62.943 5.99083 62.943H10.708C11.31 67.2815 15.1203 70.5754 19.4982 70.5754C20.7891 70.5754 22.0151 70.2962 23.1228 69.7988L20.3067 80.8179C19.1884 85.1927 26.1585 86.6789 27.2328 82.4781L32.2256 62.9434H36.2792V81.648C36.2792 83.471 37.8083 85 39.6312 85C41.4544 85 42.9832 83.471 42.9832 81.648V62.943H47.0371L52.0297 82.4776C53.103 86.6776 60.0745 85.1939 58.9559 80.8176L54.3878 62.943H73.272C76.5752 62.943 79.2628 60.2556 79.2628 56.9522V30.0488C79.2628 29.361 78.7055 28.8037 78.0177 28.8037C77.3299 28.8037 76.7726 29.361 76.7726 30.0488V56.9522C76.7726 58.8825 75.2023 60.4528 73.272 60.4528L28.2877 60.453C27.6802 56.1455 23.9711 52.8206 19.4983 52.8206C15.1203 52.8206 11.3101 56.1138 10.7082 60.4528H5.99083C4.06057 60.4528 2.49023 58.8825 2.49023 56.9522V20.7883H8.17327C8.19734 21.0733 8.31753 21.3499 8.53186 21.5642L11.4092 24.4414C11.8254 24.8575 12.4762 24.9257 12.9698 24.604L15.5669 22.9099C15.5802 22.9154 15.5935 22.9209 15.6068 22.9265L16.2456 25.9608C16.3668 26.5371 16.8751 26.9494 17.464 26.9494H21.5332C22.122 26.9494 22.6302 26.5371 22.7516 25.9608L23.3904 22.9265C23.4037 22.9211 23.417 22.9156 23.4302 22.9099L26.0274 24.604C26.5209 24.9259 27.1721 24.8576 27.5881 24.4414L30.4653 21.5642C30.6796 21.3499 30.7997 21.0733 30.8237 20.7883H65.25L53.6427 32.3956L47.6808 26.4353C46.7527 25.5033 45.2109 25.5038 44.2816 26.4335L40.4111 30.3038C39.9247 30.79 39.9247 31.5784 40.411 32.0645C40.8972 32.5506 41.6856 32.551 42.1717 32.0647L45.9803 28.2565L51.944 34.2187C52.8726 35.1466 54.4137 35.1494 55.3415 34.2186L72.2864 17.2736C72.6425 16.9173 72.7489 16.3819 72.5562 15.9166C72.3636 15.4512 71.9094 15.1479 71.4058 15.1479H69.3461C67.8486 15.1479 67.8501 12.826 69.3461 12.826H77.2496C77.8716 12.826 78.3778 13.3314 78.3778 13.9524V21.8559C78.3778 22.4899 77.8497 23.0179 77.2159 23.0179C76.5754 23.0179 76.0541 22.4966 76.0541 21.8559V19.798C76.0541 19.2945 75.7508 18.8402 75.2855 18.6477C74.8201 18.4546 74.2847 18.5613 73.9286 18.9174L53.6435 39.2009L47.6791 33.2379C46.7438 32.3029 45.2206 32.3024 44.2814 33.2381L34.0627 43.4585C33.0166 44.5062 31.3605 42.8769 32.4211 41.8154L38.0222 36.2147C38.5084 35.7283 38.5084 34.9401 38.0222 34.4538C37.5359 33.9679 36.7475 33.9676 36.2614 34.4538L30.6604 40.0545C29.2096 41.5057 29.2692 43.9263 30.7673 45.3174C32.1856 46.6344 34.4568 46.5889 35.8246 45.2186L45.9804 35.0613L51.9442 41.0234C52.8687 41.9511 54.4158 41.9544 55.3415 41.025L73.6635 22.7046C74.047 24.3106 75.4943 25.5084 77.216 25.5084C79.2052 25.5084 80.8682 23.8459 80.8682 21.8562V13.9524C80.8684 11.9581 79.2451 10.3358 77.2499 10.3358ZM24.8201 81.861C24.544 82.9412 22.4056 82.6617 22.7195 81.4345L26.3106 67.3833C27.3472 66.1435 28.0513 64.6178 28.2875 62.9432H29.6553L24.8201 81.861ZM40.4931 81.6478C40.4931 82.7566 38.7694 82.7585 38.7694 81.6478V62.943H40.4931V81.6478ZM56.5433 81.4343C56.8564 82.6587 54.7186 82.9403 54.4427 81.861L49.6077 62.943H51.8175L56.5433 81.4343ZM18.0567 55.4735C18.5275 55.3656 19.0126 55.3108 19.4983 55.3108C23.0202 55.3108 25.8853 58.1749 25.8864 61.6958L25.8863 61.6979L25.8864 61.7001C25.8853 65.2209 23.02 68.085 19.4983 68.085C16.0037 68.085 13.1112 65.1896 13.1112 61.6978C13.1112 58.704 15.1454 56.1444 18.0567 55.4735ZM2.49023 18.2203C2.49023 16.2901 4.06057 14.7197 5.99083 14.7197H6.02387V15.5093C6.02387 16.0982 6.43625 16.6063 7.01249 16.7277L10.0467 17.3665C10.0522 17.3798 10.0577 17.3929 10.0633 17.4062L9.48163 18.298H2.49023V18.2203ZM26.5415 21.966L24.2155 20.4488C23.3708 19.8983 21.2998 20.7672 21.0947 21.742L20.5228 24.4589H18.4743L17.9024 21.742C17.6949 20.7552 15.6159 19.9047 14.7817 20.4488L12.4556 21.966L11.007 20.5175L12.5242 18.1915C13.0745 17.3469 12.2059 15.2757 11.2311 15.0707L8.5141 14.4988V12.4505L11.2311 11.8786C12.2181 11.671 13.0679 9.59203 12.5242 8.75781L11.007 6.43177L12.4556 4.98312L14.7817 6.50033C15.6262 7.05084 17.6974 6.18208 17.9024 5.20724L18.4745 2.49023H20.523L21.0949 5.20724C21.3024 6.19403 23.3814 7.0442 24.2157 6.50033L26.5417 4.98312L27.9902 6.43177L26.473 8.75781C25.9223 9.60216 26.7916 11.6737 27.7662 11.8786L30.4831 12.4505V14.4989L27.7662 15.0709C26.7796 15.2782 25.9289 17.3576 26.473 18.1916L27.9902 20.5177L26.5415 21.966ZM68.4986 17.5397L67.7404 18.2979H29.5155L28.934 17.4062C28.9395 17.3929 28.9449 17.3796 28.9506 17.3664L31.9847 16.7275C32.5609 16.6063 32.9733 16.098 32.9733 15.5092V14.7196H65.7698C66.048 16.093 67.1346 17.2171 68.4986 17.5397Z" fill="#104CBA"></path><path d="M70.437 52.1318H46.8391C46.1513 52.1318 45.5939 52.6891 45.5939 53.3769C45.5939 54.0647 46.1513 54.622 46.8391 54.622H70.437C71.1248 54.622 71.6821 54.0647 71.6821 53.3769C71.6821 52.6891 71.1246 52.1318 70.437 52.1318Z" fill="#104CBA"></path><path d="M70.437 46.6691H56.4467C55.7589 46.6691 55.2016 47.2264 55.2016 47.9142C55.2016 48.602 55.7589 49.1593 56.4467 49.1593H70.437C71.1248 49.1593 71.6821 48.602 71.6821 47.9142C71.6821 47.2264 71.1246 46.6691 70.437 46.6691Z" fill="#104CBA"></path><path d="M10.8353 40.5391C10.1475 40.5391 9.59021 41.0964 9.59021 41.7842C9.59021 42.472 10.1475 43.0293 10.8353 43.0293H19.4987C20.1865 43.0293 20.7438 42.472 20.7438 41.7842C20.7438 41.0964 20.1865 40.5391 19.4987 40.5391H10.8353Z" fill="#104CBA"></path><path d="M19.4988 64.6221C20.1866 64.6221 20.7439 64.0648 20.7439 63.377V60.0189C20.7439 59.3311 20.1866 58.7737 19.4988 58.7737C18.811 58.7737 18.2537 59.3311 18.2537 60.0189V63.377C18.2537 64.0646 18.811 64.6221 19.4988 64.6221Z" fill="#104CBA"></path></svg>