<svg xmlns="http://www.w3.org/2000/svg" xmlns:xlink="http://www.w3.org/1999/xlink" xmlns:svgjs="http://svgjs.com/svgjs" width="512" height="512" x="0" y="0" viewBox="0 0 512 512" style="enable-background:new 0 0 512 512" xml:space="preserve" class=""><g><g xmlns="http://www.w3.org/2000/svg"><g><path d="m452.443 195.674h-173.547c-4.142 0-7.5 3.357-7.5 7.5s3.358 7.5 7.5 7.5h173.547c4.142 0 7.5-3.357 7.5-7.5s-3.358-7.5-7.5-7.5z" fill="#104cba" data-original="#000000" style="" class=""></path><path d="m452.443 240.001h-173.547c-4.142 0-7.5 3.357-7.5 7.5s3.358 7.5 7.5 7.5h173.547c4.142 0 7.5-3.357 7.5-7.5s-3.358-7.5-7.5-7.5z" fill="#104cba" data-original="#000000" style="" class=""></path><path d="m452.443 284.327h-173.547c-4.142 0-7.5 3.357-7.5 7.5s3.358 7.5 7.5 7.5h173.547c4.142 0 7.5-3.357 7.5-7.5s-3.358-7.5-7.5-7.5z" fill="#104cba" data-original="#000000" style="" class=""></path><path d="m367.821 83.573 15.726-12.713v44.986c0 4.143 3.358 7.5 7.5 7.5s7.5-3.357 7.5-7.5v-44.985l15.725 12.712c3.221 2.604 7.943 2.104 10.547-1.118s2.104-7.943-1.118-10.548c-16.049-12.973-11.732-9.484-27.94-22.586-.003-.002-.005-.004-.008-.006-2.581-2.083-6.234-2.219-8.958-.34-.636.438-.126.099-28.404 22.932-3.221 2.604-3.722 7.327-1.118 10.548 2.612 3.231 7.335 3.714 10.548 1.118z" fill="#104cba" data-original="#000000" style="" class=""></path><path d="m504.479 158.133c-4.142 0-7.5 3.357-7.5 7.5v183.695h-481.958v-257.221c0-11.055 8.994-20.049 20.049-20.049h218.73c4.142 0 7.5-3.357 7.5-7.5s-3.358-7.5-7.5-7.5h-218.73c-19.326 0-35.049 15.723-35.049 35.049v292.062c0 19.326 15.723 35.049 35.049 35.049h170.822c-2.805 13.634-8.578 26.468-16.961 37.644h-29.961c-15.202 0-27.569 12.367-27.569 27.569s12.367 27.569 27.569 27.569h194.06c15.202 0 27.569-12.367 27.569-27.569s-12.368-27.569-27.569-27.569h-29.961c-8.383-11.176-14.156-24.01-16.961-37.644h170.822c19.326 0 35.049-15.723 35.049-35.049v-218.536c0-4.143-3.358-7.5-7.5-7.5zm-138.879 326.298c0 6.931-5.639 12.569-12.569 12.569h-194.061c-6.931 0-12.569-5.639-12.569-12.569s5.639-12.569 12.569-12.569h194.06c6.931-.001 12.57 5.638 12.57 12.569zm-60.611-27.57h-97.977c6.994-11.548 11.793-24.291 14.151-37.644h69.675c2.358 13.353 7.157 26.096 14.151 37.644zm171.941-52.643c-6.937 0-440.104 0-441.86 0-11.055 0-20.049-8.994-20.049-20.049v-19.841h481.958v19.841c0 11.055-8.994 20.049-20.049 20.049z" fill="#104cba" data-original="#000000" style="" class=""></path><path d="m211.508 174.271-65.483-37.807c-5.857-3.383-13.133-3.381-18.99 0l-65.483 37.807c-5.851 3.378-9.495 9.679-9.495 16.446v75.613c0 6.763 3.638 13.064 9.495 16.446l65.483 37.806c5.855 3.381 13.132 3.382 18.99 0l65.483-37.806c5.857-3.382 9.495-9.684 9.495-16.446v-75.613c0-6.754-3.633-13.062-9.495-16.446zm-142.456 95.515c-1.23-.711-1.995-2.035-1.995-3.456v-69.257l61.973 35.78v71.56zm134.956 0-59.978 34.628v-71.56l17.814-10.285c3.587-2.071 4.816-6.658 2.745-10.245-2.071-3.588-6.658-4.815-10.245-2.745l-17.814 10.285-61.974-35.78 59.979-34.629c1.23-.711 2.76-.711 3.99 0l59.978 34.629-13.788 7.96c-3.587 2.071-4.816 6.658-2.745 10.245 2.077 3.598 6.667 4.81 10.245 2.745l13.788-7.96v69.257c0 1.42-.765 2.744-1.995 3.455z" fill="#104cba" data-original="#000000" style="" class=""></path><path d="m333.753 160.987h128c14.648 0 27.852-5.825 36.799-15.645 17.458-19.164 17.883-47.952.988-66.963-7.049-7.934-16.22-13.315-26.521-15.564-2.212-.483-3.899-2.065-4.511-4.231-9.736-34.493-41.594-58.584-77.471-58.584-26.088 0-50.669 12.734-65.755 34.063-.926 1.31-2.345 2.201-3.997 2.509-29.999 5.601-51.518 31.843-51.168 62.399.392 34.196 28.939 62.016 63.636 62.016zm-9.715-109.669c5.508-1.028 10.3-4.08 13.491-8.593 12.279-17.361 32.282-27.725 53.508-27.725 29.193 0 55.115 19.598 63.036 47.659 2.111 7.476 8.144 13.15 15.747 14.811 7.18 1.568 13.58 5.328 18.507 10.873v.001c11.784 13.26 11.413 33.421-.864 46.897-5.975 6.557-15.078 10.746-25.71 10.746h-128c-26.521 0-48.339-21.168-48.637-47.188-.266-23.252 16.103-43.221 38.922-47.481z" fill="#104cba" data-original="#000000" style="" class=""></path></g></g></g></svg>